<?xml version="1.0" encoding="UTF-8"?>
<svg xmlns="http://www.w3.org/2000/svg" xmlns:xlink="http://www.w3.org/1999/xlink" version="1.1" id="Op.93_A-Wgm_4r_page" x="0px" y="0px" width="1115px" height="1657px" viewBox="0 0 1115 1657" xml:space="preserve" preserveAspectRatio="xMidYMid meet" zoomAndPan="magnify" contentScriptType="text/ecmascript" contentStyleType="text/css"><!--SVG prepared on 2016-10-21 by prepareSVGs.xsl-->
    <path id="shape_f893ddf1-f37d-40cb-b5e1-58327ec90c01" opacity="1" fill="#D4C5A7" d="M950.142,1540.492c0,0.486,0,0.99,0,1.492c-0.502,0.326-1.006,0.65-1.492,0.99  c-2.369,1.965-5.891,1.088-9.479,1.996c-3.344,0.844-9.641,2.922-14.459,1.494c-6.721-1.996-14.006-4.154-22.43-1.996  c-1.492,0-3.002,0-4.496,0c-7.076,1.85-14.752,2.969-22.428,0.99c-3.166,0-6.314,0-9.479,0c-4.43-1.088-13.893-3.945-19.945-2.484  c-5.275,1.283-13.324-1.623-19.443,0c-2.352,0.633-6.395,1.332-8.975,1.996c-2.645,0.162-5.307,0.324-7.969,0.488  c-1.055,0.307-2.434,1.59-4.494,1.006c-4.414-1.234-9.998-3.246-14.445-4.48c-1.508,0-3.002,0-4.494,0  c-5.08-1.314-11.312-1.703-16.457-3.002c-6.15-0.162-12.285-0.324-18.436-0.502c-7.986-1.98-17.771-1.43-25.936-3.475  c-4.316-0.178-8.633-0.34-12.967-0.502l-0.99-0.99c0,0-13.941,0.746-14.963,0.99c-1.721,0.404-6.523,1.363-8.473,0.99  c-2.352-0.422-5.906,0.404-9.461-0.488c-10.354-2.645-24.051-2.58-36.402-2.498c-5.34,0.031-12.951,3.246-19.945,1.492  c-4.689-1.168-10.402-0.697-15.449-1.996c-8.213-2.109-17.625-2.482-28.418-2.482c-5.193,0-10.662-2.176-15.467-1.006  c-2.873,0.713-16.879,1.363-20.432,0.502c-0.65-0.178-2.582-0.893-3.994-0.502c-3.455,0.908-8.828,2.076-11.961,2.986  c-2.984,0-5.988,0-8.974,0c-0.778,0.129-2.045,0.844-3.489,0.502c-3.619-0.828-8.39,1.119-12.967,0  c-3.895-0.957-12.042-0.973-15.953,0c-6.313,1.607-11.734-1.443-17.446,0c-5.437,1.379-18.355,3.846-23.938,2.5  c-6.102-1.477-10.971,1.395-16.44,0c-1.867-0.488-4.853-0.682-6.979-1.51c-0.941-0.342-2.304-2.24-3.002-2.482  c-1.169-0.373-9.153,2.66-10.468,3.002c-2.321-0.18-4.658-0.342-6.979-0.52c-5.859,0-15.662-0.324-20.936,1.006  c-1.996,0-3.992,0-5.989,0c-6.15,0-14.184-0.828-19.442,0.504c-3.911,0.973-21.682,0.309-24.928-0.504c-1.997,0-3.993,0-5.989,0  c-5.842,0-12.334,0.391-17.446,0.504c-3.489-0.342-6.979-0.666-10.468-0.99c-0.47,0.129-1.136,1.281-1.493,1.492  c-1.656,0.488-3.327,0.99-4.982,1.494c-3.359,0.893-7.904-0.52-10.468-1.006c-1.363-0.244-4.398,0.777-5.486,1.006  c-3.327-0.504-6.654-1.006-9.98-1.494c-1.429-0.422-3.814-0.811-5.486-1.492c-1.331-0.584-3.586-2.791-4.982-3.002  c-0.389-0.049-2.337,0.502-3.489,0.502c-5.323,0-10.63,0-15.953,0c-2.986,0-5.989,0-8.975,0c-0.682,0.195-2.304,1.299-2.986,1.494  c-6.443,1.996-28.077,3.457-35.899,1.492c-4.155,0-8.31,0-12.464,0l-0.99-1.006c-0.909-0.195-1.363,0.486-1.509,0.52  c-3.083,0.648-13.892,1.947-17.447,0.99c-4.3-1.17-9.786-2.938-13.957-3.992c-2.126-0.537-4.56,0.633-5.988,0.99  c-2.483,0-4.982,0-7.465,0c-10.419,0-23.24-2.014-32.41,0.502c-6.654-0.324-13.292-0.666-19.946-0.99  c-0.438-0.098-1.818-0.811-2.986-0.502c-0.747,0.211-2.662,1.266-3.489,1.492c-3.262,0.893-6.897-1.021-9.478-0.502  c-8.163,1.67-19.053-1.17-25.918-2.484c-1.525-0.309-1.769,0.779-2.499,0.99c-1.477,0.422-2.451-0.309-3.489-0.486  c-0.406-0.715-0.893-1.461-1.493-1.996c0.097-3.182,1.266-5.939,1.996-8.975c-0.179-15.938-0.341-31.908-0.503-47.877  c0-9.152,1.525-19.848-0.503-28.4c-0.682-2.857,0-7.904,0.503-9.982c0.682-2.855,0-7.887-0.503-9.963  c-0.99-4.172,0.357-9.918-0.503-13.455c-0.163-8.828-0.325-17.625-0.487-26.438c0.698-2.986,1.379-12.723,0.487-16.439  c-1.98-8.439-1.948-31.566,0-39.893c0.227-0.875-0.455-1.379-0.487-1.492c-0.52-2.727,0.032-7.043,0.487-8.975  c-0.163-3.166-0.325-6.314-0.487-9.479c-0.179-4.658-0.341-9.299-0.503-13.957c0.162-0.584,1.347-2.029,1.493-2.5  c1.104-3.455-1.201-8.877-0.503-11.961c0-5.484,0-10.971,0-16.455c0-10.971-0.795-20.611-0.487-30.9  c0.146-4.707-0.39-10.582,0.487-14.461c0.714-3.133-0.779-7.125,0-10.467c1.509-6.297-3.505-13.504-0.487-17.463  c0.909-2.662,3.067-1.834,3.489-4.982c-0.406-0.504-0.017-1.834-0.503-2.484c-0.666-0.162-1.331-0.34-1.997-0.502  c-0.065-0.064-1.477-2.938-1.493-3.002c0-9.641,0-19.266,0-28.904c-1.12-4.674-1.136-14.283,0-18.939c0-10.484,0-20.953,0-31.42  c-0.552-2.24-1.948-6.914-0.99-9.965c2.11-6.865,0.99-15.596,0.99-23.938c0-4.496,0-8.977,0-13.455  c-0.795-3.326-1.688-8.504-0.99-12.967c1.022-6.605,0.487-15.824,0.487-21.941c0-3.264,1.428-8.066,0.503-11.961  c-1.753-7.305-2.792-19.184-0.99-26.422c0.682-2.742-0.016-6.832,0.487-8.975c0.86-3.539,0.179-10.191-0.487-12.967  c0-2.158,0-4.318,0-6.477c0-5.729,0.26-12.545-0.503-17.445c-0.795-5.113,0.032-11.49,0.99-15.467  c-0.162-5.648-0.325-11.295-0.487-16.943c0.162-5.826,0.325-11.637,0.487-17.447c0.114-0.746,0.795-1.639,0.503-3.002  c-0.828-3.83-1.347-9.592-1.997-12.967c-0.244-1.25,0.649-11.035,1.006-12.465c0-2.141,0-4.309,0-6.475  c1.022-4.285,0.99-10.314,0.99-15.953c0-3.157,0-6.313,0-9.471l-0.99-0.998c0.162-8.471,0.325-16.951,0.487-25.423  c0.195-1.144,0.958-3.61,0.503-5.485c-1.38-5.834-0.99-13.381-0.99-20.44c0-2.662,0-5.323,0-7.977  c-0.812-3.392,1.039-8.058,0-12.464c-1.85-7.627-0.503-17.455-0.503-27.419c0-4.941,0.064-9.656,0.99-13.462c0-1.996,0-3.992,0-5.98  c0.357-1.485,1.039-5.226,0.503-7.481c-0.698-2.889-1.867-10.857-0.99-14.46c0.422-1.842,1.104-6.362,0.487-8.975  c-0.617-2.573-0.958-7.108-0.99-9.973c0.324-3.651,0.665-7.311,0.99-10.963c-0.714-3.075-0.73-7.847-1.493-10.971  c0-2.662,0-5.323,0-7.977c-4.025-16.74-1.996-39.672-1.996-59.326c0-43.543,0-87.086,0-130.629c2.775-0.633,3.505-2.621,3.489-5.98  c-4.512-4.552,0.73-10.216,0-15.953c-0.341-2.824-2.24-5.932-2.986-8.975c0-3.489,0-6.979,0-10.468  c-0.925-3.992-0.503-10.151-0.503-14.955c0-9.641,0-19.28,0-28.921c0-30.413,0-60.827,0-91.24c1.331-0.163,2.662-0.325,3.993-0.495  c0-0.162,0-0.333,0-0.495c-0.633-0.438-0.568-0.39-0.99-0.998c-1.006,0-1.996,0-3.002,0c0-54.514,0-109.036,0-163.534  c3.733,0.033,6.946-0.341,9.478-0.99c4.154,0,8.309,0,12.464,0c4.901-1.233,11.961-1.712,16.943-2.994  c5.988,0.17,11.977,0.333,17.949,0.495c11.328-2.759,26.729-1.493,40.882-1.493c22.753,0,46.886-0.649,68.812,0.503  c9.51,0.495,21.65,0.414,29.407-1.501c4.853-1.193,11.198,0.414,15.467,0.503c6.346,0.113,14.46-0.836,19.929,0.495  c5.599,1.379,11.247-0.909,15.954-0.999c7.481,0,14.963,0,22.445,0c2.824,0.17,5.648,0.333,8.472,0.503  c7.806-1.964,22.218-2.15,30.917,0c7.644,0.162,15.288,0.333,22.932,0.495c6.103,1.46,16.781,1.363,22.429,0  c1.672,0.162,3.327,0.332,4.982,0.503c8.131-1.396,18.939-0.503,27.931-0.503c5.973,0,11.961,0,17.95,0  c1.899,0.567,4.138,2.394,5.972,2.994c1.672,0,3.327,0,4.982,0c7.53,0,12.123-1.112,17.463-2.491c2.645,0,5.307,0,7.968,0  c4.008-0.982,10.549-0.998,14.46-1.996c9.51-2.427,20.092,1.047,28.417,1.493c6.979,0,13.957,0,20.936,0  c2.758,0.665,8.033,1.825,11.475,0.998c7.66-1.842,23.482-0.682,30.412,0.998c2.58,0.616,5.275-0.568,6.979-0.998  c1.834,0,3.652,0,5.486,0c3.115-0.763,7.936-1.348,11.457-0.495c1.363,0.324,2.906-0.568,3.49-0.503  c3.213,0.365,7.303,1.095,10.971,0.998c1.834-0.171,3.668-0.333,5.484-0.495c2.613,0.608,7.271-0.284,10.469,0.495  c5.064,1.225,17.494,1.444,23.436,0c3.326,0.17,6.654,0.333,9.98,0.495c3.23-0.779,8.617,0.438,12.465-0.495  c7.707-1.858,20.561-0.495,29.406-0.495c13.406,0,27.834-2.962,39.891,0c4.221,1.022,8.65-0.771,10.955-1.501  c1.201-0.381,14.525,0.649,15.953,0.999c12.969-0.163,25.951-0.333,38.902-0.495c10.809,0.365,26.258,3.254,37.393,0.495  c7.303,0,14.621,0,21.926,0c0.859-0.228,3.002-1.25,3.992-1.493c3.992,0,7.984,0,11.961,0c9.477,0.162,18.955,0.333,28.416,0.495  c0.699,0.251,1.494,1.793,1.996,1.997c0.568,0.203,10.16-1.477,12.465-1.493c8.146,0,16.295,0,24.441,0  c2.613,0.625,8.73,0.779,11.961,0c5.225-1.282,11.475-1.501,17.949-1.501c3.148,0,6.312,0,9.461,0  c8.668-2.078,22.057-0.349,29.424,1.501c4.139,1.03,8.131-0.82,10.469-1.501c4.121-1.176,15.449,1.152,17.445,2.5  c1.477,0.99,1.51,2.369,2.5,3.984c0.52,0.868,2.094,1.412,2.482,2.491c0,3.156,0,6.313,0,9.478c1.088,4.269,6.605,17.795,5,22.932  l-1.008,0.998c0,2.329,0,4.65,0,6.979c-1.914,6.581-4.867,12.343-2.482,20.936c0,1.168,0,2.329,0,3.498  c1.266,4.22,5.404,9.534,3.49,16.943c-0.65,2.467-2.354,3.992-3.004,5.988c-1.314,4.073,0.098,7.871-0.99,12.464  c-0.826,3.489-2.092,16.984-1.006,21.439c4.334,17.511,7.271,40.995,1.996,59.326c-1.461,5.137,1.039,12.545,0.504,16.952  c-0.438,3.619-1.801,6.995-2.5,9.973c-0.551,2.442,1.039,5.185,1.51,6.979c0,2.491,0,4.982,0,7.473  c0.049,1.834,0.666,3.213,0.99,4.496c0,5.315,0,10.63,0,15.953c0.715,2.986,0.795,7.677,1.492,10.468c0,1.826,0,3.652,0,5.486  c0.357,1.428,1.088,5.283,0.504,7.473c-0.178,0.714-1.33,2.459-1.492,2.995c-0.846,2.775,1.41,10.598,1.996,12.959  c-0.18,3.822-0.342,7.644-0.504,11.466c0.633,2.678,1.461,9.559,0.504,12.967c-0.812,2.84-3.814,15.604-3.004,18.939  c2.256,9.259,3.166,20.692,5.486,29.918c1.184,4.65-1.996,7.612-0.99,11.466c0.568,2.158,1.963,4.82,2.482,6.979  c-0.324,2.994-0.664,5.988-0.99,8.975c-0.826,0.503-1.654,0.998-2.498,1.493c0,1.501,0,2.994,0,4.495  c-0.73,1.039-0.666,4.139-0.486,5.98c0.34,4.033,0.486,9.632,0.486,14.452c-0.162,4.991-0.324,9.973-0.486,14.963  c2.92,8.958,3.195,22.867,2.984,34.893c-0.031,2.028-0.648,2.808-0.988,3.992c-0.73,2.459-0.066,6.564-0.504,8.472  c-0.617,2.662,1.023,3.197,1.492,4.495c0,1.656,0,3.319,0,4.982c0.018,11.068,0,19.28,0,29.911c0,8.812,0,17.617,0,26.421  c1.057,3.781,1.656,8.78,1.494,12.967c-0.064,1.68-1.104,4.617-0.504,6.979c1.834,6.963,0.828,27.241-0.99,34.406  c0.326,16.278,0.666,32.572,0.99,48.858c-2.369,9.851-1.979,24.157-1.979,36.889c0.162,5.315,0.324,10.639,0.486,15.953  c0.568,1.453,2.012,4.325,2.5,5.98c0.875,3.027,0.096,12.602-0.504,14.963c-1.023,4.106-0.26,13.439,0.504,16.449  c0,3.156,0,6.32,0,9.479c1.947,7.992,4.674,25.309,2.984,31.914c0,4.641,0,9.299,0,13.957c-0.275,1.428-0.016,8.115,0,12.465  c0.164,2.32,0.342,4.641,0.504,6.979c-0.275,0.957-1.736,2.305-1.996,2.986c0.162,1.816,0.324,3.65,0.504,5.484  c-0.633,2.662-0.504,7.012-0.504,10.469c0,8.098-0.211,11.992,1.996,19.945c-0.34,3.311-0.666,6.654-1.006,9.965  c1.314,5.646,1.217,16.812,0,22.428c0.502,3.166,1.006,6.33,1.51,9.479c-0.65,3.246-0.682,8.229-1.51,11.475  c-1.379,5.502,0.568,12.998-0.486,17.949c0.162,0.99,0.324,1.996,0.486,2.986c-0.162,5.988-0.324,11.961-0.486,17.949  c-0.877,3.393-1.479,8.131-1.494,12.463c0,3.004,0,5.99,0,8.977c-2.076,8.666-1.021,19.117,0.99,26.924  c0.648,2.516-0.486,6.232-0.504,7.969c-0.064,3.959,1.721,9.77,2.5,13.469c0.504,2.338-2.807,8.506-1.492,13.455  c0.859,3.277,0.988,8.309,0.988,12.967c0,1.996,0,3.992,0,5.973c0.748,2.418,1.008,3.766,1.008,7.498  c0,5.371-0.26,12.074,0.988,15.938c1.105,3.408-0.355,11.977-0.988,14.477c-0.73,2.889,0.795,17.201,1.492,19.928  c0,4.156,0,8.311,0,12.465c2.613,10.842,1.525,27.979,0.486,39.389c-0.355,4.072,0.277,8.131,1.008,10.971  c1.248,4.836-1.592,9.785-1.008,13.453c0.504,3.02,0.293,7.953,0,10.971c-0.486,5.52,0.602,12.238-0.486,16.943  c0.486,3.004,0.99,5.99,1.494,8.992c-2.516,12.367-6.428,25.398-6.477,39.371c7.012,3.539,6.102,26.291,8.473,35.412  c0.162,3.652,0.324,7.305,0.502,10.971c-0.908,3.637,1.525,8.83,0.486,12.951c-1.605,6.395-1.07,19.248,0.504,24.93  c1.137,4.072-0.551,18.891-1.492,21.941c-0.131,0.453-1.445,2.158-1.494,2.498c-0.211,1.332,1.039,4.771,0.486,6.979  c-0.746,2.938-0.941,4.594-0.988,7.969c0,1.834,0,3.652,0,5.486c-0.877,3.197-1.689,8.342-2.5,11.961  c-0.697,3.133,1.654,8.115,0.502,11.977c-0.227,0.746-1.217,2.629-1.492,3.473c0,0.682,0,1.332,0,2.014  c-0.309,0.713-1.736,1.865-1.996,2.482c0,1.996,0,3.992,0,5.988c-1.85,5.973-6.523,11.344-8.975,16.943  c-1.119,2.564-2.109,7.352-4.479,8.473c-1.17,0-2.338,0-3.49,0c-0.309-0.293-1.541-1.574-1.996-1.494  c-0.715,0.131-2.451,1.736-3.49,1.996c-3.326-0.162-6.652-0.34-9.98-0.502c-1.25,0.324-3.277,1.688-5.484,1.006  c-0.455-0.162-1.9-1.332-2.484-1.494c-2.66,0-5.322,0-7.984,0c-6.377-1.59-16.959,0.52-25.432,0.488  C971.37,1542.473,962.136,1540.492,950.142,1540.492z"/>
    <path id="shape_776c3a89-b6c0-4edc-9157-f495187555f2" opacity="1" fill="#7F7459" d="M629.567,220.294c4.268,0.844,13.469,0,19.441,0c13.957,0,27.914,0,41.889,0c49.174,0,98.381,0,147.572,0  c15.773,0,31.564,0,47.355,0c8.033,0,17.771-0.869,24.93,0.495c0.275,0.804,0.422,1.201,0.502,2.491c-0.162,0-0.34,0-0.502,0  c0,0.171,0,0.341,0,0.503c-5.178,0.536-11.166,0-17.447,0c-12.627,0-25.27,0-37.895,0c-37.717,0-75.467,0-113.166,0  c-106.709,0-216.305,0.495-325.072,0.495c-67.968,0-135.936,0-203.904,0c-18.112,0-36.24,0-54.352,0  c-4.966,1.25-12.594,0.503-18.437,0.503c-6.476,0-14.201,1.176-20.449,0c0-0.835,0-1.664,0-2.491  c1.801-0.633,4.934-0.536,7.481-0.503c3.1-2.158,18.842,0.698,23.922-0.495c7.53-1.777,18.469-0.503,26.924-0.503  c17.95,0,35.899,0,53.849,0c96.71,0,193.452,0,290.162,0c26.259,0,52.517,0,78.777,0c6.816,0,13.633,0,20.432,0  C623.935,220.789,628.091,221.325,629.567,220.294z"/>
    <path id="shape_02c060dc-ae11-417e-9ef8-2f3ea2c9d81f" opacity="1" fill="#7F7459" d="M374.801,231.266c110.212,0,221.626,0.495,331.044,0.495c50.861-0.17,101.707-0.333,152.555-0.495  c5.176,1.225,12.934,0.495,18.955,0.495c11.068,0,22.559,0.462,32.896,0.495c0.324,0.868,0.455,1.566,0.504,2.994  c-0.326,0-0.666,0-0.99,0c-1.852,1.282-11.734,0.495-14.965,0.495c-12.203-0.016-25.934-0.495-38.885-0.495  c-47.973,0-98.186,0-147.572,0c-134.945,0-270.654,0-405.827,0c-43.38,0.333-86.761,0.666-130.125,0.999  c-12.967,0-25.935,0-38.885,0c-5.339,0.479-13.632,0.998-18.956,0c-0.292-0.796-0.406-1.201-0.503-2.491c0.179,0,0.341,0,0.503,0  c0-0.171,0-0.333,0-0.503c13.843-1.444,30.17-0.495,44.874-0.495c5.81,0,11.636,0,17.446,0c3.976-0.949,10.144-0.503,14.963-0.503  c9.64,0,19.28,0,28.92,0c27.915-0.163,55.829-0.325,83.759-0.495c17.105,0,34.227,0,51.349,0  C359.643,231.76,372.675,232.742,374.801,231.266z"/>
    <path id="shape_9e429a9e-6a83-4c1e-8829-6261b71d768a" opacity="1" fill="#7F7459" d="M777.642,242.228c43.867,0.17,87.752,0.333,131.619,0.503c0.568,1.03,0.746,0.893,0.99,2.491  c-4.756,2.442-19.459,0.998-26.422,0.998c-21.098,0-42.211,0-63.309,0c-76.262,0-152.588,0-228.85,0  c-1.152,0.779-6.166,0.495-9.461,0.495c-7.984,0-15.953,0-23.938,0c-30.414,0-60.844,0-91.241,0c-45.864,0-91.744,0-137.591,0  c-12.805,0-25.609,0-38.398,0c-7.335,0-15.937-0.349-22.429,0.503c-2.288,0.292-4.512-0.438-6.979,0c-8.65,0-17.284,0-25.934,0  c-27.752,0.162-55.504,0.324-83.256,0.495c-12.562,0-26.47,2.248-38.398,0c-0.276-0.763-0.341-0.828-0.487-1.996  c2.418-1.291,7.076-1.047,10.971-0.999c1.85-1.314,7.611-0.495,10.468-0.495c9.299,0,18.615,0,27.914,0  c32.345-0.568,65.388-0.998,98.722-0.998c125.111-0.163,250.287-0.333,375.414-0.495c34.391,0,68.797,0,103.201,0  c8.977,0,17.951,0,26.926,0C770.03,242.731,775.776,243.543,777.642,242.228z"/>
    <path id="shape_a1d3db94-e327-485b-94f2-261f54d92e0d" opacity="1" fill="#7F7459" d="M437.121,253.694c106.513,0,213.058,0,319.585,0c34.064,0,68.131,0,102.195,0c10.971,0,21.941,0,32.914,0  c5.842,0,12.9-0.446,17.949,0.503c0.275,0.795,0.404,1.177,0.486,2.491c-2.953,1.014-8.164,0.495-11.961,0.495  c-8.146,0-16.277,0-24.426,0c-27.264,0-54.514,0-81.762,0c-91.566,0-183.164,0-274.712,0c-1.639,1.136-20.335,0.503-28.92,0.503  c-25.918,0-51.853,0-77.771,0c-97.213,0.162-194.458,0.333-291.655,0.495c-0.568-1.047-0.746-0.893-1.006-2.491  c0.503-0.162,1.006-0.333,1.493-0.495c2.061-1.437,14.298-0.503,17.949-0.503c16.132,0,32.248,0,48.363,0  c61.151-0.163,122.319-0.333,183.471-0.495c16.457,0,32.913,0,49.354,0C422.385,254.197,435.043,255.155,437.121,253.694z"/>
    <path id="shape_5a1f9316-1153-48dd-95c2-9b396500da82" opacity="1" fill="#7F7459" d="M437.624,264.665c2.71,0.876,4.366,0,8.472,0c8.975,0,17.949,0,26.924,0c27.589,0,55.178,0,82.752,0  c80.107,0,160.23,0,240.307,0c25.592,0,51.203,0,76.779,0c11.75,0,28.385-1.493,38.885,0.503c0.309,0.795,0.422,1.193,0.504,2.491  c-0.504,0.162-0.99,0.333-1.492,0.495c-1.867,1.298-11.719,0.503-14.965,0.503c-13.453,0-26.908,0-40.377,0  c-51.188,0-102.391,0-153.561,0c-166.172,0-332.391,0-498.562,0c-8.163,2.004-22.039,0.495-31.403,0.495  c-18.112,0.17-36.224,0.333-54.336,0.495c-0.616-1.128-0.86-1.112-1.006-2.986c2.418-0.852,6.751-0.535,9.965-0.503  c1.898-1.314,12.155-0.495,15.466-0.495c14.282,0,28.58,0,42.877,0c5.599-1.331,13.957-0.495,20.433-0.495  c13.129,0,26.259,0,39.388,0c42.05,0,84.1,0,126.133,0c16.294,0,32.572,0,48.866,0C423.326,265.168,435.563,266.093,437.624,264.665  z"/>
    <path id="shape_0016577f-daea-4187-9428-e325a8d10b08" opacity="1" fill="#7F7459" d="M119.044,347.426c263.871-0.113,529.933,0,795.199,0c0.422,0.617,0.389,0.568,1.006,0.998  c-0.324,0.925-0.049,0.446-0.502,0.998c-0.586,1.258,0.242,0.382-1.008,0.998c-1.785,1.274-11.75,0.495-14.945,0.495  c-13.471,0-26.926,0-40.395,0c-51.512,0-103.023,0-154.551,0c-196.683,0-390.995,0.032-584.804,0  C118.055,349.122,118.087,349.219,119.044,347.426z"/>
    <path id="shape_c0824365-811f-449f-a0fd-f3fbcf378015" opacity="1" fill="#7F7459" d="M744.243,357.894c2.531,0.755,8.828,0,12.949,0c10.145,0,20.287,0,30.414,0  c27.59,0.171,55.18,0.333,82.77,0.503c9.641,0,19.279,0,28.904,0c5.404,0,11.879-0.365,16.455,0.495  c0.293,0.763,0.357,0.828,0.504,1.996c-4.885,2.508-20.27,0.998-27.428,0.998c-21.926,0-43.867,0-65.809,0  c-79.41,0-158.885,0-238.311,0c-2.027,1.493-23.889,0.495-30.9,0.495c-28.758,0-57.516,0-86.257,0c-78.095,0-156.223,0-234.317,0  c-25.107,0-50.213,0-75.288,0c-11.798,0-27.151,1.477-37.895-0.495c-0.292-0.803-0.406-1.201-0.503-2.491c0.178,0,0.341,0,0.503,0  c0-0.17,0-0.333,0-0.503c16.749-1.777,36.207-0.495,53.849-0.495c33.399,0,66.815,0,100.215,0c101.514,0,203.092,0,304.621,0  c40.525,0,81.098,0,121.639,0c10.646,0,21.277,0,31.906,0C735.431,358.396,742.149,359.362,744.243,357.894z"/>
    <path id="shape_90fc0b56-ddbb-42c7-b323-01b402dc306d" opacity="1" fill="#7F7459" d="M535.843,368.865c7.125,0.187,14.785-0.543,20.434,0.495c1.006,0.187,1.752-0.43,1.996-0.495  c1.996,0.17,3.992,0.333,5.988,0.495c0.682-0.13,2.516-0.779,3.977-0.495c3.391,0.649,11.83,0.698,15.953,0  c2.467-0.414,5.566,0.349,6.994,0.495c0.553,0.049,1.266-0.697,2.482-0.495c3.166,0.527,6.428,0.349,8.975,0  c0.779-0.122,1.461,0.495,1.494,0.495c2.029,0.301,4.82-0.446,6.979-0.495c1.07-0.016,2.061,0.543,2.5,0.495  c4.998-0.56,8.357,0,11.961-0.495c0.729-0.097,1.639,0.617,2.498,0.495c6.314-0.893,12.74-0.414,17.949,0  c2.207,0.187,3.539-0.893,5.973-0.495c6.85,1.128,15.174-0.333,23.436,0.495c0.52,0.049,0.99-0.479,1.996-0.495  c3.846-0.016,14.039-0.219,15.449,0.495c6.135-0.495,10.744,0.316,15.955,0c4.463-0.26,8.844-0.527,13.469,0  c1.623,0.203,3.117-0.462,4.48-0.495c5.695-0.122,10.986-0.082,16.455,0.495c1.818,0.203,4.869-0.414,6.477-0.495  c6.281-0.317,10.191,0.543,15.969,0.495c5.08-0.032,10.191-0.795,14.947,0c44.355,0.171,88.742,0.333,133.111,0.503  c0.568,1.031,0.748,0.893,1.008,2.491c-4.48,2.312-14.672,0.998-20.936,0.998c-16.295,0-32.572,0-48.867,0  c-2.434-1.696-10.402-0.503-13.957-0.503c-12.301,0-24.604,0-36.889,0c-46.707,0-93.416,0-140.107,0  c-120.533,0-240.305,0.998-359.963,0.998c-37.213-0.162-74.443-0.332-111.673-0.495c-12.448,0-25.724-0.471-37.393-0.503  c-8.195-0.016-18.111,0.885-25.431-0.495c-0.276-0.763-0.341-0.828-0.487-1.997c3.246-1.695,10.095-0.998,14.947-0.998  c11.312,0,22.607,0,33.903,0c2.223,1.566,16.44,0.503,20.449,0.503c18.437,0.163,36.889,0.333,55.342,0.495  c69.461-0.332,138.922-0.665,208.399-0.998c20.432,0,40.881,0,61.313,0c5.323,0,10.646,0,15.953,0  C531.413,369.359,534.593,369.733,535.843,368.865z"/>
    <path id="shape_c1b34fbe-ad45-468d-8118-4599fa904981" opacity="1" fill="#7F7459" d="M909.261,378.837c0.99,0,1.996,0,2.986,0c1.348,1.761,2.727,1.379,3.002,4.488  c-1.266,0.682-1.752,0.965-3.992,0.998c-0.52,0.341-10.711-0.503-13.957-0.503c-13.129,0-26.258,0-39.389,0  c-50.197,0-100.393,0-150.574,0c-127.334,0.3-265.364,0.503-396.853,0.503c-42.585,0-81.617,0-123.634,0  c-14.639,0-29.261,0-43.884,0c-7.562,0-16.732,0.763-23.435-0.503c-0.309-0.925-0.033-0.446-0.487-0.998c0-0.333,0-0.666,0-0.998  c2.678-1.379,7.807-0.99,11.961-0.99c8.31,0,16.619,0,24.928,0c30.073,0,60.178,0,90.234,0c108.508,0,217.066,0,325.558,0  c1.607-0.982,13.666-0.503,19.945-0.503c16.619,0,33.238,0,49.857,0c62.66,0,125.32,0,187.967,0c19.604,0,39.209,0,58.83,0  C894.185,380.331,906.015,381.889,909.261,378.837z"/>
    <path id="shape_ad1edaf3-8a56-4c23-9a95-44eef54dbf5f" opacity="1" fill="#7F7459" d="M911.257,388.802c0.99,0,1.996,0,2.986,0c1.088,1.688,1.883,1.583,1.996,4.496  c-2.629,1.606-2.5,3.473-6.979,3.489c-2.549-2.775-8.666-1.996-13.957-1.996c-12.139,0-24.262,0-36.402,0  c-49.354,0-98.705,0-148.074,0c-169.986,0.333-340.035,0.665-510.02,0.998c-7.92-1.932-19.523-0.503-28.417-0.503  c-18.307,0-36.71-0.479-54.352-0.495c-0.292-0.795-0.406-1.201-0.487-2.491c2.467-1.282,7.044-0.998,10.955-0.998  c7.644,0,15.288,0,22.932,0c2.045,1.412,8.423,0.495,11.474,0.495c10.306,0,20.611,0,30.917,0c37.847,0,74.524,0,113.167,0  c144.408-0.163,288.848-0.333,433.254-0.495c42.051-0.171,84.102-0.333,126.135-0.503c10.629,0,21.275,0,31.906,0  C903.419,390.798,908.806,391.48,911.257,388.802z"/>
    <path id="shape_6fdfc025-2aed-45e5-b229-650f1c661d62" opacity="1" fill="#7F7459" d="M908.757,466.086c2.209-0.033,7.354,1.696,7.986,2.986c0.162,0,0.324,0,0.486,0  c-0.309,0.933-0.033,0.455-0.486,0.999c-0.391,0.738-6.492,3.262-7.482,2.994c-0.877-0.235-2.711-1.647-3.992-1.996  c-10.971,0-21.941,0-32.896,0c-44.711-0.163-89.424-0.333-134.119-0.495c-151.045,0.495-302.138,0.998-453.2,1.493  c-39.713-0.171-79.426-0.333-119.155-0.495c-10.306,0-20.595,0-30.9,0c-3.749,0-9.819,0.763-11.977-0.998  c-0.438-0.601-0.39-0.836-0.487-1.996c4.723-2.459,19.979-1.047,26.924-0.998c2.029,1.412,8.407,0.503,11.458,0.503  c10.306,0,20.611,0,30.917,0c38.609,0,74.46,0,113.167,0c145.219,0,288.035-0.998,432.752-0.998  c42.779,0,86.646,0.495,128.633,0.495c10.467,0,20.936,0,31.402,0C901.665,467.579,907.103,468.406,908.757,466.086z"/>
    <path id="shape_809e091f-2e9e-4459-815d-472bb02a2c10" opacity="1" fill="#7F7459" d="M745.231,478.047c4.496,0.438,12.807,0,18.939,0c14.137,0,28.256,0,42.391,0  c35.559,0.17,71.117,0.333,106.691,0.503c0.553,1.03,0.746,0.893,0.99,2.491c-4.771,2.442-19.459,0.998-26.422,0.998  c-21.275,0-42.553,0-63.812,0c-76.455,0-152.912,0-229.334,0c-1.656,1.128-6.443,0.495-8.977,0.495c-7.822,0-15.627,0-23.434,0  c-29.424,0-58.832,0-88.255,0c-80.27,0-160.555,0-240.792,0c-25.772,0-51.544,0-77.284,0c-11.75,0-28.369,1.485-38.885-0.495  c-0.324-0.933-0.032-0.454-0.503-0.998c0-0.333,0-0.666,0-0.998c1.136-0.617,1.12-0.844,2.986-0.998c1.168-0.763,6.069,0,9.98,0  c8.634,0,17.284,0,25.918,0c33.237,0,66.475,0,99.712,0c116.818-0.163,233.685-0.333,350.485-0.495c34.082,0,68.164,0,102.213,0  c8.975,0,17.949,0,26.924,0C737.62,478.55,743.351,479.345,745.231,478.047z"/>
    <path id="shape_dd531230-30fc-4d6b-b0fd-6a351d423e7a" opacity="1" fill="#7F7459" d="M714.315,489.521c66.654,0.162,133.307,0.325,199.928,0.495c0.553,1.03,0.746,0.901,1.006,2.491  c-0.502,0.162-1.006,0.333-1.51,0.503c-1.85,1.307-12.154,0.495-15.449,0.495c-13.633,0-27.248,0-40.881,0  c-52.016,0-104.047,0-156.045,0c-194.312,0-387.877,0-583.813,0c-0.568-1.03-0.763-0.9-1.006-2.491  c2.873-1.477,8.569-0.998,12.967-0.998c9.137,0,18.274,0,27.411,0c33.416,0,66.832,0,100.216,0c1.46,1.03,5.615,0.495,7.984,0.495  c6.638,0,13.292,0,19.93,0c25.269,0,50.538,0,75.791,0c86.42-0.162,172.841-0.333,259.245-0.495c22.932,0,45.881,0,68.812,0  c5.971,0,11.961,0,17.949,0C709.106,490.016,712.919,490.494,714.315,489.521z"/>
    <path id="shape_3b72e66b-c837-40c5-b770-bfb8bd2315aa" opacity="1" fill="#7F7459" d="M796.581,500.483c5.859,0.868,18.908,0,27.914,0c19.281,0,38.561,0,57.842,0c7.141,0,14.297,0,21.438,0  c3.182,0,7.223-0.446,8.977,0.998c0.453,0.601,0.422,0.812,0.502,1.996c-4.512,2.305-17.836,0.998-24.441,0.998  c-19.768,0-39.551,0-59.316,0c-71.295,0-142.607,0-213.885,0c-1.121,0.674-5.26,0.114-7.482,0  c-5.697-0.268-18.973,0.495-28.418,0.495c-31.225,0-62.482,0-93.723,0c-83.272,0-166.544,0-249.784,0c-26.6,0-53.183,0-79.766,0  c-8.488,0-16.96,0-25.432,0c-4.917,0-10.825,0.284-14.963-0.495c-0.276-0.803-0.406-1.185-0.487-2.491  c0.487-0.17,0.99-0.341,1.493-0.503c1.85-1.314,7.611-0.503,10.468-0.503c8.975,0,17.95,0,26.924,0c34.568,0,69.136,0,103.705,0  c131.424,0,262.913,0,394.354,0c35.232,0,70.467,0,105.701,0c9.299,0,18.613,0,27.914,0  C788.97,500.979,794.716,501.798,796.581,500.483z"/>
    <path id="shape_ae76fe1b-2005-42b1-8b70-4aa9a170cb6f" opacity="1" fill="#7F7459" d="M660.97,511.454c83.76,0,167.535,0,251.277,0c0.617,1.128,0.844,1.112,1.006,2.995  c-1.801,0.641-4.934,0.527-7.48,0.495c-1.574,0.763-13.146,0-16.961,0c-14.621,0-29.244,0-43.867,0  c-51.188,0.162-102.391,0.333-153.561,0.495c-129.607,0-259.262,0-388.868,0c-41.222,0.171-82.428,0.333-123.65,0.503  c-13.633,0-27.249,0-40.882,0c-7.092,0-15.693,0.682-21.941-0.503c-0.276-0.795-0.406-1.192-0.487-2.491  c0.487-0.162,0.99-0.333,1.493-0.495c1.558-1.087,6.005-0.503,8.472-0.503c7.319,0,14.623,0,21.942,0c27.59,0,55.163,0,82.753,0  c105.198,0,210.412,0,315.593,0c28.076,0,56.17,0,84.262,0c7.467,0,14.947,0,22.43,0C654.966,511.949,659.429,512.55,660.97,511.454  z"/>
    <path id="shape_f82ead10-a08e-4fe2-9d1e-5a61662a76a9" opacity="1" fill="#7F7459" d="M123.021,582.749c264.438,0,530.095,0.365,793.722,0.495c0.551,1.031,0.746,0.901,0.99,2.491  c-4.367,2.264-17.025,0.998-23.436,0.998c-18.615,0-37.215,0-55.828,0c-2.322-1.639-10.047-0.495-13.471-0.495  c-11.961,0-23.922,0-35.898,0c-46.027,0-92.068,0-138.096,0c-119.965,0-239.98,0-359.963,0c-27.427,0-54.838,0-82.266,0  c-7.481,0-14.947,0-22.429,0c-3.424,0-7.465,0.576-8.472,0c-10.225,1.242-22.834,0.495-33.903,0.495  c-7.254,0-16.035,0.714-22.445-0.495c-0.292-0.803-0.406-1.201-0.487-2.491c0.163,0,0.325,0,0.487,0c0-0.17,0-0.333,0-0.503  C122.599,583.082,122.485,583.18,123.021,582.749z"/>
    <path id="shape_76c98423-574f-4bc9-b2c0-374cfa39279a" opacity="1" fill="#7F7459" d="M341.401,594.215c3.863,0.617,6.07,0,11.961,0c10.809,0,21.601,0,32.41,0c30.917,0,61.817,0,92.734,0  c96.222,0,192.462,0,288.669,0c36.889,0,73.777,0,110.682,0c9.463,0,18.939,0,28.418,0c3.701,0,9.283-0.682,11.459,0.998  c0.453,0.592,0.404,0.812,0.502,1.988c-4.074,2.094-13.162,0.998-18.955,0.998c-14.623,0-29.246,0-43.867,0  c-53.184,0-106.352,0-159.533,0c-191.278,0-382.588,0-573.849,0c-0.309-0.86-0.471-1.558-0.503-2.986c0.341,0,0.665,0,1.006,0  c2.175-1.534,9.202-0.503,12.464-0.503c11.133,0,22.266,0,33.399,0c42.05,0,84.1,0,126.133,0c11.296,0,22.607,0,33.903,0  C331.793,594.71,339.145,595.79,341.401,594.215z"/>
    <path id="shape_fde71f29-583c-4aab-b4db-28f4f40d0f7f" opacity="1" fill="#7F7459" d="M827.499,605.187c3.439,0.746,13.875,0,20.432,0c15.125,0,30.252,0,45.377,0  c7.871,0,17.43-0.82,24.426,0.495c0.291,0.795,0.422,1.193,0.502,2.491c-4.074,1.428-11.457,0.536-16.457,0.503  c-2.092,1.363-10.904,0.495-15.449,0.495c-13.291,0-26.6,0-39.891,0c-50.359,0-100.719,0-151.062,0c-127.447,0-254.944,0-382.392,0  c-60.649,0-121.313,0-181.979,0c-2.873,0.349-6.491,0.138-9.478,0c-0.471-0.884-0.649-0.811-0.99-1.996c0.162,0,0.325,0,0.503,0  c0.568-1.258-0.259-0.398,0.99-0.998c1.947-1.363,8.017-0.495,10.971-0.495c9.3,0,18.615,0,27.915,0c35.899,0,71.798,0,107.697,0  c136.423,0,272.894,0,409.318,0c36.564,0,73.111,0,109.676,0c9.641,0,19.281,0,28.92,0  C819.481,605.681,825.55,606.55,827.499,605.187z"/>
    <path id="shape_1c5881a4-f66c-49d0-966b-04c4bce023a2" opacity="1" fill="#7F7459" d="M914.243,614.161c2.402,0.462,5.275,1.623,5.486,4.479c-2.014,1.396-1.689,3.197-4.982,3.49  c-2.889-3.189-8.83-2.491-14.965-2.491c-12.123,0-24.262,0-36.385,0c-50.197,0-100.395,0-150.574,0  c-132.594,0.17-265.25,0.332-397.843,0.503c-43.543,0-87.086,0-130.629,0c-14.298,0.162-28.58,0.333-42.878,0.495  c-6.313,0-13.957,0.535-19.442-0.495c-0.276-0.771-0.357-0.836-0.503-1.996c4.301-2.264,14.363-1.047,20.449-0.998  c1.444-0.966,6.897-0.495,10.468-0.495c8.812,0,17.609,0,26.421,0c34.243,0,68.471,0,102.698,0  c10.825-1.964,33.335-0.503,48.363-0.503c32.572,0,65.144,0,97.716,0c101.854,0,203.774,0,305.627,0c45.021,0,90.072,0,135.109,0  c10.971,0,21.941,0,32.896,0C906.405,616.149,911.792,616.782,914.243,614.161z"/>
    <path id="shape_2c0d186d-9dc9-4bed-96ff-d2245fd9d58d" opacity="1" fill="#7F7459" d="M911.743,624.629c3.977,0.13,1.834,0.941,3.506,1.996c1.314,0,2.646,0,3.977,0  c0.553,0.228,1.021,1.128,1.492,1.493c-0.307,0.925-0.031,0.446-0.486,0.998c-1.314,1.525-2.385,0.065-4.496,0.998  c-0.566,0.243-1.248,1.777-1.996,1.988c-2.174,0.616-2.076-1.112-2.984-1.493c-1.998,0-3.994,0-5.99,0c-9.965,0-19.93,0-29.91,0  c-43.867,0.17-87.75,0.333-131.619,0.495c-154.371,0-308.792,0-463.165,0c-39.551,0-79.101,0-118.652,0c-10.143,0-20.27,0-30.414,0  c-3.635,0-9.38,0.714-11.474-0.99c-0.438-0.601-0.39-0.819-0.487-1.996c0.487-0.17,0.99-0.333,1.493-0.503  c2.094-1.461,8.812-0.495,11.961-0.495c9.981,0.162,19.946,0.333,29.911,0.495c39.063,0,78.111,0,117.175,0  c148.708,0,297.481,0,446.206,0c46.529-0.163,93.074-0.333,139.604-0.495c11.133-0.17,22.266-0.333,33.4-0.495  C903.612,626.625,909.796,627.599,911.743,624.629z"/>
    <path id="shape_e8f14a4a-6416-4c65-8361-841b7c2181a9" opacity="1" fill="#7F7459" d="M312.48,700.906c13.357,1.266,33.108,0,48.363,0c32.734,0,65.468,0,98.219,0c99.518,0,199.083,0,298.633,0  c35.234,0,70.467,0,105.701,0c11.295,0,22.59,0,33.902,0c5.988,0,13.26-0.487,18.436,0.503c0.326,0.925,0.033,0.446,0.504,0.99  c-0.324,0.933-0.033,0.454-0.504,0.998c-1.979,2.556-9.607,1.501-13.957,1.501c-11.457-0.17-22.932-0.341-34.404-0.503  c-49.014,0-98.041,0-147.07,0c-200.398,0.162-400.877,0.333-601.259,0.503c-0.617-1.136-0.86-1.12-1.006-2.994  c0.341,0,0.665,0,1.006,0c1.932-1.363,8.001-0.495,10.971-0.495c9.802,0,19.605,0,29.407,0c37.23,0,74.459,0,111.673,0  c9.981,0,19.945,0,29.91,0C304.074,701.409,310.452,702.318,312.48,700.906z"/>
    <path id="shape_6c1843ff-f0c6-4e5f-b1e1-b7d1ea85a968" opacity="1" fill="#7F7459" d="M118.542,711.374c179.284-0.081,359.932,0.503,539.946,0.503c57.986,0,115.99,0,173.994,0  c15.936,0,31.906,0,47.859,0c3.977-0.949,10.143-0.503,14.963-0.503c6.312,0,13.957-0.527,19.443,0.503  c0.291,0.795,0.404,1.177,0.502,2.491c-0.551,0.43-0.064-0.049-0.502,0.495c-9.82,1.03-21.781,0.503-32.41,0.503  c-18.939,0-37.895,0-56.836,0c-57.662,0-115.34,0-173.002,0c-177.889,0-356.88-0.422-533.958-0.503  C117.568,713.054,117.617,713.175,118.542,711.374z"/>
    <path id="shape_3f2175c2-e542-4fbf-93de-1a30c27c5a86" opacity="1" fill="#7F7459" d="M121.528,722.345c264.714,0,529.51,0,794.208,0c0.309,0.795,0.424,1.201,0.504,2.491  c-4.689,2.41-15.434,0.998-21.941,0.998c-17.285,0-34.568,0-51.854,0c-62.318,0-124.639,0-186.959,0  c-1.672,0.828-8.455,0.503-12.465,0.503c-9.461,0-18.939,0-28.418,0c-34.389,0-68.795,0-103.201,0c-88.06,0-176.168,0-264.228,0  c-28.093,0-56.169,0-84.262,0c-8.975,0-17.95,0-26.924,0c-5.08,0-11.166,0.309-15.45-0.503c-0.292-0.795-0.422-1.201-0.503-2.491  C120.667,723.026,121.089,722.808,121.528,722.345z"/>
    <path id="shape_8061f25e-cbbf-4741-93cc-83192fcfe15d" opacity="1" fill="#7F7459" d="M119.532,733.316c263.676-0.122,529.639,0,794.711,0c0.617,1.128,0.844,1.112,1.006,2.986  c-0.551,0.455-0.064-0.048-0.502,0.503c-8.424,0.495-21.146,0-33.4,0c-25.107,0-50.213,0-75.287,0c-75.125,0-150.25,0-225.359,0  c-5.906,0.016-8.211-0.284-11.961,0.495c-47.535,0-95.054,0-142.589,0c-77.917,0.171-155.882,0.333-233.814,0.495  c-7.06-1.704-17.462-0.495-25.431-0.495c-15.905,0-32.734-0.446-47.86-0.495C118.444,735.036,118.769,734.728,119.532,733.316z"/>
    <path id="shape_8f1bfcaf-a131-4002-bcd6-1b4f904ce3ba" opacity="1" fill="#7F7459" d="M599.657,743.28c105.197,0.171,210.41,0.333,315.592,0.503c0.666,1.623,0.65,1.209,0.486,2.986  c-8.389,1.566-19.621,0.503-28.92,0.503c-18.436,0-36.889,0-55.324,0c-57.68,0-115.342,0-173.004,0  c-179.95,0-361.019-0.033-538.956,0c-0.276-0.795-0.406-1.201-0.487-2.491c3.96-2.061,12.772-0.998,18.437-0.998  c14.136,0,28.255,0,42.391,0c51.333,0,102.698,0,154.048,0c1.12,0.844,7.498,0.495,10.971,0.495c10.127,0,20.271,0,30.414,0  c3.359-0.697,12.188-0.495,17.95-0.495c11.961,0,23.922,0,35.899,0c37.035,0,74.119,0,111.171,0c14.459,0,28.92,0,43.379,0  C586.966,743.784,597.87,744.595,599.657,743.28z"/>
    <path id="shape_064e1e16-442f-44f0-a8b9-c970b6fc8080" opacity="1" fill="#383737" d="M879.837,101.14c0.844,0.527,0.682,0.495,1.51,0C880.843,101.14,880.341,101.14,879.837,101.14z"/>
    <path opacity="1" id="shape_74079c2c-d5bf-4f19-bb38-8c288068ae09" fill="#7F7359" d="M831.86,1220.756  c1.351,0.351,4.465-0.53,6.475,0c0.322,0.087,0.937,0.37,1.388,0.464c0.756,1.171,1.184,1.511,1.156,3.7  c-0.644,0.47-1.024,1.325-1.851,1.619c-3.93,0-7.862,0-11.793,0c-8.017,0.077-16.035,0.153-24.051,0.23  c-33.761,0.077-67.531,0.155-101.29,0.231c-3.87,0.939-10.386,0.23-14.801,0.23c-10.021,0-20.043,0-30.063,0  c-22.618,0-47.885,0.442-71.688,0.464c-0.689,0-1.605-0.761-2.082-0.926c-6.552,0-13.105,0-19.657,0  c-95.807,0.155-191.643,0.309-287.45,0.462c-41.005,0-82.024,0-123.028,0c-10.252,0.077-20.506,0.155-30.757,0.231  c-3.161,0-6.322,0-9.481,0c-1.383,0-3.314,0.153-4.164-0.462c-0.979-0.302-1.201-1.021-1.85-1.619  c-0.027-1.45,0.219-2.269,0.462-3.237c0.54-0.308,1.079-0.616,1.62-0.925c1.223-0.354,1.893,0.425,3.006,0.462  c3.16,0,6.32,0,9.481,0c11.099,0,22.201,0,33.301,0c36.843-0.076,73.697-0.153,110.541-0.23  c69.214-0.078,138.452-0.154,207.667-0.231c23.431,0,46.87,0,70.301,0c7.553,0,15.11,0,22.663,0c4.046,0,8.842,0.343,12.489-0.232  c0.782-0.123,1.718,0.332,2.543,0.232c1.367-0.165,4.306-0.689,6.013-0.232c0.594,0.16,1.377,0.769,1.85,0.926  c2.391,0,4.779,0,7.17,0c1.464,0,2.929,0,4.394,0c1.705-0.407,4.386-0.231,6.476-0.231c4.085,0,8.171,0,12.256,0  c13.265,0,27.126,0.156,40.008-0.23c18.96,0,37.928,0,56.888,0c2.116-0.506,5.353-0.231,7.863-0.231c5.011,0,10.021,0,15.032,0  c15.492-0.077,30.989-0.153,46.481-0.232c11.331,0,22.665,0,33.996,0c3.006,0,6.012,0,9.018,0  C829.436,1220.987,831.212,1221.211,831.86,1220.756z"/>
    <path opacity="1" id="shape_498ab495-7fbd-42f0-a711-4d3deb3dde41" fill="#7F7359" d="M574.704,818.834  c12.664,0.11,26.269,0.231,39.312,0.231c6.629,0,13.259,0,19.889,0c1.639,0.21,4.216,0.005,5.318,0.231c20.503,0,41.012,0,61.515,0  c44.936,0,89.887,0,134.822,0c11.252,0,22.51,0,33.763,0c6.176,0,14.444-0.311,17.113,0.231c2.929,0,5.858,0,8.787,0  c5.319,0,10.638,0,15.957,0c2.641,0,5.138-0.428,5.78,1.62c0.755,0.844,0.25,1.774,0,2.775c-0.462,0.386-0.924,0.771-1.386,1.156  c-49.639,0-99.292,0-148.93,0c-15.647,0-31.298,0-46.944,0c-7.415,0-18.681,0.626-22.895-0.232c-15.262,0-30.527,0-45.789,0  c-33.221,0.077-66.451,0.155-99.671,0.232c-38.589,0-79.404-0.001-117.246,0c-12.563,0-25.132,0-37.694,0c-3.933,0-7.864,0-11.794,0  c-2.018,0-4.608,0.165-6.244-0.232c-25.436,0.077-50.879,0.155-76.314,0.232c-43.086,0-86.187,0-129.272,0  c-7.643,0-19.55-0.64-24.513,0.231c-4.008,0-8.018,0-12.025,0c-8.127,0-17.463,0.193-24.513-0.231  c-0.625-0.843-1.27-0.856-1.388-2.312c-0.284-0.399-0.13-1.2,0.231-1.619c0.344-1.105,1.153-1.152,1.85-1.851  c18.207,0.037,37.376,0.231,55.964,0.231c8.324,0,16.651,0,24.976,0c0.606-0.135,2.127,0.125,2.775,0  c2.304-0.442,5.632-0.231,8.325-0.231c5.088,0,10.176,0,15.263,0c18.5,0,37.002,0,55.502,0c59.527,0,119.785,0.232,178.298,0.231  c21.312,0,42.543,0.005,63.365,0c6.782,0,13.566,0,20.35,0c3.196,0.001,7.402,0.467,10.174-0.231c6.629,0,13.259,0,19.888,0  C569.427,819.297,573.401,819.834,574.704,818.834z"/>
    <path opacity="1" id="shape_c75b9a04-a96b-4a76-b7f8-c3c49f84e066" fill="#7F7359" d="M112.886,829.703  c1.607,0.019,1.654,0.349,2.544,0.694c14.798,0,29.602,0,44.401,0c8.093,0,16.188,0,24.282,0c2.666,0.484,5.806,0.072,8.325,0.23  c0.827,0.054,2.357-0.306,2.775-0.23c4.62,0.818,10.681,0.23,15.726,0.23c10.02,0,20.043,0,30.062,0c39.618,0,79.248,0,118.866,0  c123.247,0.078,246.531,0.154,369.778,0.231c48.327,0,96.67,0,144.998,0c11.021,0,22.047,0,33.069,0  c5.211,0,10.88-1.297,10.869,4.162c-0.63,0.641-0.609,1.297-1.62,1.619c-0.938,0.654-2.688,0.007-3.93,0c-3.547,0-7.092,0-10.638,0  c-13.566,0-27.136,0-40.702,0c-51.718,0-103.453,0-155.173,0c-97.194-0.076-194.418-0.154-291.613-0.231  c-30.522,0-61.055,0-91.577,0c-9.404,0-18.81,0-28.213,0c-3.229,0-7.541,0.166-9.714-0.231c-0.87-0.158-3.311,0.266-4.394,0  c-16.264,0-32.531,0-48.794,0c-26.746,0-53.5,0-80.246,0c-9.018,0-18.04,0-27.058,0c-4.235,0-9.186,0.201-12.718,0  c-0.792-1.075-1.562-1.282-1.619-3.238c0.337-0.439,0.167-1.055,0.462-1.618C111.424,830.58,112.323,830.277,112.886,829.703z"/>
    <path opacity="1" id="shape_54cd29c2-c3f7-49f6-b50d-3db675d60df5" fill="#7F7359" d="M110.573,841.035  c134.885,0.076,269.812,0.153,404.697,0.23c2.37,0.497,9.327,0.231,14.569,0.231c9.558,0,19.119,0,28.676,0  c5.201,0,12.025,0.697,16.419-0.462c7.708,0,15.417,0,23.125,0c17.42,0.076,34.845,0.153,52.265,0.23  c58.732,0.154,117.484,0.309,176.217,0.463c19.347,0.077,38.698,0.154,58.045,0.23c6.552,0,13.105,0,19.657,0  c3.835,0,8.445-0.21,11.563,0.464c1.002,1.556,1.231,1.405,1.154,3.699c-0.592,0.439-0.562,0.882-1.386,1.156  c-0.752,0.62-2.323,0.463-3.7,0.463c-2.93,0-5.859,0-8.788,0c-11.724-0.001-23.779-0.23-35.151-0.231  c-45.167-0.077-90.349-0.154-135.517-0.231c-36.521,0-73.618-0.462-110.309-0.462c-8.632,0-17.268,0-25.9,0  c-4.052,0-10.064,0.391-12.95-0.231c-1.334-0.287-4.369-0.232-5.319,0.231c-0.148,0.072-0.495,0.624-0.692,0.693  c-0.778,0.271-6.938-0.463-6.938-0.463c-97.891-0.076-195.807-0.153-293.696-0.23c-40.619,0-81.252,0-121.872,0  c-10.074,0-22.69,0.12-30.295-0.231c-3.392,0-6.784,0-10.174,0c-1.14,0-3.21,0.272-3.932-0.232c-0.903-0.275-1.031-0.844-1.62-1.386  c-0.016-1.061,0.077-2.012,0.232-2.775C109.494,841.806,110.033,841.42,110.573,841.035z"/>
    <path opacity="1" id="shape_e16cc178-d0b0-4a2c-b4ab-709e519349fe" fill="#7F7359" d="M553.428,852.366  c0.746,0.247,1.691,0.151,2.775,0c1.132,0.544,2.796,0,5.088,0c3.93,0,7.862,0,11.794,0c2.003,0,4.008,0,6.013,0  c2.116,0.504,5.351,0.23,7.862,0.23c5.087,0,10.176,0,15.263,0c15.107,0.078,30.219,0.155,45.326,0.231  c59.119,0.309,118.255,0.618,177.374,0.926c20.271,0.077,40.548,0.154,60.819,0.23c6.86,0,13.722,0,20.581,0  c3.579,0,7.922-0.37,11.102,0.231c0.696,1.084,1.358,1.345,1.388,3.238c-0.693,0.703-0.75,1.502-1.852,1.85  c-0.881,0.673-2.865,0.463-4.393,0.463c-3.623,0-7.246,0-10.869,0c-13.257-0.077-26.519-0.154-39.775-0.232  c-51.257-0.23-102.529-0.462-153.786-0.692c-30.214-0.154-60.438-0.309-90.651-0.463c-7.786,0-15.572,0-23.357,0  c-3.531,0-8.243,0.573-11.331-0.231c-2.853,0.077-5.705,0.154-8.558,0.231c-2.584-0.629-6.482-0.231-9.481-0.231  c-6.165,0-12.333,0-18.499,0c-16.573,0-33.15,0-49.721,0c-5.404,0.662-14.148,0.231-21.738,0.231c-13.412,0-26.827,0-40.238,0  c-41.392,0-82.795,0-124.185,0c-44.396,0.076-88.807,0.154-133.203,0.231c-15.185,0-30.374,0-45.557,0  c-8.109,0-17.044,0.577-24.745-0.231c-0.258-0.371-1.277-1.539-1.619-1.851c-0.015-0.999,0.086-1.828,0.231-2.544  c0.506-0.339,1.206-0.929,1.619-1.388c43.326,0.068,87.643,0.231,131.353,0.231c20.118,0,40.241,0,60.358,0  c2.552-0.523,9.298-0.231,15.032-0.231c9.48,0,18.964,0,28.444,0c30.6,0,61.208,0,91.809,0c29.289,0,58.587,0,87.876,0  c7.631,0,15.264,0,22.894,0C546.572,852.599,552.492,853.036,553.428,852.366z"/>
    <path opacity="1" id="shape_4bbb1204-6bad-4b0f-9467-c897e7b726eb" fill="#7F7359" d="M114.041,864.16  c111.3,0.155,222.634,0.309,333.934,0.462c35.917,0.078,71.847,0.155,107.765,0.231c7.631,0,15.263,0,22.895,0  c0.2-0.066,0.723-0.624,0.925-0.693c2.93,0.078,5.859,0.155,8.788,0.231c5.974,0,15.674-0.63,19.657,0.23  c13.873,0,27.752,0,41.626,0c42.7,0.078,85.414,0.155,128.114,0.231c14.106,0,28.216,0,42.32,0c6.353,0,16.456-0.647,20.813,0.23  c5.472,0,10.946,0,16.419,0c12.718,0,25.439,0,38.157,0c6.378,0,14.312-0.727,19.888,0.464c0.655,1.046,1.151,1.389,1.156,3.237  c-0.629,0.64-0.608,1.296-1.618,1.618c-1.244,1.021-8.691,0.464-11.1,0.464c-10.252,0-20.507,0-30.758,0  c-2.775-0.002-3.872,0.068-5.318-0.231c-25.744,0-51.496,0-77.24,0c-12.486,0-24.977,0-37.463,0  c-1.365-0.295-4.963-0.232-7.401-0.232c-4.702,0-9.403,0-14.105,0c-14.877,0-29.757,0-44.634,0  c-22.043-0.076-44.095-0.153-66.139-0.231c-11.946,0-23.896,0-35.845,0c-0.34,0.098-1.233,0.625-1.618,0.695  c-0.429,0.078-0.957-0.225-1.619-0.231c-2.466,0-4.933,0-7.4,0c-7.246,0-14.492,0-21.738,0c-20.194-0.077-40.395-0.155-60.588-0.232  c-65.748-0.076-131.514-0.153-197.262-0.231c-46.323-0.076-92.661-0.153-138.984-0.23c-7.169,0-14.339,0-21.506,0  c-4.398,0.001-9.151,0.232-11.563-0.231c-3.383-0.649-9.218,1.429-10.176-1.618C110.933,866.423,113.128,864.931,114.041,864.16z"/>
    <path opacity="1" id="shape_f8d6e61d-040f-4f7e-899a-a73fe1e132e9" fill="#7F7359" d="M111.035,941.4  c33.759,0.153,67.53,0.309,101.29,0.462c12.024,0,24.052,0,36.076,0c5.556,0,14.167-0.517,17.806,0.231  c40.389,0.077,80.791,0.154,121.179,0.23c2.582,0.611,8.278,0.231,12.025,0.231c8.015,0,16.034,0,24.051,0  c23.971,0.077,47.949,0.154,71.921,0.231c75.36-0.001,150.424,0,226.63,0c48.25,0.078,96.515,0.154,144.766,0.231  c11.716,0,23.436,0,35.15,0c3.419-0.001,10.478-1.028,11.333,1.618c0.427,0.488,0.467,1.13,0.462,2.082  c-0.303,0.294-0.202,0.554-0.462,0.925c-0.463,0.386-0.926,0.771-1.388,1.156c-11.331,0-22.665,0-33.995,0  c-3.58-0.659-12.808-0.231-19.425-0.231c-12.873,0-25.748,0-38.62,0c-40.466,0-80.944,0-121.41,0c-34.146,0-68.302,0-102.445,0  c-3.431-0.625-10.389,0.231-16.651,0.231c-12.178,0-24.36,0-36.538,0c-5.704,0-11.41,0-17.113,0  c-3.865-0.925-11.228-0.231-15.726-0.231c-10.868,0-21.739,0-32.606,0c-4.471,0-8.943,0-13.413,0c-3.892-0.93-10.369-0.23-14.8-0.23  c-10.098,0-20.198,0-30.295,0c-30.753-0.154-61.517-0.309-92.271-0.464c-52.721-0.153-105.458-0.307-158.179-0.462  c-14.26-0.076-28.523-0.153-42.783-0.23c-3.776,0-7.554,0-11.331,0c-1.359,0.001-3.285,0.606-4.163,0  c-0.729-0.206-0.898-0.532-1.389-0.926c-0.309-0.759-0.458-1.365-0.462-2.544c0.386-0.54,0.771-1.079,1.157-1.618  C109.926,941.743,110.593,941.783,111.035,941.4z"/>
    <path opacity="1" id="shape_5e0d901a-bf59-4a8a-bf95-53097664e4df" fill="#7F7359" d="M580.484,954.119  c83.947,0.112,168.892,0.231,253.226,0.23c13.026,0,26.056,0,39.083,0c5.164,0,10.795,0.447,15.031-0.23  c0.66-0.106,0.661,0.191,1.156,0.23c0.596,0.048,0.822-0.195,1.155-0.23c0.562-0.061,0.59,0.21,0.926,0.23  c0.908,0.059,2.601-0.134,3.238-0.23c1.31,0,2.62,0,3.93,0c3.965,0,12.943-1.007,13.876,1.849c0.755,0.846,0.25,1.776,0,2.775  c-3.374,2.059-12.229,1.157-17.575,1.156c-14.105,0-28.215,0-42.32,0c-48.866,0.077-97.748,0.155-146.616,0.232  c-28.44,0-56.891,0-85.333,0c-8.709,0-17.423,0-26.132,0c-2.467,0-4.934,0-7.4,0c-0.662,0.216-1.604,1.15-3.006,0.693  c-0.199-0.064-0.728-0.627-0.925-0.693c-0.542-0.181-1.783-0.159-2.082-0.232c-93.649,0-187.326,0-280.976,0  c-42.855,0-85.723,0-128.578,0c-13.489,0-26.98,0-40.47,0c-6.28,0.001-14.967,0.813-20.35-0.462c-0.688-1.19-1.583-3.514,0-4.625  c1.283-0.901,4.659-0.463,6.707-0.463c5.626,0,11.255,0,16.881,0c27.054,0,54.117,0,81.171,0c89.718,0,179.463,0,269.182,0  c23.586,0,47.178,0,70.764,0c6.167,0,12.333,0,18.5,0C575.047,954.35,579.629,954.717,580.484,954.119z"/>
    <path opacity="1" id="shape_af54b60b-a41a-41b8-a5f1-26baf1199247" fill="#7F7359" d="M105.716,964.062  c1.295,0.027,1.611,0.421,2.313,0.694c94.497,0.154,189.022,0.308,283.52,0.462c30.136,0,60.284,0,90.42,0c9.404,0,18.81,0,28.213,0  c5.875,0,12.271-0.294,15.033,0.232c14.027,0,28.06,0,42.088,0c5.573,0,13.596,0.771,18.27-0.464c24.434,0,48.875,0,73.309,0  c57.808,0,115.633,0,173.441,0c18.269,0,36.54,0,54.808,0c5.705,0,11.409,0,17.113,0c3.269,0,6.916-0.269,9.25,0.231  c1.146,1.775,1.306,1.997,0.693,4.395c-3.189,1.834-9.834,1.156-14.799,1.156c-11.178,0-22.357,0-33.533,0  c-41.545,0-83.103,0-124.647,0c-40.388,0-80.789,0-121.177,0c-10.792,0-21.586,0-32.377,0c-4.244,1.102-19.381,0.702-21.275,0.231  c-90.721-0.077-181.468-0.155-272.188-0.231c-45.399-0.077-90.812-0.154-136.21-0.232c-12.872,0-25.748,0-38.62,0  c-3.391,0-6.784,0-10.174,0c-1.138,0-3.211,0.274-3.932-0.23c-1.057-0.308-1.177-0.983-1.851-1.619  c-0.089-2.037,0.138-3.701,1.62-4.162C105.208,964.351,105.532,964.239,105.716,964.062z"/>
    <path opacity="1" id="shape_777437ac-298d-4d3f-b851-5b854fe728d3" fill="#7F7359" d="M464.394,975.395  c0.839,0.256,1.713,0.058,2.544,0c0.747-0.052,1.45,0.105,2.082,0.23c0.231-0.076,0.462-0.153,0.693-0.23c1.85,0,3.7,0,5.55,0  c7.708,0,15.418,0,23.126,0c26.129,0,52.266,0,78.395,0c74.458,0.154,148.938,0.309,223.394,0.462c25.128,0,50.263,0,75.39,0  c7.938,0,15.881,0,23.82,0c4.907,0,10.2-0.238,13.875,0.463c0.384,0.462,0.771,0.925,1.156,1.388  c0.007,1.217,0.04,2.295-0.464,3.006c-1.063,1.503-7.892,0.926-10.638,0.926c-11.484,0-22.973,0-34.457,0  c-48.403-0.077-96.823-0.155-145.229-0.231c-31.498,0-63.35-0.23-93.89-0.231c-10.405,0-20.814,0-31.22,0c-3.545,0-7.092,0-10.637,0  c-1.244,0.107-2.595,0.255-3.7,0c-94.344,0.077-188.715,0.154-283.058,0.231c-44.859,0-89.732,0-134.59,0  c-14.106,0-28.214,0-42.32,0c-6.364,0-15.892,0.812-21.276-0.463c-0.693-1.188-1.579-3.519,0-4.625  c1.076-0.753,3.556-0.463,5.319-0.463c4.24,0,8.48,0,12.72,0c20.656-0.076,41.319-0.153,61.977-0.231c69.138,0,138.298,0,207.437,0  c18.113,0,36.232,0,54.345,0c4.778,0,9.559,0,14.337,0C460.487,975.627,463.462,976.053,464.394,975.395z"/>
    <path opacity="1" id="shape_a8a30f0d-0d2e-4fc1-bf82-85ddf83b5ef5" fill="#7F7359" d="M99.473,986.264  c92.58-0.033,186.16,0.23,279.125,0.23c30.06,0,60.13,0,90.19,0c7.476,0,14.954,0,22.431,0c3.98,0,8.67-0.303,12.257,0.232  c0.467,0.068,1.32-0.231,2.081-0.232c2.417-0.002,5.357-0.081,7.168,0.232c11.64,0,23.282,0,34.919,0c24.445,0,47.48,0,71.921,0  c6.552,0,13.105,0,19.657,0c3.315,0,8.216-0.184,10.407,0.23c22.583,0,45.174,0,67.758,0c1.564,0.385,4.067,0.231,6.013,0.231  c3.93,0,7.862,0,11.794,0c12.255,0,24.514,0,36.77,0c30.985,0.155,61.979,0.309,92.965,0.462c11.33,0,22.663,0,33.994,0  c5.392,0,11.758-0.492,16.419,0c0.464,0.54,0.926,1.079,1.388,1.619c0.018,1.061-0.076,2.012-0.231,2.775  c-0.605,0.382-1.153,1.141-1.85,1.387c-5.241,0-10.483,0-15.726,0c-13.566-0.076-27.135-0.153-40.7-0.231  c-50.563-0.153-101.142-0.307-151.705-0.462c-23.739-0.076-47.486-0.153-71.227-0.23c-7.938,0-15.88,0-23.819,0  c-3.999,0-8.903,0.457-12.487-0.231c-1.879-0.361-11.892-0.346-14.107,0.231c-1.618-0.078-3.237-0.155-4.855-0.231  c-4.009,0-8.018,0-12.025,0c-21.89,0-43.788,0-65.676,0c-68.832,0-137.683,0-206.513,0c-36.765,0-73.543,0-110.308,0  c-1.336-0.194-3.886-0.172-5.781,0c-1.845,0.167-5.512-0.231-8.788-0.231c-15.956,0-31.915,0-47.871,0c-4.855,0-9.712,0-14.569,0  c-3.285,0-7.12,0.092-9.712-0.463c-0.386-0.462-0.771-0.926-1.157-1.388c-0.072-1.017-0.347-1.595,0.231-2.312  C98.173,986.866,98.839,986.899,99.473,986.264z"/>
    <path opacity="1" id="shape_a6ce2ad8-e8a9-480b-af1b-daf73416378e" fill="#7F7359" d="M567.072,1059.341  c1.029,0.11,3.681-0.445,5.318,0c0.787,0.214,1.474,0.942,2.081,1.156c28.904,0,57.817,0,86.721,0  c51.411,0.077,102.838,0.153,154.249,0.231c16.571,0,33.147,0,49.72,0c8.403-0.002,19.187-0.695,25.207,0.23  c1.541,0,3.083,0,4.624,0c5.334,0,12.105-0.61,16.65,0.462c3.836,6.558-5.027,5.091-10.405,5.088c-12.487,0-24.978,0-37.464,0  c-51.95-0.076-103.917-0.153-155.867-0.23c-31.062,0-62.134,0-93.195,0c-9.173,0-18.349,0-27.52,0c-4.548,0-9.097,0-13.645,0  c-0.278,0.115-0.813,0.806-1.156,0.925c-1.912,0.662-3.98-1.67-5.318-2.082c-2.081,0-4.163,0-6.245,0  c-5.058,0-12.317-0.613-16.188,0.231c-80.238,0.155-160.499,0.309-240.737,0.463c-39.59-0.001-82.076,0.109-120.946,0.231  c-17.117,0.053-35.227,0.231-52.728,0.231c-5.395,0-10.792,0-16.188,0c-2.857,0-6.312,0.234-8.787-0.231  c-0.697-1.084-1.359-1.345-1.388-3.238c0.208-0.228,0.032-0.38,0.231-0.693c0.54-0.462,1.079-0.925,1.618-1.387  c112.919-0.309,225.871-0.617,338.79-0.926c29.982-0.076,59.976-0.154,89.959-0.231c7.939,0,15.879,0,23.818,0  C560.017,1059.571,566.121,1060.021,567.072,1059.341z"/>
    <path opacity="1" id="shape_c9fcf642-ae65-4fbb-84ae-252f4384ba5c" fill="#7F7359" d="M582.334,1070.672  c34.42-0.112,69.636,0.925,104.76,0.925c11.947,0.077,23.897,0.155,35.846,0.231c4.085,0,8.17,0,12.256,0  c2.086,0,4.774-0.186,6.476,0.23c5.24,0,10.482,0,15.725,0c10.944,0.078,21.894,0.155,32.839,0.232  c5.299,0,13.55-0.644,17.575,0.231c1.541,0,3.083,0,4.624,0c6.73,0,11.03-1.423,17.577-1.389c5.411,0.029,11.028-0.055,16.649,0  c2.067,0.021,5.082,0.838,7.401,0.232c1.519-0.397,3.849-0.464,6.012-0.464c2.467,0.077,4.933,0.155,7.4,0.231  c1.489,0.361,4.423,0.961,6.475,0.463c2.731-0.662,7.666-1.248,10.868-0.463c2.363,0.581,5.543-0.28,7.633,0.232  c1.723,0.423,3.881-0.188,5.318-0.232c5.021-0.15,11.225-0.384,15.495,0.463c0.384,0.462,0.771,0.926,1.156,1.388  c0.399,6.925-5.526,5.783-12.489,5.781c-10.56-0.076-21.122-0.154-31.681-0.231c-48.021-0.308-96.053-0.617-144.073-0.925  c-16.726-0.154-33.457-0.308-50.183-0.463c-5.704,0-11.408,0-17.112,0c-2.702,0-6.266,0.36-8.557-0.23c-2.467,0-4.934,0-7.4,0  c-5.627,0-11.256,0-16.882,0c-2.702,0-6.264,0.359-8.556-0.231c-10.021,0-20.045,0-30.064,0c-2.389-0.077-4.779-0.154-7.168-0.232  c-0.977-0.002-3.006,0.146-3.238,0c-5.573,0.821-12.509,0.232-18.5,0.232c-11.794,0-23.589,0-35.383,0  c-34.299,0.077-68.61,0.153-102.909,0.231c-32.758,0.077-65.525,0.154-98.283,0.23c-11.253,0-22.51,0-33.763,0  c-5.68,0-12.316-0.585-17.575,0.231c-13.566,0-27.137,0-40.702,0c-27.132,0.077-54.271,0.155-81.402,0.231  c-10.406,0-20.813,0-31.219,0c-2.775,0-5.551,0-8.325,0c-1,0-2.625,0.196-3.238-0.231c-0.979-0.301-1.201-1.021-1.85-1.618  c-0.059-2.585,0.708-2.709,1.85-3.932c116.311-0.231,232.655-0.462,348.966-0.694c31.292-0.076,62.597-0.154,93.89-0.231  c8.248,0,16.497,0,24.745,0C575.078,1070.903,581.369,1071.362,582.334,1070.672z"/>
    <path opacity="1" id="shape_815d4428-3a9a-4301-82f8-38b089e4c044" fill="#7F7359" d="M118.667,1080.848  c4.849-0.027,9.374-0.145,13.182,0.924c1.66,0.467,5.164,0.11,6.474-0.231c2.934-0.763,8.408,0.403,10.407,0.926  c51.565-0.077,103.146-0.153,154.71-0.231c89.795-0.077,179.618-0.153,269.413-0.23c2.382,0.595,5.957,0.462,9.02,0.462  c4.933,0,9.867,0,14.801,0c15.338,0.077,30.681,0.155,46.021,0.231c58.655,0.23,117.328,0.463,175.984,0.693  c19.5,0.078,39.008,0.154,58.509,0.231c7.091,0,14.184,0,21.275,0c4.141,0,9.064-0.229,12.487,0.462  c0.654,1.046,1.15,1.389,1.156,3.238c-0.533,0.603-0.678,1.17-1.387,1.619c-0.786,0.644-2.505,0.462-3.932,0.462  c-3.238,0-6.476,0-9.713,0c-12.641-0.076-25.285-0.153-37.927-0.231c-49.329-0.153-98.674-0.309-148.003-0.462  c-34.377-0.155-68.764-0.309-103.14-0.463c-10.175-0.076-20.353-0.154-30.526-0.231c-2.93,0-5.858,0-8.788,0  c-1.853-0.466-4.02-0.52-5.55-0.23c-86.327,0.077-172.681,0.154-259.007,0.23c-35.66,0-72.658,0.231-106.608,0.231  c-11.177,0-22.356,0-33.532,0c-4.085,0-8.173,0-12.256,0c-1.599,0.01-2.558,0.887-4.163,0.463c-1.321-0.349-2.506-1.285-3.7-1.62  c-0.719-0.2-1.103,0.188-1.619,0.232c-3.547,0.078-7.092,0.154-10.638,0.231c-1.312-0.333-3.06-0.854-4.395-1.156  c-0.646-0.146-3.865,0.23-5.088,0.23c-1.079,0-2.158,0-3.237,0c-3.087,0.789-6.483,2.251-9.481,1.619  c-0.386-0.462-0.771-0.925-1.157-1.388c-0.024-1.387,0.228-2.073,0.462-3.006c1.595-0.728,3.674-1.53,5.551-2.082  C115.738,1081.341,117.598,1081.673,118.667,1080.848z"/>
    <path opacity="1" id="shape_0f2b8304-b302-4868-b151-ea9e5e37f922" fill="#7F7359" d="M105.485,1093.104  c1.002,0.077,2.004,0.155,3.006,0.231l0.463,0.463c58.425,0,116.866,0,175.292,0c8.016,0,16.034,0,24.051,0  c4.174-0.001,9.631-0.19,12.719,0.231c0.771-0.078,1.542-0.155,2.312-0.231c1.573-0.005,2.946,0.196,3.701,0.231  c1.303,0.059,2.595-0.255,4.163,0c1.101,0.178,3.234-0.387,4.393-0.231c4.541,0.607,10.343-0.517,14.338,0.231  c1.373,0.257,2.254-0.317,3.468-0.231c4,0.28,11.027-0.352,13.876,0.231c1.486,0.303,4.086-0.197,4.855,0c2.313,0,4.626,0,6.938,0  c4.866,0,10.577,0.462,15.033-0.231c1.5,0.686,4.752,0.231,6.707,0.231c5.241,0,10.483,0,15.724,0c18.576,0,37.158,0,55.733,0  c23.354,0,46.716,0,70.07,0c7.322,0,14.648,0,21.97,0c3.006-0.078,6.014-0.155,9.02-0.231c0.732,0.173,2.492-0.072,3.468,0.231  c2.354,0.732,6.388,0.462,9.481,0.462c6.014,0,12.026,0,18.039,0c22.043,0,44.095,0,66.139,0c2.854,0.572,11.267,0.23,16.65,0.23  c55.342,0,110.699,0,166.042,0c14.341,0,30.063,0.233,42.088,0.231c4.394,0,8.788,0,13.182,0c1.324,0,3.992-0.375,4.857,0.231  c1.324,0.378,1.875,1.476,1.85,3.238c-0.208,0.227-0.032,0.38-0.231,0.694c-0.539,0.462-1.08,0.924-1.618,1.386  c-78.774-0.076-157.571-0.153-236.345-0.23c-24.201,0-48.412,0-72.613,0c-7.246,0-14.493,0-21.738,0  c-3.971,0-8.877,0.25-11.794-0.693c-86.559,0-173.143,0-259.701,0c-51.026,0-102.067,0-153.092,0c-12.564,0-25.131,0-37.695,0  c-4.513,0-12.312,0.733-15.262-0.926c-0.463-0.539-0.925-1.079-1.388-1.618C103.565,1094.134,104.146,1094.432,105.485,1093.104z"/>
    <path opacity="1" id="shape_a0d1c83d-0786-447e-b0d3-c7fe404bc06e" fill="#7F7359" d="M748.839,1104.203  c1.319-0.018,1.878,0.236,2.775,0.464c0.582,1.003,0.931,1.484,0.925,3.237c-1.059,1.043-1.625,2.507-3.238,3.006  c-4.007,0-8.018,0-12.024,0c-1.625,0.373-6.196,0.232-9.481,0.23c-6.09,0-12.181,0-18.269,0  c-39.156,0.078-78.324,0.155-117.479,0.232c-4.704,0.045-11.521,0.831-15.495-0.463c-25.744,0-51.495,0-77.239,0  c-10.559,0-21.122,0-31.681,0c-5.618,0.001-13.156,0.336-16.42-0.231c-19.346,0-38.698,0-58.044,0  c-40.109,0-82.698-0.231-120.946-0.231c-36.844,0-73.698,0-110.541,0c-11.716,0-23.435,0-35.15,0c-6.209,0-14.213,0.46-18.963-0.462  c-0.737-1.171-2.025-3.601-0.232-4.856c1.497-1.049,5.766-0.463,8.095-0.462c7.091,0,14.184,0,21.274,0c33.297,0,66.605,0,99.903,0  c0.656,0.087,2.348,0.148,2.775,0.23c13.72,0,27.444,0,41.164,0c29.289,0,58.588,0,87.876,0c13.335,0,26.673,0,40.007,0  c5.663,0.723,16.795,0.231,24.976,0.231c15.878,0,31.761,0,47.639,0c23.123,0,46.253,0,69.377,0c7.245,0,14.492,0,21.738,0  c2.235,0,4.471,0,6.706,0c0.38-0.099,1.002-0.598,1.618-0.462c0.684,0.149,1.292,0.955,1.85,1.155  c12.642-0.076,25.286-0.154,37.927-0.231c31.833-0.076,63.676-0.153,95.509-0.23c7.938,0,15.88,0,23.819,0  C742.883,1105.361,747.193,1105.896,748.839,1104.203z"/>
    <path opacity="1" id="shape_eb932f30-144d-40d8-aa3f-c8d9abec0afb" fill="#7F7359" d="M765.027,1104.897  c37.69,0.309,75.393,0.617,113.084,0.925c6.243,0,12.488,0,18.732,0c2.997,0,7.612-0.188,9.479,0.232  c3.307,0.739,6.671-1.383,7.632,1.618c0.645,0.729,0.33,1.454,0.231,2.544c-0.497,0.36-0.847,1.108-1.387,1.388  c-0.906,0.468-7.269,0-9.251,0c-7.245,0-14.492,0-21.738,0c-26.825-0.39-56.202-0.697-83.944-0.694  c-8.711-0.076-17.423-0.154-26.133-0.231c-3.104,0.001-8.011,0.793-8.787-1.618c-0.903-1.013-0.066-2.161,0.231-3.238  C763.756,1105.674,764.615,1105.273,765.027,1104.897z"/>
    <path opacity="1" id="shape_55abd7b8-1979-43d0-9569-6e226dfdf959" fill="#7F7359" d="M910.025,1176.124  c1.348,0.022,1.925,0.438,3.006,0.694c0.462,0.54,0.924,1.079,1.388,1.619c0.03,2.668-0.89,4.69-2.776,5.318  c-1.979,0.659-2.607-0.992-3.468-1.387c-0.926,0-1.852,0-2.775,0c-7.477,0-14.955,0-22.432,0c-34.068,0-68.147,0-102.215,0  c-2.562,0.312-5.659,0.072-9.251,0c-1.564-0.032-3.093,0.227-5.55,0.23c-10.174,0-20.352,0-30.525,0c-28.442,0-56.893,0-85.334,0  c-21.968,0-43.941,0-65.907,0c-0.511,0.152-1.107,0.78-1.619,0.926c-1.592,0.448-2.169-0.836-3.469-0.926c-4.626,0-9.251,0-13.875,0  c-11.485,0.077-22.973,0.155-34.458,0.231c-39.748,0-81.893,0.232-119.791,0.23c-29.058,0-58.125,0-87.183,0  c-9.25,0-18.501,0-27.751,0c-4.476,0-10.778-0.411-14.106,0.231c-35.764,0-71.539,0-107.303,0c-6.629,0-13.259,0-19.888,0  c-3.295,0-7.977-0.241-10.176,0.232c-10.02,0-20.043,0-30.062,0c-3.326,0-8.419,0.681-9.25-1.852c-0.667-0.778-0.413-1.76,0-2.543  c1.293-2.457,5.63-1.389,9.25-1.388c11.869,0,23.743,0,35.613,0c45.245-0.076,90.504-0.153,135.748-0.231  c153.879,0.001,307.824-0.693,463.436-0.693c39.695,0,79.402,0,119.098,0c10.174,0,20.352,0,30.525,0  C901.791,1176.818,908.505,1177.405,910.025,1176.124z"/>
    <path opacity="1" id="shape_bdc88186-1351-4160-ad96-431c0a32c7a0" fill="#7F7359" d="M910.256,1187.688  c1.087,0.019,1.472,0.266,2.312,0.462c0.635,0.996,1.281,1.364,1.387,3.007c-0.882,1.187-0.709,2.507-2.312,3.006  c-0.961,0.791-2.278,0.245-3.699,0.232c-3.083,0-6.167,0-9.25,0c-11.178-0.078-22.356-0.155-33.532-0.232  c-44.552,0-89.115,0-133.666,0c-77.34,0-154.41,0.001-231.256,0c-24.819,0-49.646,0-74.465,0c-7.939,0-15.879,0-23.818,0  c-3.914,0-9.472,0.311-12.257-0.231c-10.328,0-20.659,0-30.988,0c-25.127,0-50.262,0-75.389,0c-7.939,0-15.88,0-23.819,0  c-4.137,0-10.083,0.236-12.488-0.231c-34.223,0-68.455,0-102.678,0c-8.864,0-17.73,0-26.595,0c-2.765,0-8.707,0.44-9.943-0.462  c-2.007-0.522-1.841-2.369-1.388-4.162c0.543-0.339,0.959-0.955,1.619-1.156c4.24,0,8.48,0,12.719,0c11.1,0,22.202,0,33.301,0  c41.314,0.077,82.64,0.154,123.954,0.23c72.145,0.078,144.312,0.155,216.456,0.231c3.605,0.738,15.043,0.23,21.969,0.23  c15.03,0,30.065,0,45.095,0c5.627,0,11.255,0,16.883,0c2.478,0,5.851,0.377,7.63-0.462c5.788,0.408,12.562,0.231,18.732,0.231  c10.174,0,20.352,0,30.525,0c30.984,0,61.98,0,92.966,0c44.012,0.077,88.035,0.154,132.047,0.23c12.023,0,24.052,0,36.075,0  C900.159,1188.613,908.16,1189.327,910.256,1187.688z"/>
    <path opacity="1" id="shape_45121242-d2f0-4c01-9c51-d37ab03ae857" fill="#7F7359" d="M492.376,1199.48  c1.526,0.436,5.292,0,8.557,0c6.319,0,12.642,0,18.963,0c20.965,0,41.936,0,62.902,0c38.719,0,78.379,0.232,117.477,0.232  c10.714,0,21.431,0,32.145,0c1.003-0.191,1.888,0.006,3.238-0.232c0.48,0.208,1.711,0.38,2.544,0.232  c1.878-0.333,7.889-0.354,10.175,0c0.694-0.077,1.389-0.154,2.082-0.232c2.269,0.133,7.215-0.191,9.714,0.232  c0.64,0.108,4.072-0.232,5.317-0.232c4.471,0,8.943,0,13.414,0c16.263,0,32.53,0,48.794,0c5.01,0,10.021,0,15.031,0  c3.376,0,7.252-0.087,9.943,0.464c1.124,1.778,2.03,4.314-0.692,5.318c-14.491,0-28.986,0-43.476,0c-48.327,0-96.671,0-144.998,0  c-126.893,0-253.566,0.464-379.954,0.462c-40.08,0.078-80.173,0.155-120.253,0.231c-9.635,0-19.272,0-28.906,0  c-4.445,0-10.641,0.472-13.645,0c-0.696-0.109-2.396,0.232-3.468,0.232c-4.104,0-7.955,0.062-11.101-0.694  c-0.67-1.16-1.155-1.726-1.155-3.7c0.704-0.691,1.025-1.735,2.081-2.081c1.256-0.412,1.945,0.496,2.544,0.693  c1.001,0,2.004,0,3.006,0c5.704,0,11.41,0,17.113,0c20.965-0.076,41.937-0.154,62.902-0.231c73.07-0.153,146.161-0.309,219.23-0.462  c19.732,0,39.469,0,59.201,0c5.164,0,10.331,0,15.495,0C488.105,1199.713,491.365,1200.188,492.376,1199.48z"/>
    <path opacity="1" id="shape_bbb46546-4445-4708-bb10-a4b3efdb67e2" fill="#7F7359" d="M881.349,1199.48  c0.771,0.078,1.541,0.155,2.313,0.232c0.355,0.584,1.348,1.835,1.85,2.312c0.096,2.57-1.575,5.055-4.163,3.7  c-0.882-0.461-1.187-1.621-1.851-2.312c0-0.771,0-1.542,0-2.312c0.433-0.305,0.529-0.866,0.926-1.156  C880.783,1199.68,881.059,1199.785,881.349,1199.48z"/>
    <path opacity="1" id="shape_29c715d2-8722-40ff-9e41-58c94e64a4a2" fill="#7F7359" d="M902.394,1199.713  c3.718-0.051,7.746,0.158,10.869,0.924c0.486,0.992,0.896,1.428,0.924,3.008c-0.303,0.294-0.2,0.553-0.462,0.924  c-0.462,0.386-0.925,0.771-1.388,1.156c-1.388,0.078-2.775,0.155-4.162,0.231c-1.312-0.319-4.103-0.96-6.013-0.462  c-1.774,0.462-1.775,0.645-3.7,0.23c-0.689-1.102-1.164-1.493-1.156-3.469c0.673-0.64,0.796-1.302,1.85-1.619  C899.987,1199.957,901.597,1200.284,902.394,1199.713z"/>
    <path opacity="1" id="shape_f0c94f90-2942-4083-b47d-32c1fb774712" fill="#7F7359" d="M873.023,1200.637  c1.876-0.03,3.574,0.146,4.856,0.464c0.236,0.4,0.583,0.853,0.925,1.155c0.072,1.018,0.347,1.595-0.23,2.312  c-0.278,0.903-0.846,1.031-1.388,1.62c-1.938,0.143-4.143,0.169-5.782-0.232c-1.693-2.609-1.17-3.099,0.694-5.087  C872.642,1200.834,872.751,1200.848,873.023,1200.637z"/>
    <path opacity="1" id="shape_2b1e8fec-f5eb-401d-b0c3-ebbf49b1e615" fill="#7F7359" d="M581.41,1210.118  c72.762,0.155,145.544,0.31,218.306,0.464c17.188,0.077,34.381,0.153,51.57,0.23c3.544,0,7.091,0,10.638,0  c2.079,0,4.065-0.114,5.087,0.926c1.019,1.035,0.519,2.654,0.232,3.932c-0.577,0.334-1.192,0.955-1.852,1.156  c-1.078-0.077-2.157-0.155-3.236-0.232c-2.775,0-5.552,0-8.325,0c-2.766-0.566-10.152-0.23-14.802-0.23c-9.942,0-19.888,0-29.831,0  c-50.1-0.076-100.217-0.154-150.316-0.231c-16.342-0.077-32.687-0.153-49.026-0.231c-7.021,0-17.946-0.91-23.589,0.693  c-74.225,0-148.474,0-222.699,0c-30.446,0-60.901,0-91.346,0c-9.712,0-19.428,0-29.139,0c-1.359,0.176-3.573-0.224-5.55,0  c-1.051,0.119-1.951,0.019-3.238,0c-0.31-0.004-0.384,0.275-0.924,0.232c-0.071-0.006-0.951-0.289-1.389-0.232  c-2.008,0.265-3.276,0.329-5.318,0c-0.199-0.032-1.289,0.23-1.851,0.232c-2.62,0-5.242,0-7.863,0c-7.784,0-15.572,0-23.356,0  c-18.345,0-36.694,0-55.039,0c-10.396,0-21.442,0.353-31.451-0.232c-0.439-0.592-0.882-0.562-1.156-1.388  c-0.429-0.487-0.467-1.128-0.462-2.08c0.546-0.545,0.706-1.182,1.388-1.619c1.207-0.992,5.133-0.463,7.168-0.463  c6.552,0,13.105,0,19.657,0c25.436,0,50.878,0,76.314,0c67.597,0,135.214,0,202.812,0c20.502,0,41.012,0,61.514,0  c7.723,0,17.85,0.511,21.507-0.231c0.66-0.134,1.288,0.234,1.619,0.231c1.296-0.009,6.263,0.102,7.632-0.231s3.61,0.09,4.625,0.231  c0.309-0.076,0.617-0.153,0.925-0.231c1.217-0.057,3.823,0.005,5.319,0.231c1.947-0.855,10.53-0.231,13.413-0.231  c10.637,0,21.277,0,31.914,0c4.778,0,9.559,0,14.337,0C577.72,1210.812,580.292,1211.105,581.41,1210.118z"/>
    <path opacity="1" id="shape_6a6f9a97-ad97-40c3-a956-4030928c7720" fill="#7F7359" d="M872.099,1210.118  c0.617,0.078,1.232,0.155,1.85,0.232c0.439,0.594,0.882,0.564,1.156,1.388c0.576,0.564,0.696,1.38,0.694,2.544  c-0.396,0.438-0.505,1.2-0.926,1.618c-0.248,0.247-0.852,0.361-1.156,0.693c-1.285,0.022-1.258,0.023-2.544,0  c-0.438-0.592-0.882-0.562-1.155-1.388c-1.113-1.245-0.03-3.986,0.925-4.624C871.316,1210.331,871.784,1210.375,872.099,1210.118z"/>
    <path opacity="1" id="shape_70ba0aec-e97f-44b5-b14b-0b76dae4baae" fill="#7F7359" d="M910.949,1220.294  c2.613,0.074,4.759,1.271,4.857,3.932c-0.436,0.528-0.513,1.285-0.926,1.85c-0.623,0.854-4.098,2.829-6.244,2.082  c-0.908-0.315-1.436-1.254-2.081-1.851c-0.297-3.73,0.675-3.535,2.544-5.551C909.844,1220.739,910.531,1220.643,910.949,1220.294z"/>
    <path opacity="1" id="shape_8167a88c-f974-49b6-9837-72f46345af42" fill="#7F7359" d="M894.762,1220.756  c1.961-0.048,3.939,0.349,4.394,1.852c0.429,0.487,0.468,1.129,0.463,2.08c-0.692,0.703-0.751,1.503-1.851,1.852  c-1.128,0.997-3.078,0.545-4.394,0.23C891.294,1223.551,892.446,1222.776,894.762,1220.756z"/>
    <path opacity="1" id="shape_73803e34-38b9-491a-9037-30f684ec1c5a" fill="#7F7359" d="M929.219,1220.987  c0.918-0.032,2.471-0.168,3.006,0.232c1.56,0.438,2.75,2.145,2.775,4.162c-0.791,0.935-0.757,1.848-2.312,2.081  c-0.665,0.491-1.498-0.058-2.544,0c-2.605,0.147-4.159-0.112-4.163-3.237c0.759-0.852,1.125-2.139,2.082-2.774  C928.446,1221.195,928.9,1221.264,929.219,1220.987z"/>
    <path opacity="1" id="shape_e19fd029-3ad1-4829-932f-fbe46c94a8e7" fill="#7F7359" d="M850.592,1221.451  c4.37-0.068,7.477,3.079,7.399,7.631c-1.256,1.277-0.962,1.889-3.699,1.85c-0.363-0.367-1.081-0.514-1.388-0.925  c-0.494-0.663-0.494-1.834-1.156-2.312c-1.138-0.822-2.287-0.578-2.774-2.082c-0.791-0.879-0.255-1.987,0-3.006  C849.512,1222.221,850.053,1221.837,850.592,1221.451z"/>
    <path opacity="1" id="shape_b6871f09-fbdd-47de-88c4-c182aa100b37" fill="#7F7359" d="M879.036,1221.913  c0.616,0.077,1.233,0.154,1.851,0.231c0.791,1.076,1.561,1.283,1.618,3.237c-0.267,0.307-0.354,0.67-0.463,1.157  c-2.726,1.685-3.845,1.903-8.094,1.618c-1.199-1.54-2.852-3.458-0.231-5.088C875.21,1221.849,877.878,1222.873,879.036,1221.913z"/>
    <path opacity="1" id="shape_57b37581-edc7-491c-a0f3-156d51193c0c" fill="#7F7359" d="M864.235,1222.838  c2.189-0.043,3.603,0.317,5.088,0.693c0.616,0.985,1.131,1.298,1.156,3.008c-0.811,0.942-0.904,1.936-2.312,2.312  c-1.236,0.331-2.491-0.651-3.7,0c-0.153,0.231-0.309,0.463-0.462,0.694c-0.855,0.714-1.615,0.922-3.238,0.925  c-0.536-0.553-1.281-1.112-1.85-1.619c-0.073-1.017-0.347-1.595,0.23-2.312C860.087,1223.574,862.583,1224.428,864.235,1222.838z"/>
    <path opacity="1" id="shape_2222bd55-63c5-44e2-a978-8f4b20a1d79d" fill="#7F7359" d="M109.186,1296.146  c104.671,0.617,209.373,1.232,314.046,1.85c0.371-0.15,1.041-0.834,1.618-0.924c0.418-0.066,1.32,0.386,1.619,0.462  c2.544,0,5.088,0,7.632,0c7.553,0,15.109,0,22.663,0c40.618,0.077,81.251,0.155,121.872,0.231c13.412,0,26.826,0,40.238,0  c6.612,0,15.677-0.589,19.889,0.23c20.425,0,40.856,0,61.282,0c46.94,0.077,93.895,0.155,140.835,0.231c13.797,0,27.598,0,41.395,0  c6.577,0,16.74-0.514,20.12,0.23c2.966,0.655,6.784-0.268,9.481,0.232c0.385,0.54,0.771,1.079,1.156,1.618  c1.76,5.057-7.883,3.702-11.563,3.701c-12.563,0-25.131,0-37.694,0c-51.642-0.078-103.3-0.155-154.941-0.232  c-93.881-0.154-187.79-0.308-281.67-0.462c-4.263,1.205-11.103,0.462-16.188,0.462c-2.49,0-5.775,0.313-7.863-0.231  c-4.392,0-8.787,0-13.181,0c-9.446,0-19.102-0.23-28.213-0.23c-7.401,0-14.802,0-22.201,0c-3.392,0-7.915,0.538-10.869-0.231  c-2.775,0-5.551,0-8.325,0c-6.476,0-12.952,0-19.426,0c-3.045,0-7.091,0.452-9.712-0.23c-12.41,0-24.823,0-37.232,0  c-3.195-0.777-7.933-0.231-11.563-0.231c-7.939,0-15.881,0-23.82,0c-15.892-0.104-34.582-0.464-51.338-0.464  c-5.626,0-11.254,0-16.881,0c-2.787,0.002-7.124,0.161-8.788-0.23c-2.698,0-5.396,0-8.094,0c-5.011,0-10.022,0-15.032,0  c-3.355,0.001-7.286,0.104-9.944-0.462c-0.386-0.464-0.771-0.926-1.157-1.388c-0.054-1.154-0.057-1.159,0-2.312  c0.433-0.306,0.53-0.867,0.925-1.157C108.62,1296.345,108.896,1296.45,109.186,1296.146z"/>
    <path opacity="1" id="shape_fb78468a-d0ff-4167-a182-912f6821ccf7" fill="#7F7359" d="M107.567,1307.246  c1.253,0.002,2.041,0.251,2.775,0.463c5.164,0,10.33,0,15.494,0c3.406,0,7.896-0.518,10.869,0.231  c51.797,0.309,103.608,0.617,155.405,0.925c20.339,0,41.929,0.459,61.282,0.463c7.168,0,14.338,0,21.506,0  c3.337,0,7.731-0.501,10.638,0.231c3.7,0,7.401,0,11.101,0c5.549,0,11.1,0,16.65,0c3.059,0,6.914,0.208,9.25-0.464  c1.696,0.078,3.392,0.155,5.088,0.232c4.238,0,8.479,0,12.718,0c13.951,0,27.907,0,41.858,0c71.759,0,143.54,0,215.299,0  c35.841,0,71.693,0,107.534,0c9.789,0,19.581,0,29.37,0c4.776,0,10.69-0.644,15.031,0.231c0.693,0.139,1.417-0.136,1.851-0.231  c0.598-0.133,1.388,0.197,1.618,0.231c0.537,0.08,3.647-0.155,4.625,0c13.104,0,26.21,0,39.314,0c3.468,0,6.938,0,10.405,0  c1.14,0,3.209-0.271,3.932,0.23c1.324,0.378,1.875,1.476,1.851,3.237c-0.209,0.229-0.032,0.38-0.231,0.694  c-0.54,0.462-1.08,0.926-1.619,1.388c-126.022,0-252.081,0-378.103,0c-35.302-0.077-70.614-0.153-105.916-0.231  c-3.865,1.024-9.918,0.462-14.568,0.462c-9.559-0.076-19.119-0.153-28.676-0.23c-5.473,0-10.946,0-16.419,0  c-2.63,0-6.104,0.348-8.325-0.231c-20.966-0.077-41.937-0.153-62.902-0.23c-40.234-0.309-80.481-0.617-120.716-0.926  c-14.182-0.077-28.369-0.154-42.55-0.23c-5.088,0-10.176,0-15.264,0c-3.639,0-7.655,0.105-10.638-0.464  c-0.333-0.556-0.911-1.397-1.388-1.85c-0.012-1.283,0.246-1.841,0.462-2.774C106.642,1308.018,107.104,1307.633,107.567,1307.246z"/>
    <path opacity="1" id="shape_7d5e5e14-c2cd-4860-9833-71c6ce850732" fill="#7F7359" d="M107.104,1318.347  c50.794,0.309,101.604,0.616,152.398,0.925c17.574,0.078,35.152,0.155,52.726,0.231c6.167,0,12.335,0,18.501,0  c3.077,0,7.766-0.179,9.713,0.231c21.735,0.077,43.478,0.154,65.213,0.23c4.857,0,9.713,0,14.569,0  c1.429-0.066,2.25-1.604,4.163-0.924c0.545,0.194,0.985,0.961,1.62,1.156c30.753,0,61.517,0,92.27,0  c67.828,0.153,135.678,0.309,203.506,0.462c48.481,0.077,96.979,0.155,145.461,0.231c11.483,0,22.972,0,34.456,0  c2.312,0,4.624,0,6.938,0c0.196-0.062,0.728-0.63,0.925-0.693c2.772-0.899,3.706,1.502,3.701,3.7c-0.537,0.518-0.78,1.41-1.388,1.85  c-0.55,0.397-1.164,0.457-1.619,0.926c-125.252-0.232-250.539-0.464-375.791-0.694c-40.774-0.078-81.561-0.154-122.335-0.231  c-13.487-0.077-26.98-0.153-40.469-0.231c-4.548,0-9.097,0-13.644,0c-2.226,0-5.101,0.219-6.938-0.231c-14.492,0-28.986,0-43.477,0  c-2.459-0.564-7.948-0.231-11.563-0.231c-7.631,0-15.264,0-22.895,0c-3.16,0-6.32,0-9.481,0c-2.649-0.536-8.229-0.23-12.025-0.23  c-7.862,0-15.726,0-23.587,0c-25.822-0.154-51.651-0.308-77.471-0.463c-8.864-0.077-17.731-0.154-26.594-0.23  c-5.806,0-13.02,0.62-18.039-0.464c-0.292-0.482-0.494-0.521-0.693-1.156c-0.79-0.879-0.254-1.985,0-3.006  C105.764,1319.208,106.642,1318.761,107.104,1318.347z"/>
    <path opacity="1" id="shape_f871696c-eb9f-4e66-84d6-1b5320199a72" fill="#7F7359" d="M107.567,1329.679  c2.233-0.001,5.345-0.003,7.399,0.462c0.829,0.188,3.102,0,4.625,0c4.085,0,8.173,0,12.258,0c12.255,0,24.514,0,36.769,0  c35.995,0.155,72.002,0.309,107.997,0.462c19.038,0.077,38.082,0.155,57.121,0.232c6.396,0,12.795,0,19.193,0  c3.065,0,7.781-0.209,9.713,0.231c11.253,0,22.511,0,33.764,0c5.626,0,11.254,0,16.881,0c3.08,0,6.884,0.193,9.25-0.464  c4.855,0,9.713,0,14.569,0c11.326,0,24.26,0.15,34.458,0.232c13.874,0,27.752,0,41.626,0c3.93,0,7.863,0,11.794,0  c2.093,0,4.762-0.163,6.474,0.231c0.541,0.124,0.632-0.271,0.925-0.231c6.784,0.919,14.992,0.231,22.201,0.231  c13.044,0,26.647,0.197,39.313,0.23c13.487,0,26.981,0,40.47,0c5.732,0,15.299-0.711,19.657,0.231c18.652,0,37.311,0,55.964,0  c43.663-0.003,88.73,0.694,133.204,0.694c12.177,0,24.359,0,36.538,0c5.604,0,13.91-0.605,18.269,0.23c4.009,0,8.018,0,12.026,0  c0.263,0.087,0.467,0.354,0.924,0.463c3.812,6.566-5.009,5.089-10.406,5.088c-12.332,0-24.668,0-37.002,0  c-51.256-0.231-102.527-0.463-153.784-0.693c-36.593,0-73.259-0.462-109.615-0.464c-12.024,0-24.052,0-36.076,0  c-3.776,0-7.554,0-11.332,0c-1.946,0-4.444,0.149-6.012-0.23c-6.167,0-12.334,0-18.501,0c-14.39,0-29.481,0.503-43.476-0.231  c-6.937,0-13.877,0-20.813,0c-13.18,0-26.365,0-39.545,0c-3.941,1.226-11.547,0.462-16.419,0.462c-6.938,0-13.876,0-20.813,0  c-3.016,0.002-7.482,0.475-9.713,0c-2.213-0.469-5.488-0.23-8.094-0.23c-5.164,0-10.329,0-15.493,0  c-15.719,0-31.711-0.232-46.483-0.231c-44.089-0.153-88.191-0.309-132.279-0.463c-10.021,0-20.043,0-30.062,0  c-4.42,0-10.924,0.706-14.802-0.231c-2.003,0-4.007,0-6.012,0c-5.663,0.001-12.695,0.594-17.575-0.462  c-0.757-1.171-1.184-1.512-1.157-3.7c0.503-0.357,0.677-1.045,1.157-1.388C107.009,1329.878,107.274,1329.983,107.567,1329.679z"/>
    <path opacity="1" id="shape_bc1ae6b2-04f6-43e2-830f-698bae81f116" fill="#7F7359" d="M109.417,1341.01  c72.837,0.463,145.699,0.925,218.537,1.388c30.677,0.231,61.363,0.463,92.04,0.694c0.538-0.185,1.109-0.974,1.618-1.157  c7.091,0,14.185,0,21.276,0c15.03,0,30.065,0,45.095,0c42.238,0.078,84.489,0.155,126.729,0.231c13.719,0,27.444,0,41.163,0  c6.041,0,15.839-0.651,19.888,0.231c17.343,0,34.689,0,52.033,0c41.467,0.077,82.948,0.154,124.415,0.231c14.028,0,28.062,0,42.09,0  c4.624,0,9.249,0,13.875,0c1.387-0.003,3.254-0.688,4.162-0.463c0.274,0.068,0.722,0.37,1.156,0.463  c0.386,0.463,0.771,0.925,1.156,1.387c0.08,2.211-0.325,3.589-1.618,4.395c-0.608,0.499-8.256,0-10.638,0  c-10.329,0-20.66,0-30.989,0c-7.322,0-14.646,0-21.969,0c-1.126-0.234-2.618-0.011-4.163,0c-7.933,0.057-16.887-0.23-25.207-0.23  c-20.502,0-41.011,0-61.514,0c-73.379-0.155-146.778-0.309-220.155-0.464c-23.972,0-47.95,0-71.921,0c-7.477,0-14.955,0-22.432,0  c-3.681,0-9.181,0.227-11.1-0.23c-2.082,0-4.164,0-6.245,0c-0.509,0.181-1.081,0.967-1.618,1.156c-7.246,0-14.493,0-21.738,0  c-17.807-0.153-35.617-0.309-53.42-0.462c-6.089,0-12.18,0-18.27,0c-2.991,0-7.354,0.227-9.25-0.231c-2.389,0-4.779,0-7.168,0  c-5.858,0-11.718,0-17.575,0c-2.769,0-6.434,0.381-8.788-0.232c-11.562,0-23.127,0-34.688,0c-2.45-0.595-6.161-0.23-9.02-0.23  c-5.857,0-11.717,0-17.575,0c-15.956-0.154-31.915-0.309-47.869-0.463c-6.013,0-12.026,0-18.039,0c-3.233,0-7.097,0.23-9.943-0.23  c-8.325,0-16.652,0-24.976,0c-2.698,0-6.271,0.366-8.556-0.232c-3.376-0.883-9.173,1.571-10.176-1.618  c-0.754-0.845-0.25-1.775,0-2.775C108.491,1341.781,108.954,1341.396,109.417,1341.01z"/>
</svg>