<?xml version="1.0" encoding="UTF-8"?>
<svg xmlns="http://www.w3.org/2000/svg" xmlns:xlink="http://www.w3.org/1999/xlink" version="1.1" id="Op.93_A-Wgm_3v_page" x="0px" y="0px" width="1143px" height="1657px" viewBox="0 0 1143 1657" xml:space="preserve" preserveAspectRatio="xMidYMid meet" zoomAndPan="magnify" contentScriptType="text/ecmascript" contentStyleType="text/css"><!--SVG prepared on 2016-10-21 by prepareSVGs.xsl-->
    <path id="shape_d5852578-a4a9-4756-ac5b-be34735db984" opacity="1" fill="#d3c4a7" d="M842.281,1563.915c-7.13-0.749-11.175-0.856-17.04,0.997c-7.717,2.431-19.872-1.16-25.06,0   c-8.426,1.907-14.675-3.605-22.051-1.99c-15.822,3.426-43.673,4.362-59.139,0.993c-0.059-0.016-10.027,0-10.027,0   c-0.333,0.997-0.668,2-1.001,3.003c-4.129,1.893-9.283-1.411-12.016-2.006c-0.073-3.656,0.528-3.679-2.008-5.01   c-5.099,5.449-19.104,10.246-32.073,7.016c-1.82-0.449-6.519-2.595-9.022-2.006l-2.008,2.006c-2.342-0.335-4.69-0.67-7.016-1.003   c-0.333,0.668-0.669,1.337-1.004,2.007c-3.05,1.165-9.918,0.449-12.022,1.003c-5.678,0-11.355,0-17.049,0   c-5.695,1.411-13.004,4.421-16.038,5.01c-5.629,1.092-6.485-2.131-9.021-4.007c-4.446,6.892-12.351,3.125-21.046,4.007   c-1.403,0.152-6.224-1.91-10.025-0.998c-12.432,2.986-27.963,1.03-43.104,0.998c-1.55-2.212-4.454-2.938-6.012-5.01   c-1.509-2.023-1.509-3.979-3.01-6.021c-3.001-2.667-6.004-5.351-9.022-8.026c0-0.669,0-1.321,0-1.991c-0.995,0-1.999,0-3.002,0   c-4.895-3.197-17.815,2.448-22.057,3.997c-6.95,2.577-16.16,3.41-25.06,3.011c-2.333-0.335-4.674-0.67-7.015-1.005   c-8.679,2.48-13.346,14.423-27.062,11.022c-8.529-2.098-32.299-5.865-40.093-4.007c-4.678-0.335-9.357-0.668-14.035-0.993   c-1.986,0.569-5.445,3.489-8.019,4.005c-3.675-0.335-7.35-0.67-11.025-1.003c-9.356,2.201-17.616,3.735-27.066,6.011   c-8.593,2.079-25.459-1.859-33.078-3.01c-3.716-0.548-4.87,2.309-7.015,3.01c-8.402,2.741-34.065-2.423-40.094-4.005   c-7.688-0.327-15.372-0.66-23.057-0.995c-2.712,0.635-8.137,3.702-13.031,1.99c-2.855-0.987-4.561-5.759-9.022-5.01   c-1.125,0.198-4.099,2.717-5.008,3.012c-5.348,0.333-10.694,0.668-16.042,0.995c-3.622-0.825-7.097-3.729-10.021-5.018   c-5.681-1.663-11.359-3.336-17.041-5.008c-6.129-3.98-12.529-14.912-17.04-21.047c-3.006-2.674-6.016-5.358-9.022-8.026   c0-1.338,0-2.675,0-4.005c-2.003-1.673-4.009-3.346-6.012-5.018c-4.438-6.061-17.693-22.236-19.047-29.063   c-1.011-5.099,4.271-14.228,2.007-22.066c-0.739-2.536-3.268-6.208-4.01-9.006c0.334-6.346,0.67-12.709,1-19.047   c-0.591-2.537,0.372-7.659,0-10.025l-2.002-3.001c-2.606-9.497,1.052-17.638,3.006-25.061c4.295-16.307-6.424-38.781-2.003-57.133   c2.864-11.936,4.186-32.852,2.003-45.104c0.334,0,0.668,0,1.003,0c1.301,1.998,1.37,2.171,4.01,2.994c0-0.652,0-1.321,0-1.989   c-1.897-1.348-0.836-1.38-4.01-2.008c-0.693-15.857-0.971-32.726,2.003-45.109c5.408-1.272,11.436-3.697,13.031-9.007   c3.177-4.314,5.107-21.715,0-24.072c-4.441-2.047-8.593,4.609-12.028-4.004c-2.537-3.654-0.343-12.236,0-16.03   c-0.334-7.366-0.669-14.707-1.003-22.063c1.163-4.527,4.519-14.521,3.01-21.048c-3.426-14.798,3.581-27.71,0-42.1   c-2.182-8.753-4.168-17.979-5.013-26.063c-0.383-3.687,4.552-4.062,3.006-10.024c-0.876-3.369-4.058-6.641-5.013-10.01   c0.335-5.025,0.669-10.032,1.003-15.05c-1.827-7.676-1.644-16.698-2.003-24.057c2.203-1.239,3.031-2.25,6.012-3.002   c0.375,4.324,0.779,5.368,5.013,6.021c0-0.343,0-0.668,0-1.003c0.335,0,0.669,0,1.003,0c-0.062-9.829,1.102-15.524,3.006-22.048   c0.767-2.644-0.791-4.651-1.003-6.03c-0.816-5.506,1.077-10.285,2.006-14.029c1.044-4.226-0.567-10.287-1.003-13.044   c-0.599-3.753,0.478-8.819,1.003-11.021c-0.334-5.686-0.669-11.355-1.003-17.033c-0.669-3.345-1.337-6.681-2.002-10.025   c0.273-0.586,1.875,0.506,3.005-3.001c-8.679-5.979-5.665-19.823-6.016-32.083c-0.126-4.381-1.102-11.216-2.003-15.035   c0.334-10.359,0.669-20.702,1.003-31.07c-4.103-0.286-5.012-0.946-8.023,0c-0.122-2.635-0.408-3.41-1-5.024   c-1.872,0.627-0.914,0.073-2.006,1.003c-2.354,0.749-3.435,3.214-4.01,2.006c-1.244-0.863-1.134-0.774-2.002-2.006   c8.067-6.013,5.327-25.978,8.018-37.086c0-5.348,0-10.691,0-16.038c0.825-3.508-1.06-9.006,0-12.028c1-2.855,5.47-3.101,6.012-4.01   c0-0.669,0-1.338,0-2.002c-2.732-5.572,0.16-11.171,1.004-15.039c0-1.003,0-2.002,0-3.005c-1.497-6.501-9.373-19.606-7.016-29.068   c1.02-4.104,3.39-9.834,2.003-16.042c-0.367-1.644-1.995-6.833-1.003-10.022l2.007-2.002c0-2.341,0-4.683,0-7.019   c1.66-3.691,3.618-1.036,4.01-9.022c-1.004,0-2.007,0-3.006,0c-1.53-14.777-2.908-29.778-6.016-42.1   c-0.335-6.013-0.669-12.028-1.004-18.041c0.184-0.836,1.656-3.642,1.004-6.016c-0.592-2.137-3.397-5.16-4.01-7.015   c-3.491-10.625,3.19-31.659,1.004-41.101c-0.836-3.581-3.769-29.341-3.006-32.074c1.884-6.783,5.261-17.147,7.015-24.056   c0-4.679,0-9.356,0-14.031c0.249-1.043,1.778-6.966,2.002-8.022c1.545-7.166-8.92-14.785-5.008-28.065   c0.29-0.987,2.781-3.434,3.006-4.009c2.716-7.023-1.379-29.236-3.006-36.084c0-4.343,0-8.696,0-13.031   c-0.747-2.423-3.578-7.937-2.007-13.031l2.007-2.007c0-5.008,0-10.021,0-15.034c1.387-3.817,4.992-3.014,6.012-8.019   c-5.396-7.048-1.945-20.255,0-28.069c-0.334-5.343-0.668-10.69-1.003-16.037c0-3.675,0-7.35,0-11.025   c-1.762-5.037-7.142-9.373-8.019-16.037c-0.298-2.304,1.648-2.822,2.007-4.009c0-5.348,0-10.695,0-16.038   c0.134-0.518,1.873-5.499,2.002-6.016c1.571-6.155-0.893-15.421-0.999-20.047c-0.212-8.786,3.446-20.614,0.999-31.071   c-1.737-7.419,1.203-19.496-0.999-28.07c-3.667-14.275-2.558-16.62,0.999-30.072c0-3.675,0-7.35,0-11.024   c1.432-4.838,4.948-9.128,7.02-13.032c0.334-1.668,0.668-3.34,0.999-5.013c0.844-1.57,4.311-3.507,5.013-5.008   c0-2.007,0-4.014,0-6.016c0.938-2.859,3.834-6.306,5.012-9.022c5.628-12.954,7.35-29.411,18.044-37.087   c2.264-1.62,4.592-1.469,7.015-3.006c5.246-3.324,5.238-6.098,15.034-6.016c1.84-1.338,37.149-1.204,42.101,0   c3.679,0,7.354,0,11.028,0c6.224,1.489,15.895-0.225,22.049,0c6.024,0.229,15.988,1.46,22.053,0   c10.307-2.488,22.628,2.513,33.078,0c12.362,0.669,24.725,1.338,37.087,2.007c7.811-1.84,30.455-4.536,41.097-2.007   c10.845,2.582,50.331,2.606,61.147,0c11.16-2.688,37.108,0.571,46.114,2.007c0.995-0.335,1.999-0.669,3.001-1.004   c8.688-0.334,17.375-0.669,26.063-1.003c14.031,0.334,28.069,0.669,42.1,1.003c4.715-0.432,10.034-3.41,16.038-2.007   c4.952,1.163,13.377,3.536,20.05,2.007c0.889-0.208,3.59-1.545,6.013-1.003c11.492,2.566,39.597,1.265,51.122-1.003   c3.491-0.685,5.114,1.607,7.016,2.007c1.655-0.334,3.335-0.669,5.016-1.003c9.839-0.75,17.8,1.228,27.058-1.003   c12.358,0.335,24.725,0.669,37.075,1.003c5.695-0.334,11.373-0.668,17.049-1.003c3.239,0.726,7.864,3.21,13.036,2.007   c7.488-1.738,19.382,1.052,28.061-1.003c14.521-3.442,42.418-1.771,57.144-1.003c18.925,0.995,41.406-2.553,56.13,1.003   c5.229,1.265,14.372-0.114,18.043-1.003c5.939-1.427,16.658-0.057,21.046,1.003c7.498,1.811,15.745-1.244,21.062,0   c6.478,1.521,15.964-0.775,21.045-2.003c7.359,0,14.7,0,22.066,0c16.446,0.241,32.875-0.73,50.119,2.003   c4.69,0.743,13.877-1.961,18.036-1.003c8.174,1.889,23.468,0.58,30.075-1c7.27-1.737,16.504,0.975,21.055,2.003   c2.553,0.58,3.613-0.792,5.018-1.003c11.762-1.778,38.355-1.326,41.095,6.016c5.018,6.416,2.815,22.159,2.996,33.078   c0.203,11.501,5.978,28.27,3.009,40.098c-1.363,5.47-3.94,16.877-1.998,25.059c0.978,4.169,0.995,11.87,0,16.038   c-2.187,9.145,0,25.341,0,36.084c0,4.678,0,9.356,0,14.035c1.517,6.403-1.795,13.431,0,21.046   c0.546,2.325,2.177,9.189,1.011,13.035c-0.579,1.868-2.74,3.071-2.021,7.016c0.635,3.418-1.404,10.348,0,16.038   c1.288,5.094,2.021,11.559,2.021,19.043c-0.016,3.369-1.19,9.299-1.011,11.028c0.881,8.602,1.948,21.009,1.998,30.072   c-0.335,11.359-0.662,22.718-0.987,34.078c-1.387,5.832-3.052,20.731-1.011,28.065c2.234,8.031-0.114,19.157,1.998,28.069   c3.875,16.323,1.648,56.559-0.987,72.168c0.325,1.673,0.652,3.345,0.987,5.017c0,9.687,0,19.378,0,29.065   c0,28.387,1.026,54.817,1.004,83.197c-0.023,25.908-1.004,54.78-1.004,82.197c0,8.688,0,17.375,0,26.062   c-0.188,1.468-1.411,1.579-0.987,4.009c2.897,17.298,0.987,37.814,0.987,58.137c0,6.682,0,13.362,0,20.051   c1.788,7.488,1.803,22.554,0,30.067c0,11.012,0,22.05,0,33.078c0,41.577,0.008,83.507,0,127.294   c0,19.342-3.125,33.805,1.004,51.115c2.699,11.33-2.064,25.239,0,34.099c-0.336,6.346-0.668,12.691-1.004,19.029   c-0.008,12.995-1.949,29.734,1.004,42.101c1.827,7.668-2.204,16.901-1.004,23.068c3.434,17.653,1.004,41.618,1.004,61.132   c0,10.016,0,20.05,0,30.085c-1.729,7.275-3.035,42.499-1.004,51.112c3.695,15.599,1.184,38.594,1.004,56.124   c-0.336,5.023-0.668,10.033-1.004,15.049c3.051,13.043,1.004,32.215,1.004,47.109c0,30.174,2.496,66.873-3.002,92.218   c-3.026,0.751-3.916,2.179-6.021,1.005c-3.956-1.274-3.54-3.558-6.013-6.022c-10.025,14.651-39.398,7.856-57.133,12.025   c-6.013,0-12.033,0-18.044,0c-4.642,1.125-13.222-0.424-19.049,1.003c-6.295,1.542-14.403,2.326-23.052,2.008   c-4.748-0.172-5.979-3.076-11.027-2.008c-24.603,5.221-61.523,5.213-82.195,1.003c-5.995-1.222-11.729,3.672-17.038,3.004   c-0.043,0-4.929-1.976-5.01-1.999c-4.69,0.334-9.357,0.669-14.039,1.002l-2.007-2.007c-7.016,0.671-14.031,1.339-21.055,2.007   c-5.065-0.691-11.615-1.737-16.037-1.002c-0.89,1.101,0.106,0.098-1.004,1.002C842.281,1561.916,842.281,1562.922,842.281,1563.915   z"/>
    <path id="shape_db35a0f0-fdee-4aac-a57b-693cb204d340" opacity="1" fill="#7f7358" d="M163.374,94.84  c1.087,0.921,0.158,0.349,1.997,0.998C164.279,94.905,165.22,95.481,163.374,94.84z"/>
    <path id="shape_05ced5c5-1d50-469b-8441-537d27d57f73" opacity="1" fill="#7f7358" d="M92.575,1294.701c0,0.652,0,1.318,0,1.985c1.241,0.86,1.131,0.779,1.996,1.999c0.668,0,1.334,0,2.001,0c0-0.666,0-1.332,0-1.999  C95.239,1296.035,93.909,1295.354,92.575,1294.701z"/>
    <path id="shape_4f291b44-b29b-4386-b59a-250de070824e" opacity="1" fill="#7f7358" d="M899.171,323.484c17.292-0.025,35.909-0.437,52.369,0.502c6.6,0.081,13.199,0.167,19.798,0.252    c3.256,0,7.464-0.42,10.271,0.249c5.596,0,11.192,0,16.797,0c3.318,0.787,8.229,0.249,12.031,0.249    c6.892,0,14.73,0.078,21.535,0.502c0.487,0.779,0.733,0.86,0.749,2.255c-1.647,0.987-3.85,0.75-6.509,0.75    c-4.258,0-8.523,0-12.774,0c-0.701-0.49-2.626-0.249-3.761-0.249c-3.336,0-6.681,0-10.024,0    c-7.766-0.167-15.524-0.334-23.298-0.501c-4.266,0-8.524,0-12.79,0c-3.436-0.869-8.598-0.25-12.531-0.25c-1.239,0-2.496,0-3.745,0    c-3.661-1.178-9.982-0.501-14.534-0.501c-5.932,0-11.861,0-17.792,0c-3.522,0-7.667-0.159-10.774,0.249    c-2.651,0.343-7.529,0-11.021,0c-7.686,0-15.378,0-23.062,0c-22.132,0.086-44.269,0.167-66.393,0.252    c-192.791,0-383.827,1-577.629,1c-0.501-0.816-0.754-1.008-0.754-2.504c0.359-0.2,0.725-0.449,1.002-0.751    c114.921-0.167,229.887-0.334,344.815-0.501c36.333-0.085,72.673-0.167,109.014-0.249c11.617,0,23.216,0,34.833,0    c3.67,0,7.341,0,11.021,0c1.884,0,4.299,0.13,5.751-0.252c41.356-0.083,82.716-0.167,124.057-0.254c10.604,0,21.216,0,31.829,0    c2.758,0,5.516,0,8.271,0C896.943,323.732,898.543,323.92,899.171,323.484z"/>
    <path id="shape_107f6f87-76fa-4580-8dfa-5e0c1ce0e107" opacity="1" fill="#7f7358" d="M473.416,335.512c2.235,0.42,6.917,0,10.017,0c7.097,0,14.202,0,21.307,0c22.213,0,44.434,0,66.655,0    c8.857,0,17.708,0,26.558,0c1.224,0.228,4.365-0.184,5.27,0c2.399,0.502,5.938,0.253,8.777,0.253c5.5,0,11.021,0,16.528,0    c20.791,0,41.603,0,62.403,0c65.397,0,130.812,0,196.207,0c34.302,0,67.731,0,100.492,0c10.343,0,20.718,0,31.07,0    c4.037,0,10.987-0.702,14.039,0.497c1.647,3.818-4.716,2.758-8.272,2.758c-9.527,0-19.039,0-28.566,0c-36.446,0-76.5,0-115.025,0    c-103.981,0-208.006,0-311.987,0c-1.965-0.265-3.915-0.273-5.766,0c-0.335,0.053-3.01-0.249-3.01-0.249c-3.924,0-7.848,0-11.78,0    c-11.355,0-22.71,0-34.081,0c-37.41,0.167-74.836,0.334-112.262,0.501c-44.845,0.249-89.71,0.501-134.567,0.751    c-10.434,0-21.458,0.245-30.823,0.252c-3.507,0-10.4,1.285-10.527-2.255c0.237-0.277,0.094-0.037,0.253-0.502    c0.249-0.085,0.501-0.167,0.75-0.253c1.412-1.003,9.096,0.245,11.526-0.249c3.316-0.677,9.968-0.249,14.537-0.249    c9.523,0,19.043,0,28.566,0c21.303-0.171,42.609-0.335,63.901-0.506c7.603,0,15.205,0,22.804,0c3.817,0,9.441,0.253,12.027-0.248    c3.345,0,6.686,0,10.026,0c8.104,0,16.204,0,24.309,0c3.76,0,9.503,0.326,12.032-0.249c11.437,0,22.881,0,34.326,0    c2.921,0,5.849,0,8.778,0C470.984,335.765,472.746,335.973,473.416,335.512z"/>
    <path id="shape_c70076bf-e029-4219-90d8-20591efa4fea" opacity="1" fill="#7f7358" d="M487.69,346.04c0.832,0.241,2.105,0,3.508,0c3.679,0,7.358,0,11.029,0c11.191,0,22.383,0,33.575,0    c36.592,0,73.18,0,109.765,0c69.819,0,139.678,0,209.497,0c21.208,0,42.436,0,63.65,0c6.348,0,12.693,0,19.04,0    c3.352,0,7.716-0.286,10.271,0.501c8.263,0,16.535,0,24.823,0c12.349,0,24.717,0,37.075,0c7.529,0,15.678-0.187,22.798,0.249    c0.238,0.445,0.327,0.412,0.508,1.004c0.586,0.758,0.015,1.513-0.77,1.754c-0.765,0.542-3.017,0.249-4.24,0.249    c-3.606,0-7.187,0-10.784,0c-13.696,0-27.408,0-41.098,0c-6.851,0-13.704,0-20.555,0c-3.41,0-7.913,0.326-10.523-0.498    c-41.585,0-83.205,0-124.79,0c-89.797,0-179.592,0-269.396,0c-41.505,0.081-83.026,0.163-124.546,0.249    c-4.087,0.991-12,0.249-16.783,0.249c-11.445,0-22.89,0-34.331,0c-4.678,0-9.357,0-14.034,0    c-3.459,0.803-10.543,0.252-15.288,0.252c-10.355,0-20.715,0-31.075,0c-21.299,0.082-42.605,0.167-63.901,0.249    c-8.218,0-17.84,0.233-24.557,0c-0.478-0.775-0.734-0.86-0.75-2.255c0.685-0.417,0.624-0.661,1.754-0.75    c0.774-0.551,3.022-0.253,4.258-0.253c3.593,0,7.187,0,10.776,0c13.867,0,27.734,0,41.598,0c49.36-0.25,98.736-0.498,148.1-0.751    c13.533,0,27.066,0,40.599,0c3.507,0,7.015,0,10.523,0C484.672,346.288,486.908,346.582,487.69,346.04z"/>
    <path id="shape_0f692567-1db9-4016-83db-18acdfa23ee6" opacity="1" fill="#7f7358" d="M457.867,358.315c0.832,0.208,2.961,0,4.519,0c4.34,0,8.679,0,13.027,0c12.946,0,25.9,0,38.837,0    c41.766,0,83.539,0,125.304,0c51.783,0,103.583,0,155.365,0c16.291,0,32.581,0,48.88,0c6.722,0,18.89-0.758,23.296,0.254    c20.214,0.081,40.429,0.167,60.649,0.248c3.763,0,7.514,0,11.273,0c1.958,0,4.472-0.143,6.013,0.253    c1.011-0.085,2.007-0.167,3.01-0.253c0.497,0.143,1.15,0.853,1.508,1.004c28.227-0.334,56.468-0.67,84.707-1.004    c0.497,0.82,0.751,1.012,0.751,2.504c-0.358,0.205-0.734,0.453-1.003,0.755c-28.901,0.334-57.803,0.668-86.705,1.003    c-5.604-1.721-15.042-1.003-22.807-1.003c-13.771-0.086-27.563-0.167-41.342-0.25c-6.176,0-12.358,0-18.549,0    c-1.912-0.477-4.937-0.252-7.262-0.252c-4.927,0-9.862,0-14.789,0c-15.621,0-31.242,0-46.864,0c-50.021,0-100.065,0-150.104,0    c-40.844,0-81.687,0-122.539,0c-12.945,0-25.891,0-38.845,0c-4.339,0-8.68,0-13.028,0c-1.509,0-4.038-0.159-4.764,0    c-1.859,0.4-4.739,0.252-7.015,0.252c-4.087,0-8.182,0-12.276,0c-12.954,0-25.908,0-38.845,0    c-38.748,0.082-77.515,0.163-116.275,0.25c-16.037,0-32.074,0-48.111,0c-3.426,0-6.853,0-10.274,0c-1.244,0-3.553,0.232-4.01,0    c-1.705,0.134-4.095,0.375-5.515-0.25c-0.081-0.586-0.167-1.17-0.248-1.757c0.473-0.314,0.407-0.51,0.999-0.75    c1.554-1.195,10.645-0.502,13.533-0.502c12.448,0,24.892,0,37.34,0c44.596-0.082,89.208-0.167,133.817-0.248    c11.779,0,23.558,0,35.337,0c3.083,0,6.175,0,9.267,0C455.249,358.569,457.166,358.801,457.867,358.315z"/>
    <path id="shape_50d62069-a140-4d6b-8fdc-75902a468e13" opacity="1" fill="#7f7358" d="M933.75,368.59c2.43,0.494,7.463,0,10.774,0c1.005,0,2.008,0,3.003,0c0.211,0.078,0.792,0.677,0.996,0.755    c6.183-0.086,12.365-0.167,18.557-0.253c22.792-0.167,45.609-0.334,68.417-0.502c0.472,0.779,0.733,0.861,0.733,2.255    c-0.67,0.42-0.619,0.662-1.746,0.755c-0.701,0.498-2.626,0.249-3.751,0.249c-3.272,0-6.519,0-9.791,0    c-12.349,0.086-24.717,0.167-37.075,0.249c-1.834,0.461-4.754,0.253-7.014,0.253c-6.265,0-12.531,0-18.795,0    c-2.007,0.175-8.908,0.876-11.028,0.249c-0.287-0.09-1.003-0.665-1.249-0.75c-2.431,0-4.846,0-7.275,0    c-2.219,0.525-7.547,0.249-11.013,0.249c-7.268,0-14.537,0-21.797,0c-21.551,0.086-43.104,0.171-64.656,0.253    c-98.229,0.334-196.476,0.668-294.69,1.003c-46.685,0.082-93.394,0.163-140.082,0.249c-3.691,0.925-10.025,0.249-14.283,0.249    c-9.773,0-19.549,0-29.322,0c-29.476,0.085-58.969,0.171-88.458,0.253c-11.526,0.082-23.053,0.167-34.583,0.252    c-4.728,0-11.836,0.84-15.283-0.754c-0.171-1.444-0.437-3.092,1-3.508c1.06-0.31,1.272,0.779,1.753,1.003c1.338,0,2.676,0,4.009,0    c8.773,0,17.542,0,26.315,0c3.214-0.668,9.805-0.253,14.284-0.253c9.52,0,19.043,0,28.567,0    c28.726-0.081,57.469-0.167,86.203-0.248c133.409,0,267.901-1.256,402.201-1.256c35.412-0.164,70.84-0.331,106.259-0.498    c9.52,0,19.039,0,28.566,0C925.454,368.843,932.673,369.361,933.75,368.59z"/>
    <path id="shape_72e791d5-a742-40b7-9a80-2ddceb1b1026" opacity="1" fill="#7f7358" d="M922.225,445.522c13.051,0.897,28.206,0.501,42.098,0.501c22.973,0,45.942,0,68.914,0    c0.457,0.738,0.841,0.869,1.004,2.007c-0.653,0.608-0.473,0.901-1.763,0.999c-0.782,0.547-3.026,0.253-4.258,0.253    c-3.507,0-7.023,0-10.53,0c-13.615,0-27.23,0-40.844,0c-51.449-0.082-102.915-0.167-154.354-0.253c-74.428,0-148.87,0-223.282,0    c-2.839,0.522-10.246,0.18-13.532,0c-0.434-0.016-1.698,0.253-2.506,0.253c-4.093,0-8.188,0-12.276,0c-12.529,0-25.059,0-37.588,0    c-7.684,0-15.368,0-23.061,0c-2.585,0-5.18,0-7.765,0c-0.498-0.082-1.003-0.167-1.509-0.253c-2.219,0.286-4.927,0.478-7.016,0    c-0.636-0.138-1.509,0.22-1.746,0.253c-0.53,0.066-3.148-0.232-3.263-0.253c-17.041,0-34.081,0-51.122,0    c-46.933,0-93.895,0-140.832,0c-14.953,0-29.905,0-44.857,0c-4.846,0-9.687,0-14.532,0c-2.631,0-5.792,0.18-8.019-0.249    c-0.367-0.641-0.62-0.787-0.754-1.754c0.31-0.265,0.404-0.51,0.754-0.75c1.277-1.053,8.316-0.502,10.776-0.502    c9.764,0,19.545,0,29.317,0c38.331,0,76.69,0,115.022,0c38.335,0,76.691,0,115.022,0c9.193,0,18.379,0,27.563,0    c4.527,0,11.257,0.351,13.533,0c0.53-0.086,1.183,0.302,2.007,0.249c2.031-0.134,4.168,0.143,5.767-0.249    c1.028-0.261,2.938,0.073,3.247,0c75.341,0,150.706,0,226.039,0c35.42,0,70.83,0,106.267,0c9.259,0,18.542,0,27.8,0    C913.951,445.775,921.097,446.3,922.225,445.522z"/>
    <path id="shape_5403fbc7-6d09-4165-82d9-9bdbcddaeaae" opacity="1" fill="#7f7358" d="M920.216,456.297c3.623-0.008,6.665,0.196,9.275,1.003c7.839,0,15.703,0,23.55,0    c18.437,0,37.354-0.249,55.372-0.249c6.78,0,13.542,0,20.312,0c3.085,0,6.6-0.836,6.772,2.255    c-0.229,0.273-0.099,0.041-0.262,0.498c-0.238,0.086-0.498,0.171-0.734,0.253c-0.668,0.465-2.447,0.249-3.524,0.249    c-3.082,0-6.183,0-9.258,0c-10.532,0.085-21.062,0.167-31.577,0.253c-15.873,0-31.748,0-47.616,0c-4.926,0-9.853,0-14.78,0    c-1.925,0.082-3.857,0.167-5.765,0.249c-0.825-0.216-1.568-0.824-2.009-1.003c-5.751,0-11.518,0-17.276,0    c-11.109,0-22.221,0-33.33,0c-57.379,0.171-114.783,0.334-172.154,0.502c-18.215,0-36.421,0-54.637,0c-5.678,0-11.348,0-17.033,0    c-2.707,0-6.249-0.331-8.524,0.253c-20.883,0-41.766,0-62.647,0c-46.775-0.086-93.565-0.167-140.331-0.253    c-47.438-0.082-94.894-0.167-142.337-0.249c-11.11,0-22.221,0-33.331,0c-2.186,0-9.662,0.449-10.274-0.75c0-0.501,0-1.003,0-1.504    c0.232-0.274,0.094-0.042,0.249-0.502c3.116-0.853,8.112-0.501,12.033-0.501c7.431,0,14.867,0,22.302,0    c24.382,0,48.781,0,73.171,0c0.82,0.46,6.342,0.253,9.524,0.253c7.77,0,15.535,0,23.305,0c30.574,0,61.143,0,91.717,0    c1.876,0.322,7.725,0.249,11.526,0.249c7.603,0,15.206,0,22.8,0c23.477,0,46.954,0,70.422,0    c73.082-0.167,146.187-0.334,219.269-0.501c33.078-0.082,66.156-0.167,99.235-0.248c8.931,0,17.871,0,26.812,0    C912.369,456.551,919.142,457.052,920.216,456.297z"/>
    <path id="shape_858ee76b-5380-477a-a56f-71c977a437bf" opacity="1" fill="#7f7358" d="M860.082,467.327c1.239,0.432,2.268,0.122,3.001,0c0.686-0.11,1.044,0.334,1.501,0.249    c2.138-0.351,5.236-0.249,7.765-0.249c9.365,0,18.714,0,28.069,0c31.153,0.081,62.314,0.167,93.476,0.249    c10.311,0,20.883,0.249,30.819,0.249c2.153,0,9.428-0.448,10.017,0.754c0,0.502,0,1.004,0,1.505    c-2.676,1.611-8.549,0.999-12.774,0.999c-9.691-0.081-19.382-0.167-29.064-0.248c-37.418-0.086-74.852-0.167-112.27-0.253    c-0.832,0.118-2.432,0.126-2.993,0.253c-16.535,0-33.094,0-49.622,0c-35.401,0-70.837,0-106.249,0    c-102.072,0.081-204.162,0.167-306.226,0.248c-46.852,0-93.728,0-140.583,0c-11.11,0-22.216,0-33.327,0    c-2.615,0-10.042,0.637-10.776-0.999c-0.453-0.587-0.151-1.346,0-2.007c5.51-1.305,13.366-0.31,18.794-0.253    c2.917,0.037,6.624,0.094,9.021-0.249c1.261-0.184,2.737,0.31,3.757,0.249c3.552-0.216,10.653,0,15.789,0    c33.07,0,66.156,0,99.234,0c105.911-0.082,211.851-0.163,317.75-0.249c40.435,0,80.871,0,121.299,0c10.621,0,21.216,0,31.829,0    c2.839,0,5.686,0,8.524,0C857.847,467.575,859.444,467.759,860.082,467.327z"/>
    <path id="shape_f89343ce-d4d5-4fbd-a086-8825633c7c04" opacity="1" fill="#7f7358" d="M756.58,478.103c1.633,0.559,3.548-0.18,5.262,0c3.664,0.367,9.52,0,14.537,0c15.278,0,30.564,0,45.851,0    c31.651,0,63.318,0,94.97,0c4.723,1.403,12.595,0.75,18.557,0.75c12.016,0,24.057,0,36.08,0c16.878,0,33.738,0,50.625,0    c3.509,0,7.016,0,10.522,0c1.265,0,3.425-0.301,4.258,0.249c0.67,0.445,0.734,1.105,0.767,2.255    c-0.375,0.205-0.733,0.453-1.011,0.755c-40.673,0-81.361,0-122.034,0c-3.843-1.571-12.318-0.755-17.555-0.755    c-12.684,0-25.385,0-38.086,0c-18.379,0-36.75,0-55.127,0c-8.892,0-22.467-0.644-26.569,0.253c-58.472,0-116.942,0-175.415,0    c-123.363,0.167-246.763,0.334-370.13,0.502c-0.51-0.804-0.901-0.922-1.003-2.255c0.717-0.677,0.611-1.146,2.006-1.256    c1.004,0.693,6.746,0.252,8.521,0.252c7.684,0,15.368,0,23.053,0c29.068,0,58.137,0,87.205,0c5.616,0,13.933,0.477,17.543-0.252    c93.128-0.082,186.285-0.163,279.417-0.25c26.479,0,52.957,0,79.436,0c6.844,0,13.704,0,20.558,0    C750.463,478.351,755.666,478.75,756.58,478.103z"/>
    <path id="shape_78e87b5e-407a-4731-8790-a408edc9dc65" opacity="1" fill="#7f7358" d="M923.479,489.376c2.758,1.003,10.573,1.321,14.04,0.501c4.258,0,8.523,0,12.782,0    c20.443,0,41.318-0.249,61.391-0.249c5.762,0,11.528,0,17.279,0c2.821,0,6.485-0.31,8.532,0.502    c1.655,3.817-4.716,2.761-8.255,2.753c-9.283,0.085-18.56,0.171-27.833,0.252c-26.055,0.083-52.109,0.167-78.173,0.253    c-3.433-0.971-9.021-0.506-13.287-0.506c-8.598,0-17.212,0-25.81,0c-52.206,0.085-104.413,0.171-156.622,0.252    c-25.728,0-51.457,0-77.185,0c-3.605,0.519-12.513,0.253-19.299,0.253c-11.86,0-23.724,0-35.584,0c-9.527,0-19.039,0-28.566,0    c-4.854,0-10.629,0.473-15.034-0.253c-0.864-0.143-3.483,0.245-4.013,0.253c-3.248,0.016-7.603-0.253-11.274-0.253    c-10.523,0-21.062,0-31.577,0c-33.159,0-66.327,0-99.487,0c-44.845-0.081-89.71-0.167-134.567-0.252c-10.441,0-20.883,0-31.324,0    c-2.614,0-8.896,0.795-9.772-1c0-0.501,0-1.003,0-1.504c2.508-1.477,8.504-0.751,12.28-0.751c9.94,0,19.879,0,29.819,0    c36.671,0,73.338,0,110.01,0c0.612,0.457,6.106,0.249,9.022,0.249c7.851,0,15.703,0,23.554,0c30.492,0,60.992,0,91.468,0    c29.652,0.085,59.32,0.167,88.956,0.253c9.601,0,19.219,0,28.812,0c5.098,0,12.708,0.167,14.536-0.253    c57.885,0,115.776,0,173.661,0c27.146-0.082,54.296-0.167,81.443-0.249c7.349,0,14.707,0,22.065,0    C917.133,489.628,922.542,490.044,923.479,489.376z"/>
    <path id="shape_12737cdf-d11b-47fa-afcc-a9a9f3ec7b9f" opacity="1" fill="#7f7358" d="M914.205,559.794c4.192-0.008,9.771-0.453,12.766,0.751c9.872,0,19.725,0,29.579,0    c7.407,0,17.668-0.608,21.797,0.252c0.487,0.102,0.913-0.233,1.003-0.252c0.073-0.008,3.524,0.208,3.761,0.252    c3.669,0,7.349,0,11.027,0c8.42,0,16.871,0,25.296,0c4.283,0,9.454-0.469,13.288,0.249c0.081,0.252,0.173,0.501,0.246,0.75    c0.782,1.02-0.302,1.975-1.501,2.007c-0.695,0.493-2.636,0.253-3.761,0.253c-3.255,0-6.518,0-9.772,0c-12.277,0-24.562,0-36.84,0    c-12.439,0-24.887,0-37.334,0c-0.785-0.151-3.045-0.253-3.763-0.253c-0.358,0-0.399,0.359-1.001,0.253    c-1.633-0.311-4.627-0.253-7.27-0.253c-2.169,0-4.348,0-6.501,0c-0.229-0.074-0.8-0.677-1.011-0.75    c-3.265,0.082-6.511,0.167-9.773,0.249c-6.437,0-12.873,0-19.301,0c-14.699,0-29.398,0-44.099,0    c-2.283,0.469-7.521,0.248-11.028,0.248c-7.178,0-14.356,0-21.543,0c-21.136,0.086-42.28,0.172-63.408,0.253    c-64.067,0.167-128.15,0.334-192.194,0.501c-57.46,0.167-114.953,0.335-172.413,0.501c-15.536,0-31.075,0-46.611,0    c-4.176,0-8.353,0-12.529,0c-1.284,0-4.352,0.249-4.76,0c-5.881,0.869-13.215,0.249-19.549,0.249c-12.362,0-24.725,0-37.087,0    c-8.855,0-17.706,0-26.561,0c-4.429,0-9.801,0.502-13.782-0.249c-0.244-0.452-0.326-0.408-0.501-1.003    c-0.66-0.869,0.176-1.771,1-2.007c0.787-0.465,8.455,0,10.527,0c9.605,0,19.21,0,28.816,0    c34.575-0.082,69.166-0.163,103.749-0.249c91.154,0,180.606-0.75,271.643-0.75c29.31-0.086,58.651-0.167,87.953-0.252    c9.771,0,19.545,0,29.324,0c4.447,0,10.321,0.737,14.285-0.25c33.657-0.082,67.322-0.167,100.987-0.253c8.923,0,17.881,0,26.812,0    C906.153,560.042,913.086,560.564,914.205,559.794z"/>
    <path id="shape_b6bb0fd0-7288-4033-a507-b6aaf012b921" opacity="1" fill="#7f7358" d="M228.83,572.324c267.687,0,538.373-0.102,803.648,0c0.457,0.734,0.849,0.869,0.995,2.002    c-0.652,0.612-0.465,0.906-1.746,1.004c-0.79,0.546-3.018,0.253-4.266,0.253c-3.508,0-7.017,0-10.523,0    c-13.28,0.082-26.567,0.167-39.848,0.249c-49.229,0-98.354-0.249-148.35-0.249c-136.57,0-273.165,0-409.726,0    c-43.426,0-86.872,0-130.31,0c-13.749,0-28.273-0.535-41.598,0.249c-2.562,0.15-5.294-0.433-7.517,0    c-2.606,0.518-10.005,0.175-12.277-0.249c-0.085-0.253-0.167-0.502-0.253-0.75c-0.416-0.563-0.143-1.097,0-1.754    C227.521,572.891,228.446,572.641,228.83,572.324z"/>
    <path id="shape_3f2f52d0-b05f-4863-97b8-12084c1597ae" opacity="1" fill="#7f7358" d="M530.549,582.598c128.714,0.253,257.454,0.502,386.16,0.75c30.321,0.086,60.642,0.167,90.971,0.254    c7.097,0,14.202,0,21.291,0c3.131,0,6.867-0.914,7.031,2.255c-0.236,0.273-0.099,0.041-0.254,0.501    c-0.236,0.082-0.513,0.164-0.751,0.249c-0.731,0.518-2.829,0.249-4.003,0.249c-3.336,0-6.69,0-10.034,0    c-12.768,0-25.558,0-38.34,0c-45.29,0-95.864-0.498-142.835-0.498c-106.104,0-211.649-0.252-316.749-0.252    c-29.065,0.167-58.137,0.334-87.209,0.501c-8.182,0-16.364,0-24.554,0c-1.958,0-8.513,0.42-9.275,0    c-9.712,0.779-20.671,0.249-30.823,0.249c-4.176,0-8.354,0-12.53,0c-2.496,0.628-6.33,0.253-9.271,0.253c-5.93,0-11.86,0-17.791,0    c-18.211,0.082-36.422,0.167-54.629,0.252c-12.171,0-24.827,0.249-37.34,0.249c-3.675,0-7.35,0-11.025,0    c-1.084,0.008-2.312,0.608-3.005,0.502c-0.094-0.009-0.836-0.437-1.004-0.502c-0.358-0.645-0.62-0.787-0.75-1.754    c0.717-0.677,0.607-1.138,2.002-1.252c0.885-0.636,3.634-0.252,5.013-0.252c4.258,0,8.521,0,12.778,0    c16.205-0.082,32.414-0.168,48.618-0.249c57.961-0.334,115.94-0.668,173.914-1.003c15.532-0.086,31.071-0.167,46.611-0.249    c4.258,0,8.516,0,12.774,0C526.919,582.851,529.644,583.226,530.549,582.598z"/>
    <path id="shape_20942eaa-d087-4ec0-ade9-4d2dc59cf44a" opacity="1" fill="#7f7358" d="M800.436,593.875c9.967-0.017,20.702,0.249,31.07,0.249c4.372,0,11.853-0.693,15.539,0.253    c43.602,0.081,87.202,0.167,130.812,0.249c14.275,0.085,28.566,0.167,42.85,0.249c3.337,0,6.683,0,10.027,0    c1.727,0,3.196-0.196,3.751,1.003c0.426,0.563,0.146,1.097,0,1.754c-4.054,0.946-10.165,0.501-15.041,0.501    c-6.185,0-13.566,0.723-19.293-0.248c-0.172,0.081-0.335,0.167-0.515,0.248c-4.502-0.966-10.782-0.248-15.784-0.248    c-11.444,0-22.889,0-34.333,0c-59.043-0.167-118.118-0.335-177.162-0.501c-98.393,0.167-196.811,0.334-295.205,0.501    c-2.562,0.644-6.51,0.248-9.52,0.248c-6.265,0-12.53,0-18.795,0c-18.542,0.086-37.091,0.168-55.633,0.253    c-56.024,0.518-112.273,0.999-168.648,0.999c-0.612-0.865-1.815-2.394,0-3.005c1.007-0.71,6.966-0.25,8.769-0.25    c7.852,0,15.703,0,23.554,0c19.456-0.008,39.706-0.509,58.639-0.501c10.026,0,20.051,0,30.072,0    c2.072-0.502,5.282-0.249,7.77-0.249c5.094,0,10.188,0,15.287,0c14.442-0.086,28.901-0.171,43.352-0.253c6.265,0,12.53,0,18.794,0    c1.868-0.424,6.453-0.249,9.52-0.249c6.094,0,12.204,0,18.297,0c18.125-0.086,36.251-0.167,54.376-0.253c8.94,0,17.873,0,26.813,0    c2.415-0.453,9.993-0.249,15.042-0.249c9.601,0,19.203,0,28.812,0c30.012,0,63.023-0.253,90.979-0.253c30.803,0,61.637,0,92.456,0    c8.107,0,16.2,0,24.308,0C793.255,594.124,799.399,594.593,800.436,593.875z"/>
    <path id="shape_91ce2fed-cb59-4221-a304-b19b92498aed" opacity="1" fill="#7f7358" d="M913.446,604.9c5.416-0.008,12.595-0.583,16.797,0.75c20.294,0.085,40.598,0.171,60.894,0.253    c8.1,0,16.2,0,24.308,0c3.867,0,8.867-0.551,12.277,0.252c2.79,0.657,6.501-0.228,9.022,0.249    c0.302,0.669,0.467,0.942,0.497,2.002c-2.179,1.313-10.7,1.615-14.031,0.755c-9.771,0-19.545,0-29.316,0    c-22.464-0.086-44.946-0.167-67.411-0.253c-4.062-1.668-11.748-0.502-17.041-0.502c-12.767,0-25.557,0-38.34,0    c-2.79,0.693-7.039,0.253-10.271,0.253c-11.282,0-22.563,0-33.838,0c-3.083,0.628-9.437,0.249-13.785,0.249    c-9.086,0-18.207,0-27.31,0c-17.93,0-42.989,0.253-64.402,0.253c-51.277,0.082-102.578,0.167-153.864,0.249    c-17.62,0-35.247,0-52.876,0c-5.84,0-11.697,0-17.538,0c-2.382,0-5.955-0.241-7.521,0c-2.766,0.432-6.591,0.252-9.772,0.252    c-5.677,0-11.355,0-17.041,0c-16.404,0-33.363,0.249-49.364,0.249c-48.594,0-98.21,0.502-144.846,0.502    c-11.694,0-23.387,0-35.081,0c-2.623,0-10.001,0.534-10.775-1.003c0-0.583,0-1.167,0-1.754c2.202-1.22,8.234-0.502,12.027-0.502    c9.772,0,19.545,0,29.317,0c34.808,0,69.827-0.501,104.247-0.501c89.702-0.249,179.433-0.498,269.139-0.75    c30.067,0,60.145,0,90.211,0c9.438,0,18.885,0,28.333,0c4.421,0,11.606,0.277,14.029-0.253c11.698,0,23.387,0,35.077,0    c23.394-0.163,46.782-0.334,70.159-0.498c9.275,0,18.559,0,27.817,0C905.191,605.153,912.337,605.687,913.446,604.9z"/>
    <path id="shape_4d193d81-5f55-488b-bf69-bdc15982fad7" opacity="1" fill="#7f7358" d="M902.678,686.343c30.452-0.016,62.274,0,91.216,0c9.348,0,18.697,0,28.062,0    c3.931,0,9.74-0.71,12.774,0.501c1.811,4.144-6.73,2.757-10.522,2.757c-12.195,0-24.392,0-36.587,0    c-32.408,0.429-69.459,0.25-103.492,0.25c-15.71,0-31.421,0-47.123,0c-3.369,0.844-8.436,0.252-12.279,0.252    c-8.188,0-16.378,0-24.56,0c-3.509,0-7.016,0-10.524,0c-3.083,0.767-7.74,0.249-11.282,0.249c-7.512,0-15.04,0-22.546,0    c-22.645,0.167-45.272,0.334-67.917,0.501c-14.194,0-28.396,0-42.605,0c-2.717,0.677-6.861,0.253-10.027,0.253    c-6.681,0-13.361,0-20.032,0c-20.215,0.081-40.438,0.163-60.651,0.248c-8.182,0-16.363,0-24.553,0    c-2.203,0.518-7.978,0.249-12.024,0.249c-7.945,0-15.874,0-23.811,0c-25.475,0-50.959,0-76.431,0    c-28.126,0-57.178,0.252-85.705,0.252c-9.185,0-18.374,0-27.563,0c-3.732,0-10.005-0.595-12.779,0    c-2.549,0.543-6.301,0.249-9.274,0.249c-5.755,0-11.527,0-17.29,0c-8.688,0-17.375,0-26.062,0c-3.916,0-9.189,0.535-12.277,0    c-0.595-0.926-1.362-2.463,0.249-3.006c1.13-0.799,8.72-0.252,10.776-0.252c9.939,0,19.879,0,29.819,0c5.767,0,11.53,0,17.293,0    c1.093-0.241,5.555-0.25,9.022-0.25c6.432,0,12.864,0,19.292,0c20.042,0,40.098,0,60.144,0    c59.802-0.167,119.627-0.334,179.429-0.501c19.96-0.082,39.929-0.167,59.882-0.249c6.688,0,13.369,0,20.042,0    c2.813,0,7.326,0.416,9.275,0c3.835-0.828,9.235-0.249,13.532-0.249c8.852,0,17.711,0,26.562,0    c25.728-0.171,51.455-0.334,77.183-0.506c34.988-0.163,70.007-0.334,104.994-0.497c9.363,0,18.712,0,28.062,0    C894.415,686.596,901.553,687.13,902.678,686.343z"/>
    <path id="shape_ddde2550-987c-45b2-b1fd-e369861b5652" opacity="1" fill="#7f7358" d="M912.697,697.371c3.334,0,6.688,0,10.032,0c0.963,0.273,1.714,1.469,2.994,1.252    c2.912-0.493,6.941-0.253,10.271-0.253c6.346,0,12.699,0,19.037,0c10.36,0,21.357-0.249,32.075-0.249c4.568,0,7.423-0.245,11.29,0    c0.229,0.44,0.31,0.408,0.497,1.003c0.589,0.759,0.025,1.509-0.749,1.754c-0.546,0.383-1.412,0.041-2.26,0.249    c-3.459,0.853-8.598,0.253-12.531,0.253c-12.952,0.082-25.899,0.167-38.837,0.249c-5.358,0-10.693,0-16.038,0    c-1.719,0.082-5.089,0.804-6.762,0c-0.178-0.249-0.341-0.502-0.514-0.75c-40.427,0-80.863,0-121.291,0    c-131.456,0.583-262.968,1.167-394.439,1.754c-40.828,0-81.867,0.502-123.041,0.502c-12.452,0-25.516,0.248-38.34,0.248    c-5.763,0-12.753,0.751-18.043-0.248c-0.208-0.779-0.408-0.738-0.502-1.754c0.31-0.269,0.396-0.51,0.755-0.755    c1.277-1.053,8.328-0.498,10.775-0.498c9.94,0,19.879,0,29.819,0c37.638,0,75.561-0.505,113.517-0.505    c61.809-0.331,123.641-0.665,185.441-1c20.468-0.085,40.924-0.167,61.401-0.249c6.688,0,13.369,0,20.042,0    c3.164,0,7.311,0.432,10.025-0.253c9.268,0,18.541,0,27.816,0c22.122-0.082,44.27-0.167,66.401-0.253c7.274,0,14.536,0,21.796,0    c3.394,0,7.847,0.493,10.774-0.249c31.824,0,63.653,0,95.482,0c8.027,0,16.038,0,24.049,0    C905.517,697.62,911.669,698.089,912.697,697.371z"/>
    <path id="shape_93863e82-936d-4302-9612-ea36f6cd6398" opacity="1" fill="#7f7358" d="M1007.418,697.869c2.971-0.024,9.332-0.139,12.025,0.501c3.116,0.747,7.21-0.424,10.025,0.253    c2.227,0.534,5.154-0.853,6.028,1c0.406,0.562,0.13,1.097,0,1.758c-2.537,0.607-5.825,0.257-8.786,0.249    c-2.569,0-5.873,0.261-8.019-0.249c-1.338,0-2.677,0-4.013,0c-2.742,0-5.345-0.078-7.506-0.502    c-0.246-0.445-0.325-0.408-0.505-1.003C1005.999,698.95,1006.945,698.399,1007.418,697.869z"/>
    <path id="shape_57b68b04-69c9-4dae-81fa-9bc8e555a775" opacity="1" fill="#7f7358" d="M925.975,708.645c6.478,0.678,14.146,0.253,21.056,0.253c3.72,0,8.524,0.518,11.779-0.253    c0.635-0.146,0.922,0.245,1.247,0.253c3.915,0.049,8.958-0.253,13.29-0.253c10.677,0,21.388,0,32.073,0c6.265,0,12.53,0,18.795,0    c3.174,0,7.016-0.265,9.771,0.253c0.302,0.669,0.465,0.942,0.515,2.003c-3.255,1.938-12.711,1.003-17.8,1.003    c-14.618,0-29.234,0-43.853,0c-50.952,0.334-101.919,0.668-152.869,1.003c-134.546,0.502-269.151,1.003-403.706,1.505    c-42.341,0.163-84.698,0.334-127.051,0.498c-13.362,0.085-26.728,0.167-40.094,0.253c-5.905,0-14.267,0.741-19.545-0.253    c-0.211-0.359-0.452-0.726-0.754-1c0.669-3.051,5.992-2.006,9.524-2.006c9.772,0,19.545,0,29.317,0    c27.817-0.167,55.642-0.334,83.451-0.502c13.279,0,26.564,0,39.844,0c3.006-0.75,7.558-0.249,11.024-0.249    c7.269,0,14.537,0,21.805,0c21.625-0.085,43.267-0.167,64.908-0.249c64.973-0.252,129.978-0.506,194.951-0.754    c22.303-0.086,44.604-0.167,66.906-0.249c7.775,0,15.548,0,23.315,0c4.11,0,10.05,0.147,12.276-0.252c11.688,0,23.387,0,35.085,0    c22.302,0,45.239-0.482,67.395-0.502c9.104,0,18.224,0,27.327,0C918.38,709.146,924.646,709.673,925.975,708.645z"/>
    <path id="shape_98722577-e7d7-4f11-821c-20e48d9a6caf" opacity="1" fill="#7f7358" d="M921.473,720.424c1.062,0.208,3.972-0.425,5.751,0c1.999,0.477,5.106,0.252,7.521,0.252    c4.927,0,9.862,0,14.789,0c19.201,0,38.429,0,57.63,0c6.846,0,13.715,0,20.55,0c2.25,0,6.036-0.58,6.771,1    c0.261,0.351,0.245,0.828,0.245,1.504c-0.358,0.2-0.733,0.449-1.003,0.751c-30.069,0-60.144,0-90.213,0    c-3.197,0.408-6.166-0.359-9.267,0.252c-2.26,0-4.52,0-6.77,0c-0.457-0.118-1.338-0.62-2.008-0.501    c-4.553,0.775-10.53,0.249-15.532,0.249c-9.771,0-19.545,0-29.316,0c-37.834,0.252-75.684,0.502-113.525,0.751    c-19.375,0-38.757,0-58.139,0c-2.674,0.444-8.352,0.252-12.268,0.252c-7.603,0-15.205,0-22.807,0    c-22.206,0.082-44.442,0.167-66.647,0.253c-10.692,0-21.388,0-32.083,0c-2.984,0.632-9.282,0.249-13.523,0.249    c-8.859,0-17.71,0-26.561,0c-26.071,0.082-52.125,0.167-78.188,0.249c-77.425,0.334-154.875,0.669-232.3,1.003    c-0.244-0.44-0.326-0.408-0.501-1.003c-2.112-3.206,6.106-2.505,8.521-2.505c10.107,0,20.213,0,30.32,0    c40.012-0.167,80.032-0.334,120.035-0.501c131.558,0,263.094-1.513,392.927-1.505c35.679,0,71.156-0.498,106.503-0.498    c9.527,0,19.047,0,28.566,0C912.989,720.677,920.348,721.219,921.473,720.424z"/>
    <path id="shape_e9660afe-1de0-4ec9-abf8-8c19dd4feb7b" opacity="1" fill="#7f7358" d="M927.485,730.698c12.407,0.754,25.997,0.249,38.838,0.249c23.214,0,46.447,0,69.671,0    c0.252,0.437,0.628,0.931,1.003,1.256c-0.114,0.526-0.213,0.934-0.515,1.252c-1.452,1.403-9.738,0.751-12.78,0.751    c-12.188,0-24.392,0-36.578,0c-47.95,0.167-95.898,0.334-143.847,0.501c-25.223,0.167-50.454,0.334-75.685,0.501    c-9.683,0-19.372,0-29.064,0c-4.936,0-10.799-0.493-15.286,0.249c-2.717,0.453-7.938,0-11.525,0c-8.021,0-16.038,0-24.059,0    c-23.639,0.086-47.278,0.171-70.919,0.252c-70.063,0-140.632,0.502-211.25,0.502c-41.623,0-84.641,0.249-127.299,0.249    c-12.114,0-24.223,0-36.337,0c-3.659,0-8.896,0.204-11.025,0c-1.664-0.159-3.357,0.408-5.012-0.249    c-0.143-0.379-0.176-0.42-0.249-1.003c-0.135-0.428-0.029-1.187,0.751-1.505c1.227-1.02,7.667-0.498,10.021-0.498    c9.022,0,18.044,0,27.066,0c35.325,0,70.667,0,106,0c65.703,0,132.43-0.506,198.219-0.506c20.801-0.082,41.603-0.163,62.403-0.249    c7.016,0,14.031,0,21.054,0c3.303,0,7.678,0.485,10.524-0.249c8.867,0,17.709,0,26.568,0c19.625-0.086,39.261-0.167,58.879-0.253    c6.526,0,13.044,0,19.561,0c3.166,0,8.069,0.196,10.019-0.249c29.732-0.086,59.482-0.167,89.217-0.249c5.767,0,11.525,0,17.284,0    c2.775,0,6.437,0.351,8.778-0.253c8.769,0,17.538,0,26.299,0C920.363,731.2,926.432,731.677,927.485,730.698z"/>
    <path id="shape_92815aae-4226-432a-9114-d02295dd7e26" opacity="1" fill="#7f7358" d="M895.908,805.375c18.673-0.024,35.876,0.501,54.629,0.501c9.52,0,19.047,0,28.576,0    c1.247,0.249,2.717,0.008,4.502,0c0.335,0.086,0.67,0.167,1.003,0.249c0.995-0.138,3.134-0.538,4.513-0.249    c2.282,0.486,6.444-0.327,10.024,0.249c1.117,0.18,1.681-0.538,3.253-0.249c1.698,0.318,3.852,0.041,6.022,0    c1.044-0.016,1.45,0.335,2.007,0.249c0.733-0.098,1.909-0.334,2.511,0c0.882-0.098,1.818-0.391,2.758-0.249    c1.109,0.175,4.159,0.192,5.751,0.249c0.049-0.024,1.184-0.351,1.753-0.249c1.241,0.2,2.971-0.024,5.263,0    c1.95,0.016,4.038,0.232,7.521,0.249c0.48,0.779,0.734,0.865,0.75,2.26c-0.684,0.416-0.62,0.657-1.755,0.75    c-0.668,0.457-2.423,0.249-3.507,0.249c-2.839,0-5.693,0-8.517,0c-10.784,0-21.568,0-32.335,0c-16.878,0-33.756,0-50.624,0    c-7.179,0-14.373,0-21.553,0c-0.244-0.073-0.849-0.693-1.001-0.75c-16.373,0.085-32.746,0.167-49.116,0.249    c-151.58,0.669-303.233,1.338-454.829,2.007c-47.945,0.167-95.902,0.334-143.838,0.501c-11.009,0-23.505,0.241-33.331,0.249    c-3.581,0-11.142,1.346-11.273-2.255c0.232-0.273,0.081-0.041,0.249-0.502c0.249-0.082,0.502-0.163,0.75-0.249    c1.53-1.085,6.799,0.302,9.022-0.249c2.357-0.587,5.984-0.252,8.773-0.252c5.597,0,11.192,0,16.788,0    c32.161-0.082,64.329-0.167,96.477-0.253c2.141-0.49,7.17-0.249,10.527-0.249c6.934,0,13.867,0,20.797,0    c21.128-0.082,42.271-0.167,63.399-0.25c9.275,0,18.55,0,27.817,0c2.789-0.693,7.031-0.253,10.278-0.253    c6.852,0,13.696,0,20.549,0c19.798-0.081,39.587-0.167,59.393-0.249c60.894-0.249,121.797-0.502,182.685-0.755    c34.741-0.163,69.499-0.33,104.24-0.497c9.521,0,19.049,0,28.568,0C887.432,805.627,894.773,806.169,895.908,805.375z"/>
    <path id="shape_de198c4f-4754-4935-a8d1-bce2085e028c" opacity="1" fill="#7f7358" d="M1034.24,816.651c0.67,0.086,1.32,0.168,1.99,0.25c0.488,0.778,0.734,0.864,0.767,2.259    c-0.733,0.448-0.733,0.702-2.008,0.75c-0.701,0.498-2.626,0.25-3.759,0.25c-3.336,0-6.681,0-10.024,0    c-12.188,0.085-24.392,0.167-36.588,0.248c-13.615,0.17-27.229,0.335-40.844,0.505c-4.764,0-9.527,0-14.283,0    c-2.333,0-5.375-0.236-7.267,0.249c-3.428-0.085-6.854-0.167-10.279-0.249c-8.174,0-16.365,0-24.544,0c-14.791,0-29.572,0-44.37,0    c-3.784-0.738-14.192-0.251-20.802-0.251c-13.931,0-27.896,0-41.847,0c-44.016,0-88.032,0-132.058,0    c-137.925,0-280.825,2.256-420.997,2.256c-0.562-0.878-1.089-1.131-1.256-2.51c0.828-0.974,0.588-1.5,2.509-1.5    c1.33,1.394,9.381,0.75,12.276,0.75c11.531-0.082,23.057-0.168,34.583-0.249c45.861-0.249,91.718-0.501,137.578-0.755    c55.372-0.333,110.769-0.664,166.141-0.999c10.017,0,20.466-0.252,30.826-0.252c4.927,0,9.854,0,14.781,0    c2.275-0.567,5.816-0.25,8.531-0.25c7.366,0,18.036-0.326,20.794,0.25c22.302,0,44.604,0,66.914,0    c47.631,0,99.316,0.252,144.091,0.252c27.81,0,55.627,0,83.441,0c3.883-0.97,9.659-0.252,14.04-0.252    c8.605-0.081,17.221-0.168,25.809-0.25c11.111-0.082,22.221-0.167,33.332-0.252c2.994,0,6.011,0,9.015,0    C1031.81,816.901,1033.57,817.112,1034.24,816.651z"/>
    <path id="shape_96ddf8be-de20-4b68-bdc6-76e7599ddd0a" opacity="1" fill="#7f7358" d="M942.021,827.929c1.396,0.192,3.915,0,6.503,0c5.513,0,11.027,0,16.543,0c15.954,0,31.91,0,47.867,0    c5.578,0,11.19,0,16.787,0c2.104,0,5.073-0.476,5.759,1.003c0.246,0.328,0.229,0.616,0.246,1.253    c-0.435,0.256-0.914,0.632-1.241,1c-27.066,0-54.132,0-81.205,0c-0.63,0.11-1.95,0.18-2.994,0    c-2.194,0.84-6.348,0.251-9.039,0.251c-6.673,0-13.361,0-20.035,0c-19.577,0-40.165,0.254-60.144,0.254    c-19.372,0-38.754,0-58.136,0c-5.092,0-10.19,0-15.289,0c-2.854,0-6.32-0.154-8.768,0.25c-0.963,0.158-2.669-0.242-3.761,0    c-38.83,0-77.683,0-116.521,0c-81.189,0-161.587,0.997-242.329,0.997c-48.687,0.254-97.403,0.508-146.094,0.751    c-11.062,0-23.734,0.222-33.58,0.254c-2.279,0.008-9.063,0.603-10.527-0.254c-0.673-0.391-0.726-1.142-0.75-2.252    c0.359-0.199,0.727-0.447,1.004-0.749c121.025-0.67,242.081-1.338,363.102-2.006c39.506,0,79.028,0,118.526,0    c11.942,0,23.894,0,35.834,0c6.421,0,13.306,0.269,15.786-0.25c0.855-0.175,2.088,0.04,2.268,0c44.604,0,89.226,0,133.812,0    c11.208-0.085,22.4-0.167,33.594-0.254c3.09,0,6.183,0,9.266,0C939.59,828.177,941.353,828.386,942.021,827.929z"/>
    <path id="shape_8537361e-6ae9-4f01-80ad-56ae54c27a99" opacity="1" fill="#7f7358" d="M906.431,839.97c5.269,0,10.53,0,15.794,0c3.017,0.8,11.264,0.93,14.283,0.498    c3.661-0.531,8.458-0.254,12.528-0.254c7.684,0,15.37,0,23.054,0c21.797-0.081,43.616-0.173,65.405-0.244    c0.48,0.774,0.733,0.856,0.749,2.26c-3.189,1.899-12.284,0.993-17.284,0.993c-13.696,0.092-27.394,0.173-41.096,0.254    c-35.485,0-66.924,0-101.984,0c-17.049,0-34.08,0-51.131,0c-3.507,0.638-10.269,0.244-15.04,0.244c-9.677,0-19.382,0-29.059,0    c-28.99,0.081-57.965,0.18-86.956,0.254c-13.361,0-26.73,0-40.094,0c-2.39,0.515-7.905,0.246-11.542,0.246    c-7.587,0-15.189,0-22.791,0c-22.63,0.089-45.274,0.17-67.91,0.251c-9.773,0-19.545,0-29.318,0    c-2.325,0.506-7.733,0.244-11.273,0.244c-7.358,0-14.708,0-22.058,0c-22.22,0.083-44.441,0.163-66.662,0.254    c-65.895,0.327-131.814,0.67-197.714,1.003c-0.477-0.782-0.733-0.865-0.75-2.268c0.449-0.383,0.297-0.515,0.999-0.751    c1.379-1.093,5.49,0.335,8.019-0.244c2.275-0.521,7.309-0.244,10.776-0.244c7.019,0,14.034,0,21.049,0    c37.087-0.18,74.179-0.343,111.267-0.515c128.62-0.498,257.278-1.004,385.91-1.501c34.75-0.089,69.501-0.171,104.243-0.252    c9.438,0,18.884,0,28.322,0C898.168,840.206,905.321,840.736,906.431,839.97z"/>
    <path id="shape_71b159af-eacb-4fc5-9d9b-e1c861f13cd0" opacity="1" fill="#7f7358" d="M887.889,850.475c36.342,0.092,72.673,0.173,109.022,0.244c9.512,0,19.031,0,28.568,0    c2.415,0,9.25-0.528,10.522,0.516c0.229,0.269,0.089,0.04,0.244,0.497c0.424,0.563,0.147,1.11,0,1.763    c-5.155,1.198-12.774,0.505-18.793,0.505c-11.952,0-23.887,0-35.828,0c-31.504,0-63.088,0-93.973,0c-10.024,0-20.05,0-30.084,0    c-4.307,0-10.817-0.708-14.537,0.246c-15.784,0-31.568,0-47.359,0c-4.96,0.993-16.406,0.244-23.56,0.244    c-15.026,0.099-30.067,0.171-45.094,0.252c-45.028,0.172-90.041,0.335-135.069,0.497c-41.766,0.181-83.531,0.343-125.296,0.508    c-14.121,0-28.232,0-42.345,0c-4.683,0-9.36,0-14.039,0c-1.647,0-4.429-0.18-5.262,0c-3.001,0.652-7.333,0.262-10.775,0.262    c-7.019,0-14.035,0-21.049,0c-12.53,0-25.06,0-37.59,0c-5.938,0-14.234,0.455-18.546,0c-1.309-0.147-4,0.236-5.763,0.236    c-5.763,0-11.526,0-17.29,0c-21.05,0-42.108,0-63.15,0c-0.771,0.162-3.092,0.317-4.76,0.251c-0.086-0.178-0.167-0.335-0.253-0.505    c-0.6-0.668-0.432-1.369-0.249-2.26c2.912-1.28,8.435-0.752,12.53-0.752c8.936,0,17.872,0,26.813,0    c30.814-0.089,61.645-0.17,92.467-0.251c86.696-0.244,173.417-0.498,260.121-0.752c27.726-0.162,55.469-0.333,83.189-0.505    c9.527,0,19.047,0,28.566,0c4.307,0,9.984,0.701,13.786-0.244c11.616,0,23.224,0,34.83,0c23.976-0.181,47.951-0.335,71.924-0.508    c9.275,0,18.542,0,27.817,0C879.626,850.736,886.771,851.268,887.889,850.475z"/>
    <path id="shape_57c22980-021f-4d79-a9bf-e3977298816d" opacity="1" fill="#7f7358" d="M910.698,929.168c27.881-0.007,55.706,0,83.945,0c9.105,0,18.208,0,27.327,0    c4.504,0,9.961-0.521,14.031,0.238c0.081,0.252,0.163,0.514,0.244,0.768c0.784,1.011-0.293,1.957-1.509,1.99    c-0.627,0.447-2.227,0.252-3.255,0.252c-2.676,0-5.351,0-8.019,0c-10.27,0-20.548,0-30.826,0    c-38.241,0.091-76.516,0.17-114.758,0.254c-2.521,0.604-6.331,0.244-9.276,0.244c-6.011,0-12.031,0-18.042,0    c-2.587,0-5.18,0-7.774,0c-2.496,0.604-6.33,0.243-9.266,0.243c-5.932,0-11.863,0-17.792,0    c-19.799,0.181-39.597,0.335-59.394,0.516c-10.099,0-20.214,0-30.32,0c-1.468,0.302-5.604,0.254-8.263,0.254    c-5.427,0-10.866,0-16.3,0c-15.857,0.063-31.732,0.162-47.598,0.235c-7.351,0-14.707,0-22.065,0    c-2.275,0.555-5.792,0.252-8.517,0.252c-5.416,0-10.857,0-16.29,0c-16.453,0.082-32.907,0.163-49.368,0.246    c-49.198,0.244-98.411,0.506-147.599,0.757c-45.942,0.165-91.885,0.335-137.827,0.498c-11.359,0-22.718,0-34.077,0    c-3.169,0-10.409,0.645-11.278-0.498c-0.375-0.432-0.494-0.873-0.253-1.255c0.175-0.726,0.118-0.726,0.754-1.005    c1.285-1.051,8.32-0.495,10.776-0.495c9.772,0,19.545,0,29.317,0c37.079-0.181,74.174-0.335,111.262-0.516    c87.512,0,176.068-1.249,263.376-1.249c28.354,0.01,57.948-0.495,85.204-0.495c9.518,0,19.047,0,28.566,0    c4.021,0,10.335,0.7,13.777-0.246c7.847,0,15.711,0,23.55,0c18.297-0.179,36.595-0.343,54.883-0.514c6.094,0,12.195,0,18.297,0    c2.888,0,6.803,0.432,9.259-0.253c8.688,0,17.375,0,26.062,0C903.452,929.406,909.742,929.871,910.698,929.168z"/>
    <path id="shape_503f3c8c-c6f2-4138-84b4-cc02b1646d83" opacity="1" fill="#7f7358" d="M814.97,942.197c74.225,0,148.22,0.521,220.771,0.513c0.506,0.774,0.882,0.727,1.004,1.998    c-0.311,0.262-0.399,0.506-0.75,0.752c-1.322,1.084-8.981,0.505-11.527,0.505c-10.784,0-21.551,0-32.327,0    c-36.723,0-79.363-0.505-118.795-0.505c-154.973,0-308.478,1.744-463.345,1.744c-45.942,0.181-91.884,0.343-137.826,0.516    c-10.939,0.089-21.882,0.17-32.825,0.254c-2.639,0-10.009,0.635-10.775-1.005c-0.27-0.351-0.254-0.841-0.254-1.509    c0.359-0.203,0.739-0.457,1.004-0.752c71.161-0.325,142.345-0.668,213.502-0.993c23.313-0.099,46.611-0.18,69.925-0.262    c7.848,0,15.694,0,23.55,0c3.613,0,8.378,0.539,11.525-0.245c9.611,0,19.219,0,28.82,0c22.221-0.082,44.441-0.179,66.662-0.244    c7.171,0,14.364,0,21.551,0c3.526,0,8.696,0.284,11.013-0.246c34.083-0.097,68.163-0.178,102.244-0.252c8.926,0,17.882,0,26.814,0    C806.91,942.448,813.86,942.964,814.97,942.197z"/>
    <path id="shape_2928a804-a47d-456a-8b5f-dfea821c1981" opacity="1" fill="#7f7358" d="M913.446,953.225c7.684,0,15.375,0,23.062,0c1.681,0.368,5.472,0.246,9.258,0.246    c6.779,0,13.541,0,20.312,0c14.61,0,29.236,0,43.854,0c8.776,0,18.199-0.229,26.561,0.244c0.488,0.782,0.731,0.865,0.749,2.26    c-1.909,1.143-5.954,0.757-9.004,0.757c-6.935,0-13.885,0-20.819,0c-25.793,0-51.62,0-77.429,0    c-0.823-0.625-7.912-0.251-10.278-0.251c-2.171,0-4.535,0.073-6.003,0.505c-7.017,0-14.04,0-21.056,0    c-34.831,0.091-69.671,0.173-104.502,0.254c-38.251,0-76.508,0-114.766,0c-12.033,0-24.066,0-36.09,0    c-6.435,0-14.821-0.441-18.295,0.244c-25.126,0-50.282,0-75.416,0c-26.145,0-52.289,0-78.441,0    c-2.349,0.571-5.971,0.254-8.761,0.254c-5.686,0-11.363,0-17.049,0c-16.364,0.17-32.74,0.327-49.111,0.497    c-41.255,0.335-82.54,0.668-123.796,1.003c-9.687,0.09-19.377,0.181-29.068,0.254c-2.554,0-8.418,0.749-9.271-1.005    c0-0.579,0-1.166,0-1.755c0.358-0.193,0.726-0.447,1.003-0.757c9.524,0.335,19.329,0,29.317,0c4.605,0,11.53,0.767,15.536-0.244    c15.287-0.083,30.581-0.172,45.86-0.254c10.609-0.081,21.218-0.164,31.826-0.235c4.727,0,12.77,0.759,16.788-0.254    c4.765,0,9.523,0,14.288,0c10.604-0.089,21.221-0.163,31.821-0.254c4.731,0,12.774,0.759,16.796-0.252    c33.91-0.081,67.82-0.162,101.738-0.236c68.072-0.089,136.162-0.172,204.235-0.253c43.513-0.09,87.038-0.163,130.565-0.244    c11.273,0,22.548,0,33.83,0C904.106,953.73,912.321,954.278,913.446,953.225z"/>
    <path id="shape_2e268e4f-3272-42ff-9340-14d252f6fb96" opacity="1" fill="#7f7358" d="M1001.913,963.504c9.103,0,18.206,0,27.319,0c2.527,0,8.182-0.782,9.012,0.995    c0.668,0.833,0.043,1.762-0.749,2.006c-0.776,0.538-3.026,0.254-4.259,0.254c-3.508,0-7.023,0-10.532,0    c-12.439,0.081-24.887,0.163-37.326,0.236c-48.015,0-94.674,0-142.853,0c-106.322,0.254-212.676,0.513-319.008,0.767    c-1.387,0.327-5.433,0.244-8.011,0.244c-5.433,0-10.866,0-16.298,0c-2.496,0-5.009,0-7.513,0    c-2.635,0.662-6.681,0.246-9.772,0.246c-6.518,0-13.027,0-19.553,0c-18.697,0-36.439,0.505-55.127,0.505    c-42.348,0.325-84.706,0.669-127.05,0.996c-12.11,0.099-24.223,0.178-36.333,0.251c-4.543,0-11.889,1.201-15.54-0.251    c-0.991-1.542-1.019-3.116,1.755-2.994c0.66,0.465,2.438,0.236,3.512,0.236c2.839-0.081,5.677-0.163,8.52-0.236    c11.273-0.089,22.552-0.18,33.829-0.254c42.936-0.333,85.868-0.668,128.804-1.003c18.281,0,37.931-0.457,55.135-0.498    c6.591,0,13.199,0,19.79,0c3.075,0,7.145,0.425,9.772-0.251c2.341,0,4.682,0,7.015,0c5.432,0,10.865,0,16.298,0    c2.619,0,6.077,0.31,8.263-0.254c106.991-0.244,214.016-0.498,321.007-0.751c39.18,0,78.358,0,117.53,0c10.36,0,20.721,0,31.08,0    c2.667,0,5.351,0,8.012,0C999.686,963.748,1001.283,963.936,1001.913,963.504z"/>
    <path id="shape_4de22ae8-1481-4f87-b356-ad8202e6a68d" opacity="1" fill="#7f7358" d="M916.961,975.021c9.561,1.013,20.558,0.244,30.566,0.244c19.039,0,38.094,0,57.141,0    c7.841,0,15.705,0,23.552,0c3.476,0,8.387-0.538,11.021,0.508c0.276,0.619,0.434,0.814,0.497,1.76    c-2.463,1.535-6.59,0.997-10.505,0.997c-7.783,0-15.55,0-23.315,0c-29.317,0-58.65,0-87.951,0    c-0.662,0.473-2.433,0.244-3.524,0.244c-3.085,0-6.168,0-9.258,0c-11.69,0-23.389,0-35.085,0    c-41.93-0.081-83.867-0.163-125.803-0.244c-2.651,0.636-6.674,0.244-9.773,0.244c-6.265,0-12.529,0-18.794,0    c-2.757,0-5.507,0-8.263,0c-2.66,0.645-6.683,0.252-9.772,0.252c-6.265,0-12.539,0-18.796,0c-2.757,0-5.513,0-8.271,0    c-2.432,0.589-6.143,0.254-9.021,0.254c-5.849,0-11.69,0-17.547,0c-17.032,0.164-34.083,0.335-51.114,0.497    c-10.694,0-21.38,0-32.083,0c-2.806,0.645-8.957,0.252-13.027,0.252c-8.769,0-17.539,0-26.308,0    c-26.805,0.083-53.626,0.164-80.447,0.246c-29.016,0-61.058,0.505-89.71,0.505c-10.857,0-21.715,0-32.576,0    c-4.569,0-12.445-0.521-15.288,0c-2.664,0.49-6.44,0.246-9.52,0.246c-5.763,0-11.53,0-17.293,0c-10.355,0-20.715,0-31.071,0    c-5.514,0-9.581,0.31-14.283,0c-0.453-0.726-0.702-0.726-0.754-2c0.236-0.27,0.094-0.041,0.252-0.514    c0.249-0.081,0.502-0.162,0.75-0.236c1.306-0.946,7.342-0.497,10.274-0.497c8.854,0,17.709,0,26.564,0    c32.495-0.097,64.986-0.181,97.48-0.254c2.549-0.432,8.01-0.252,11.779-0.252c7.599,0,15.201,0,22.804,0    c22.049-0.081,44.099-0.162,66.156-0.254c10.857,0,21.715,0,32.58,0c2.138-0.479,6.95-0.235,10.271-0.235    c6.681,0,13.37,0,20.042,0c20.132-0.1,40.265-0.179,60.398-0.254c59.05-0.417,118.125-0.839,177.167-1.255    c36.007,0.089,72.005,0.18,108.02,0.254c10.182,0,20.369,0,30.559,0C908.259,975.529,915.566,976.099,916.961,975.021z"/>
    <path id="shape_f2fb03b4-453a-4779-ba5c-dd8ecd952d40" opacity="1" fill="#7f7358" d="M919.711,1050.949c35.917,0,71.842,0,107.75,0c1.167,0.244,2.341,0.147,3.272,0    c0.757-0.113,2.43,0.244,4.502,0.244c0.439,0.77,0.718,0.965,0.759,2.27c-0.678,0.417-0.629,0.653-1.754,0.75    c-0.782,0.538-3.027,0.254-4.276,0.254c-3.661,0-7.339,0-11.011,0c-12.611-0.09-25.239-0.181-37.842-0.254    c-49.213,0-96.493,0.767-144.842,1.003c-140.943,0.686-286.894,2.506-429.516,2.506c-41.933,0.162-83.873,0.333-125.798,0.505    c-12.028,0.082-24.056,0.173-36.087,0.244c-4.483,0-12.628,0.866-16.038-0.497c-0.297-0.669-0.464-0.945-0.501-2.007    c2.5-1.468,9.332-0.759,13.786-0.751c9.438-0.089,18.876-0.171,28.314-0.252c34.917-0.081,69.835-0.164,104.749-0.244    c30.488-0.172,60.976-0.327,91.468-0.507c10.188,0,20.377,0,30.574,0c4.487,0,11.11,0.711,15.034-0.244c4.087,0,8.181,0,12.276,0    c8.859,0,17.71,0,26.56,0c4.177,0,10.376,0.358,13.28-0.262c20.638-0.081,41.269-0.162,61.905-0.236c4.177,0,8.354,0,12.531,0    c2.103,0,4.829,0.173,6.51-0.254c10.025,0,20.051,0,30.067,0c20.05-0.17,40.11-0.334,60.152-0.495c10.353,0,20.71,0,31.078,0    c0.261-0.058,0.735-0.197,0.997-0.254c36.748-0.244,73.514-0.505,110.27-0.751c10.099-0.097,20.214-0.179,30.312-0.252    C910.811,1051.455,918.275,1052.052,919.711,1050.949z"/>
    <path id="shape_a90328f2-c0d5-41fc-bd9a-12e536329ea7" opacity="1" fill="#7f7358" d="M838.774,1062.729c0.849,0.18,3.384,0,5.025,0c4.338,0,8.68,0,13.026,0    c11.021,0.172,22.066,0.327,33.078,0.505c5.514,0,11.028,0,16.544,0c2.788,0.67,7.016,0.246,10.261,0.246c1.003,0,2.006,0,3.002,0    c2.912,0.823,6.69,0.244,10.271,0.244c3.842,0,7.684,0,11.541,0c2.017,0,4.634,0.162,6.267-0.244    c14.601-0.081,29.236-0.172,43.853-0.246c1.615-0.391,4.226-0.252,6.265-0.252c3.918,0,7.841,0,11.764,0    c5.76-0.081,11.526-0.162,17.293-0.236c2.554,0,5.613-0.172,7.767,0.236c0.082,0.252,0.181,0.506,0.252,0.76    c0.784,1.011-0.3,1.965-1.509,1.998c-1.135,0.808-8.712,0.252-10.783,0.252c-9.675,0.081-19.367,0.162-29.057,0.246    c-3.377,0.848-8.436,0.244-12.277,0.244c-7.187,0.099-14.364,0.17-21.551,0.253c-3.428,0-6.854,0-10.271,0    c-1.771,0.447-4.592,0.252-6.771,0.252c-4.682,0-9.356,0-14.047,0c-3.263,0.049-8.158,0.678-11.013-0.252    c-16.87-0.172-33.746-0.335-50.624-0.515c-2.773-0.424-6.592-0.236-9.771-0.236c-7.016,0.081-14.039,0.17-21.055,0.236    c-22.963,0-45.755,0.515-68.415,0.515c-13.103,0.082-26.228,0.171-39.335,0.252c-4.52,0-9.022,0-13.526,0    c-2.194,0-5.023-0.203-6.777,0.244c-24.48,0-48.953,0-73.425,0c-1.322,0.31-5.253,0.246-7.765,0.246c-5.271,0-10.54,0-15.794,0    c-16.624,0-33.241,0-49.874,0c-48.61,0.335-97.244,0.668-145.845,1.003c-47.688,0.335-95.392,0.668-143.087,1.003    c-11.277,0.081-22.555,0.181-33.833,0.244c-2.21,0-9.915,0.459-10.523-0.749c0-0.579,0-1.176,0-1.763    c0.233-0.262,0.09-0.033,0.249-0.497c0.253-0.09,0.502-0.171,0.754-0.254c0.559-0.392,5.653,0,7.264,0c7.188,0,14.37,0,21.552,0    c2.423-0.603,6.167-0.244,9.022-0.244c5.93,0,11.861,0,17.791,0c17.126-0.171,34.257-0.325,51.371-0.506    c7.521,0,15.038,0,22.555,0c2.422-0.604,6.163-0.244,9.021-0.244c5.845,0,11.694,0,17.542,0    c17.041-0.172,34.082-0.342,51.122-0.507c7.602,0,15.205,0,22.799,0c2.505-0.628,6.338-0.252,9.275-0.252    c6.183,0,12.366,0,18.542,0c18.052,0,36.944-0.236,55.379-0.236c56.865,0,113.077-0.767,169.91-0.767    c10.548,0,21.388-0.244,31.562-0.244c10.025,0,20.711,0.244,30.319-0.246c7.439,0,14.872,0,22.319,0    c3.164,0,8.06,0.196,10.01-0.253c7.936,0,15.873,0,23.811,0C832.021,1062.982,837.77,1063.432,838.774,1062.729z"/>
    <path id="shape_b1465a16-7fef-496d-a254-da77a6b25834" opacity="1" fill="#7f7358" d="M915.47,1073.008c2.301,0,4.909,0.059,6.501,0.506c26.062,0,52.125,0,78.188,0c8.347,0,16.706,0,25.06,0    c3.597,0,8.778-0.587,11.526,0.505c0.269,0.612,0.434,0.808,0.497,1.755c-0.432,0.253-0.914,0.629-1.239,1.003    c-35.412,0-70.839,0-106.257,0c-2.317,0.317-7.181,0.554-10.769-0.506c-1.092,0.089-2.187,0.171-3.271,0.244    c-2.92,0-5.848,0-8.771,0c-3.172,0-6.346,0-9.527,0c-3.311,0.815-8.247,0.254-12.023,0.254    c-6.934,0.081-13.866,0.172-20.801,0.252c-19.212,0.237-38.429,0.499-57.641,0.751c-15.449,0-30.899,0-46.349,0    c-2.072,0.498-5.271,0.246-7.775,0.246c-5.18,0-10.352,0-15.522,0c-22.139,0-44.278,0-66.418,0    c-2.512,0.325-7.577,0.244-11.272,0.244c-6.355,0-12.701,0-19.057,0c-19.618,0-39.253,0-58.879,0    c-52.215,0-106.151,1.257-157.379,1.257c-49.021,0.333-98.063,0.65-147.097,0.993c-11.775,0.091-23.555,0.172-35.333,0.246    c-2.872,0.016-10.882,0.668-11.526-0.752c-0.453-0.586-0.151-1.336,0-1.988c2.558-0.597,6.464-0.516,9.772-0.516    c5.013,0,10.025,0,15.034,0c2.675,0,5.347,0,8.019,0c2.064-0.497,5.274-0.251,7.77-0.251c5.18,0,10.36,0,15.536,0    c14.345,0,29.607-0.457,43.854-0.5c6.934,0,13.868,0,20.802,0c3.234,0,7.492,0.449,10.273-0.252c10.943,0,21.886,0,32.829,0    c2.289-0.538,5.796-0.244,8.52-0.244c5.343,0,10.691,0,16.034,0c15.793-0.172,31.577-0.327,47.361-0.507    c8.696,0,17.375,0,26.071,0c4.821-0.831,13.183-0.252,19.292-0.252c20.042-0.081,40.093-0.164,60.144-0.236    c4.365-0.589,13.207-0.262,19.545-0.262c12.188,0,24.392,0,36.585,0c34.833-0.081,69.664-0.172,104.497-0.245    c29.234-0.082,58.479-0.179,87.707-0.244c4.119-0.995,11.99-0.246,16.787-0.246c9.529-0.179,19.049-0.341,28.584-0.513    c12.016-0.163,24.047-0.334,36.072-0.498c3.344,0,6.688,0,10.024,0C912.631,1073.262,914.719,1073.53,915.47,1073.008z"/>
    <path id="shape_0ea7d450-61ef-43fe-9a0c-2b7d341bf98e" opacity="1" fill="#7f7358" d="M1020.942,1084.787c2.653,0.343,7.325,0,10.784,0c1.257,0,3.428-0.294,4.268,0.244    c0.612,0.408,0.701,0.965,0.75,2.008c-0.236,0.27-0.09,0.033-0.252,0.498c-0.246,0.089-0.498,0.17-0.752,0.252    c-0.863,0.594-3.425,0.244-4.764,0.244c-3.834,0.083-7.684,0.18-11.525,0.253c-14.364,0.082-28.738,0.173-43.096,0.244    c-52.777,0-104.545,1.216-157.379,1.249c-4.527,0-11.675-0.081-15.786,0.252c-2.512,0.205-5.708-0.48-8.271,0    c-0.229,0.041-0.686-0.333-1.239-0.252c-1.533,0.236-5.441-0.424-8.028,0.252c-1.646,0.434-4.47-0.049-5.757-0.252    c-1.844,0.831-8.517,0.31-10.54,0c-1.485,0.67-3.916,0.262-5.498,0c-2.12,0.93-8.45,0.252-11.273,0.252    c-13.378,0-26.741,0-40.11,0c-54.205,0-108.418,0-162.632,0c-26.977,0-54.345,0.254-80.946,0.254    c-13.28,0.081-26.56,0.164-39.84,0.244c-1.86,0.441-4.748,0.245-7.015,0.245c-4.512,0-9.031,0-13.534,0    c-12.28,0.181-24.557,0.333-36.838,0.506c-5.682,0-11.359,0-17.04,0c-3.994,0.945-9.806,0.246-14.284,0.246    c-7.852,0.097-15.703,0.17-23.554,0.251c-3.928,0-7.851,0-11.779,0c-1.779,0.425-4.577,0.254-6.767,0.254    c-4.091,0-8.186,0-12.277,0c-1.921,0-3.842,0-5.768,0c-1.843,0.439-4.743,0.244-7.015,0.244c-4.343,0-8.688,0-13.031,0    c-6.514,0.089-13.031,0.173-19.544,0.244c-2.868,0-6.314,0.213-8.77-0.244c-0.326-0.701-0.493-1.109-0.501-2.26    c0.775-0.498,0.726-0.889,2.003-1.003c0.627,0.439,2.231,0.254,3.258,0.254c2.758,0,5.515,0,8.269,0    c9.776-0.091,19.549-0.181,29.321-0.254c37.663-0.416,75.354-0.833,113.016-1.241c13.97,0,28.119-0.473,41.852-0.514    c5.09,0,10.188,0,15.287,0c2.415,0,5.514,0.236,7.521-0.251c1.917,0,3.834,0,5.759,0c4.176,0,8.354,0,12.53,0    c2.186,0,4.992,0.178,6.771-0.246c46.178,0,92.389,0,138.569,0c15.033,0,30.075,0,45.101,0c7.229,0,16.667,0.784,23.305-0.244    c0.802-0.132,2.76,0.457,3.999,0.244c0.962-0.163,3.278-0.016,4.764,0c4.096,0.04,7.153,0.018,10.522-0.244    c0.873-0.065,2.773,0.302,4.273,0c0.833,0.081,1.666,0.163,2.506,0.244c2.725-0.439,8.491,0.261,11.282-0.244    c1.255-0.229,3.507,0.122,4.005,0c8.019,0,16.037,0,24.056,0c20.035,0,40.101,0,60.145,0c6.265,0,12.529,0,18.793,0    c3.01,0,6.942,0.366,9.52-0.254c13.869-0.081,27.736-0.162,41.603-0.254c3.248-0.765,8.06-0.235,11.763-0.235    c6.779-0.09,13.541-0.179,20.313-0.252c20.113-0.09,40.265-0.163,60.396-0.244c11.927-0.091,23.876-0.173,35.828-0.262    c3.18,0,6.346,0,9.527,0C1018.334,1085.031,1020.259,1085.277,1020.942,1084.787z"/>
    <path id="shape_1a30f6fc-8bbe-4e32-8208-f51b2f9f0f0b" opacity="1" fill="#7f7358" d="M1023.717,1096.312c4.34-0.024,9.643-0.497,13.524,0.254c0.376,0.638,0.62,0.782,0.767,1.755    c-0.31,0.269-0.408,0.495-0.767,0.749c-1.99,1.641-9.151-0.262-12.276,0.498c-3.246,0.782-8.075,0.252-11.78,0.252    c-6.681,0.091-13.359,0.172-20.042,0.245c-23.803,0.343-47.605,0.677-71.408,1.004c-3.753-1.29-10.563-0.75-15.54-0.75    c-10.441,0.089-20.891,0.171-31.324,0.244c-80.775,0-161.997,0-242.827,0c-36.668-0.081-73.334-0.163-110.01-0.244    c-2.137,0.521-5.449,0.244-8.018,0.244c-5.18,0-10.361,0-15.54,0c-2.333,0-4.674,0-7.016,0c-2.504,0.612-6.322,0.252-9.267,0.252    c-5.938,0-11.86,0-17.799,0c-17.205,0.172-34.408,0.335-51.62,0.497c-47.521,0.425-95.057,0.841-142.586,1.257    c-11.192,0.082-22.388,0.163-33.58,0.254c-2.606,0-10.033,0.538-10.775-1.005c0-0.587,0-1.174,0-1.762    c0.775-0.473,0.86-0.732,2.256-0.75c0.628,0.441,2.23,0.244,3.259,0.244c2.756,0,5.51,0,8.267,0    c7.228,0,15.206-0.244,22.804-0.244c3.675,0,7.35,0,11.029,0c3.973-0.962,11.632-0.244,16.286-0.244    c10.107-0.099,20.215-0.162,30.326-0.254c29.651-0.251,59.312-0.497,88.96-0.749c42.095-0.335,84.204-0.67,126.295-1.005    c19.219,0,38.438,0,57.639,0c0.368,0.065,2.212-0.064,2.758,0c8.052,0.947,17.556,0.254,26.047,0.254c19.479,0,38.942,0,58.39,0    c58.194-0.008,119.407-0.008,178.425,0c17.122-0.09,34.254-0.171,51.366-0.254c4.423,0,8.859,0,13.29,0    c0.186,0.065,0.611,0.703,0.749,0.751c2.994,0,6.013,0,9.021,0c4.04-0.979,11.805-0.229,16.536-0.243    c9.187-0.173,18.371-0.328,27.556-0.508c11.208-0.17,22.4-0.333,33.591-0.496c3.093,0,6.184,0,9.269,0    C1021.09,1096.566,1023.017,1096.811,1023.717,1096.312z"/>
    <path id="shape_762b2601-3448-4406-bb67-fc7b22e547e1" opacity="1" fill="#7f7358" d="M1028.237,1168.236c1.32,0.082,2.658,0.163,3.996,0.244c0.227,0.449,0.325,0.408,0.506,0.995    c0.579,0.768,0.016,1.519-0.759,1.755c-0.597,0.416-1.59,0.041-2.504,0.252c-3.469,0.848-8.598,0.253-12.529,0.253    c-13.444,0.082-26.905,0.163-40.348,0.254c-3.931,0.938-10.53,0.236-15.032,0.236c-9.929,0-19.913,0.041-29.572,0    c-23.95-0.106-54.883,0.254-81.694,0.254c-11.771,0-23.552,0-35.321,0c-3.842,0.879-11.185,0.244-16.291,0.244    c-11.013,0-22.057,0-33.076,0c-33.911,0.089-67.838,0.17-101.747,0.243c-14.374,0-28.731,0-43.096,0    c-3.875,0.947-10.36,0.254-14.797,0.254c-10.189,0-20.387,0-30.574,0c-30.264,0-60.952,0.496-91.46,0.496    c-81.521,0.426-163.065,0.85-244.582,1.257c-1.387,0.4-4.07,0.833-5.515,1.241c-0.75,0-1.504,0-2.255,0    c-0.583,0.18-1.411,0.84-2.003,1.011c-2.088,0.081-4.176,0.171-6.264,0.246c-0.086-0.173-0.167-0.335-0.253-0.498    c-0.583-0.678-0.534-1.968-0.502-3.272c0.167-0.081,0.334-0.162,0.502-0.236c1.252-0.985,1.737,0.317,3.259,0    c1.484-0.317,3.475-0.855,5.013-1.257c1.167,0,2.337,0,3.507,0c3.949-1.117,9.989-0.495,15.287-0.495    c6.48,0,14.292-0.254,21.8-0.254c42.842-0.173,85.701-0.335,128.556-0.498c47.851-0.254,95.726-0.515,143.585-0.767    c16.29-0.081,32.579-0.163,48.87-0.244c5.514,0,11.013,0,16.543,0c2.821,0,6.82,0.112,8.517-0.246c5.841,0,11.681,0,17.539,0    c13.45,0,26.902,0,40.346,0c6.379,0,16.183,0.506,19.798-0.251c54.467-0.084,108.924-0.165,163.399-0.238    c13.689,0,27.384,0,41.096,0c5.695,0,15.582,0.718,19.79-0.26c9.446,0.089,18.877,0.17,28.323,0.26    c3.311-0.823,8.239-0.26,12.023-0.26c7.178-0.081,14.356-0.172,21.545-0.246c11.198-0.081,22.391-0.178,33.591-0.244    c3.075,0,6.174,0,9.259,0C1025.789,1168.48,1027.566,1168.701,1028.237,1168.236z"/>
    <path id="shape_c609f464-22a6-44e2-85b3-54c42975e21e" opacity="1" fill="#7f7358" d="M1019.703,1180.26c3.656,0.93,10.809-0.978,14.537,0.514c0.416,0.898,0.619,2.227-0.514,2.75    c-3.509,0-7.016,0-10.524,0c-0.871,0.67-8.801,0.245-11.28,0.245c-10.769,0-21.552,0-32.318,0    c-2.996,0.684-9.292,0.252-13.534,0.252c-9.113,0-18.216,0-27.319,0c-2.039,0-3.174,0.376-4.503,0.751    c-24.731-0.172-49.466-0.335-74.183-0.497c-104.071,0.244-208.175,0.497-312.246,0.749c-1.542,0.384-4.054,0.246-6.012,0.246    c-3.671,0-7.35,0-11.029,0c-10.604,0.089-21.217,0.17-31.822,0.244c-30.574,0.254-61.155,0.515-91.721,0.751    c-47.275,0.423-94.563,0.849-141.835,1.255c-11.168,0-22.694,0.244-32.826,0.244c-2.08,0.01-9.055,0.556-10.274-0.244    c-0.612-0.398-0.71-0.97-0.754-2.006c0.237-0.262,0.085-0.041,0.252-0.498c0.249-0.089,0.502-0.17,0.75-0.254    c0.669-0.455,2.431-0.243,3.507-0.243c2.843,0,5.682,0,8.521,0c6.909-0.066,14.752-0.244,22.053-0.244c3.508,0,7.015,0,10.527,0    c2.21-0.546,5.628-0.254,8.267-0.254c5.262,0,10.527,0,15.789,0c2.337,0,4.679,0,7.016,0c1.999-0.497,5.103-0.252,7.517-0.252    c5.012,0,10.025,0,15.038,0c14.031-0.172,28.065-0.327,42.1-0.499c9.352,0,18.709,0,28.065,0c1.62-0.399,4.226-0.252,6.266-0.252    c3.841,0,7.684,0,11.526,0c11.278-0.081,22.551-0.163,33.833-0.246c33.07-0.252,66.156-0.506,99.234-0.757    c101.361,0,203.189-1.005,304.22-1.005c19.961,0.083,39.93,0.18,59.891,0.253c6.011,0,12.031,0,18.044,0    c3.972,0,7.138,0.311,10.025-0.497c3.174,0,6.346,0,9.52,0c7.351,0,14.707,0,22.065,0c3.362,0,7.856,0.507,10.767-0.252    c10.688,0,21.391,0,32.075,0c2.669,0,5.353,0,8.012,0C1017.469,1180.514,1019.083,1180.701,1019.703,1180.26z"/>
    <path id="shape_58d6539f-4e35-4994-8556-599506a62d35" opacity="1" fill="#7f7358" d="M1007.68,1191.036c6.771,0,13.526,0,20.304,0c3.042,0,6.363-0.823,6.518,2.268    c-3.255,1.933-12.711,1.003-17.8,1.003c-13.32,0-27.18,0.236-40.851,0.236c-24.725,0.254-49.459,0.508-74.176,0.76    c-8.443,0-16.876,0-25.312,0c-3.826,0-8.923-0.62-12.277,0.245c-14.951,0-29.904,0-44.857,0c-1.55,0.325-5.774,0.252-8.532,0.252    c-5.597,0-11.192,0-16.787,0c-16.365,0.081-32.743,0.171-49.116,0.254c-27.987,0-55.967,0-83.947,0c-9.185,0-18.378,0-27.57,0    c-5.427,0-11.536,0.211-16.536-0.254c-1.518-0.155-4.055,0.31-5.507,0c-1.582-0.343-3.832,0.236-5.016,0.254    c-7.432,0.048-15.964-0.254-23.811-0.254c-20.206,0-41.105-0.317-60.896,0.254c-10.196,0-20.385,0-30.573,0    c-4.16,0-10.458-0.686-14.031,0.236c-3.345,0-6.689,0-10.034,0c-8.011,0-16.038,0-24.048,0c-3.679,0-8.582-0.579-11.779,0.252    c-30.483,0.083-60.979,0.164-91.468,0.253c-4.054,0.988-9.993,0.252-14.537,0.252c-10.025,0-20.046,0-30.072,0    c-10.213,0.084-21.441,0.238-32.074,0.238c-5.013,0-10.025,0-15.034,0c-2.508,0.603-6.326,0.252-9.275,0.252    c-5.053,0-11.183,0.604-15.784-0.252c0-0.172,0-0.335,0-0.498c-0.269-0.35-0.253-0.832-0.253-1.518    c2.822-1.679,9.141-0.995,13.534-0.995c9.691-0.09,19.377-0.171,29.068-0.252c39.094-0.173,78.184-0.327,117.278-0.498    c2.872-0.702,7.199-0.244,10.523-0.244c7.02,0,14.035,0,21.05,0c23.392-0.18,46.786-0.345,70.166-0.515    c11.779,0,23.558,0,35.338,0c2.316-0.498,7.717-0.252,11.273-0.252c7.44,0,14.872,0,22.302,0c23.386,0,46.782,0,70.168,0    c7.351,0,14.701,0,22.051,0c3.295,0.407,6.787,0.219,10.024,0.252c1.013,0.008,2.366-0.325,3.01-0.252    c4.88,0.61,10.964,0.252,16.281,0.252c9.864,0,19.709,0,29.563,0c41.732,0,84.054-0.498,124.555-0.498    c43.601-0.253,87.202-0.515,130.803-0.767c11.681-0.081,23.395-0.163,35.085-0.236c3.091,0,6.176,0,9.258,0    C1005.044,1191.288,1006.994,1191.534,1007.68,1191.036z"/>
    <path id="shape_2260227d-fefb-4e35-b2e7-3212c3955df4" opacity="1" fill="#7f7358" d="M923.725,1202.562c3.418,0,7.644-0.204,10.279,0.515c21.045-0.091,42.09-0.18,63.146-0.254    c8.019,0,16.045,0,24.057,0c4.941,0,8.564-0.611,12.78,0.254c0.083,0.252,0.172,0.496,0.254,0.749    c1.165,1.803-1.158,1.656-2.514,2.007c-2.342,0.597-5.987,0.253-8.761,0.236c-12.871,0-25.743,0-38.599,0    c-13.445,0.083-26.903,0.18-40.349,0.253c-3.85,0-7.684,0-11.533,0c-1.501-0.432-5.27-1.061-7.504-0.497    c-4.088,1.013-11.111,0.244-15.794,0.244c-9.021,0.172-18.043,0.327-27.065,0.499c-17.865,0-35.747,0-53.626,0    c-1.729,0.333-5.891,0.252-8.778,0.252c-5.515,0-11.012,0-16.527,0c-17.211,0-34.414,0-51.635,0    c-50.511,0-103.271,0.759-152.853,0.751c-24.398,0.09-48.789,0.171-73.179,0.244c-2.781,0.703-7.032,0.252-10.278,0.252    c-6.673,0-13.362,0-20.042,0c-19.716,0.173-39.424,0.335-59.141,0.515c-8.687,0-17.375,0-26.062,0    c-2.272,0.555-5.804,0.246-8.521,0.246c-5.51,0-11.024,0-16.539,0c-15.694,0.082-31.406,0.171-47.108,0.244    c-25.879,0-51.974,0.506-78.188,0.506c-7.598,0-15.837,0.244-23.803,0.244c-3.284,0-7.522,0.457-10.025,0    c-0.086-0.244-0.167-0.498-0.253-0.75c-0.424-0.554-0.139-1.092,0-1.754c2.81-1.28,8.279-0.76,12.281-0.76    c8.353-0.081,16.707-0.162,25.059-0.244c35.42-0.18,70.834-0.335,106.254-0.497c2.782-0.709,7.031-0.254,10.274-0.254    c6.681,0,13.362,0,20.047,0c19.798-0.163,39.595-0.335,59.385-0.505c8.614,0,17.212,0,25.81,0    c1.771-0.447,4.593-0.244,6.771-0.244c4.511,0,9.022,0,13.533,0c13.28-0.082,26.568-0.181,39.848-0.254c5.597,0,11.193,0,16.788,0    c1.256-0.302,5.075-0.252,7.521-0.252c5.089,0,10.188,0,15.294,0c13.934-0.081,27.881-0.164,41.832-0.246    c42.613-0.17,85.211-0.325,127.816-0.505c29.146-0.081,58.291-0.171,87.456-0.244c9.355,0,18.712,0,28.062,0    c4.281,0,9.999,0.719,13.775-0.246c9.862-0.097,19.717-0.178,29.571-0.252C915.028,1202.815,922.564,1203.361,923.725,1202.562z"/>
    <path id="shape_17ac0d71-08d6-497d-a943-9979a7a9a96e" opacity="1" fill="#7f7358" d="M1024.713,1214.596c2.544-0.066,9.567-0.58,10.276,1.003c0.262,0.343,0.246,0.824,0.246,1.5    c-0.358,0.196-0.734,0.457-0.995,0.75c-33.559-0.057-67.968,1.698-101.242,0.751c-9.11,0-18.214,0-27.317,0    c-4.006,0-9.252,0.62-12.774-0.244c-1.779-0.441-4.878,0.399-6.779,0c-90.44,0.09-180.938,0.171-271.386,0.244    c-30.574,0.18-61.147,0.343-91.713,0.506c-10.278,0.091-20.548,0.17-30.819,0.261c-4.486,0-12.276-0.749-16.037,0.236    c-4.845,0-9.691,0-14.537,0c-11.028,0.091-22.058,0.181-33.086,0.254c-3.752,0-7.513,0-11.273,0c-1.945,0-4.478-0.147-6.012,0.244    c-47.447,0.343-94.902,0.67-142.338,1.013c-11.11,0.073-22.22,0.162-33.33,0.236c-2.607,0-9.749,0.579-10.523-1.003    c0-0.5,0-0.997,0-1.503c1.57-0.93,4.393-0.749,7.016-0.749c4.927,0,9.858,0,14.785,0c0.628-0.442,2.231-0.254,3.259-0.254    c2.839,0,5.678,0,8.521,0c10.608-0.081,21.217-0.163,31.825-0.254c39.498-0.236,79.021-0.496,118.531-0.749    c2.806-0.668,7.015-0.244,10.274-0.244c6.934,0,13.868,0,20.802,0c14.242-0.244,29.496-0.506,43.854-0.506    c5.008,0,10.017,0,15.034,0c2.415,0,5.522,0.236,7.513-0.246c10.613,0,21.225,0,31.83,0c1.582-0.31,5.759-0.243,8.516-0.243    c5.515,0,11.03,0,16.544,0c2.756,0,5.514,0,8.271,0c2.212-0.539,5.622-0.254,8.263-0.254c5.36,0,10.695,0,16.054,0    c16.943,0,33.911,0,50.853,0c71.843-0.081,143.7-0.171,215.527-0.252c16.957,0,33.924,0,50.868,0    c3.319,0.595,9.055,0.252,15.286,0.252c1.755,0,3.509,0,5.262,0c0.162-0.041,0.711-0.384,1.239-0.252    c3.476,0.831,9.928,0.863,13.787,0.252c3.507,0,7.014,0,10.538,0c6.265-0.081,12.531-0.171,18.796-0.252    c11.273-0.081,22.546-0.172,33.819-0.246c3.099,0,6.184,0,9.269,0C1022.298,1214.847,1024.06,1215.05,1024.713,1214.596z"/>
    <path id="shape_adef6031-c4f7-458a-ab23-125ae0d8d3cf" opacity="1" fill="#7f7358" d="M928.734,1289.274c35.402-0.016,72.028,0.507,106.255,0.507c0.475,0.775,0.736,0.864,0.751,2.25    c-0.686,0.425-0.619,0.653-1.754,0.752c-0.725,0.521-2.839,0.27-4.005,0.252c-2.961-0.033-6.452-0.252-9.773-0.252    c-12.944,0-25.897,0-38.835,0c-32.035,0-64.501,0-97.734,0c-15.614,0-31.243,0-46.854,0c-1.231,0.252-5.719,0.252-8.778,0.252    c-5.84,0-11.697,0-17.538,0c-16.787,0.091-33.592,0.172-50.371,0.254c-48.202,0.334-96.404,0.67-144.604,0.995    c-23.47,0.089-46.947,0.18-70.406,0.261c-2.35,0.571-5.988,0.236-8.77,0.236c-5.767,0-11.526,0-17.286,0    c-17.375,0.09-34.75,0.179-52.125,0.252c-7.187,0-14.373,0-21.551,0c-1.876,0.441-6.689,0.246-9.772,0.246    c-6.436,0-12.873,0-19.3,0c-19.46,0.089-38.923,0.17-58.386,0.244c-31.149,0.178-62.314,0.343-93.471,0.513    c-9.356,0.083-18.712,0.173-28.069,0.254c-3.173,0-6.347,0-9.52,0c-0.795,0.246-0.938,0.424-2.007,0.246    c-0.375-0.711-0.518-1.249-0.501-2.514c0.437-0.244,0.93-0.62,1.256-1.003c81.683-0.416,163.395-0.841,245.074-1.249    c26.976-0.171,53.969-0.325,80.945-0.506c8.933,0,17.872,0,26.814,0c4.054,0,9.462,0.67,13.026-0.243c11.453,0,22.906,0,34.334,0    c18.127-0.173,36.26-0.344,54.385-0.506c6.094,0,12.188,0,18.29,0c2.936,0,6.787,0.383,9.266-0.246c2.849,0,5.688,0,8.524,0    c6.683,0,13.371,0,20.042,0c3.148,0,7.326,0.441,10.035-0.244c45.011-0.18,90.031-0.343,135.069-0.513c11.518,0,23.051,0,34.579,0    c3.009,0,6.013,0,9.021,0C926.114,1289.519,928.031,1289.757,928.734,1289.274z"/>
    <path id="shape_f6ea4ced-c916-462d-8794-cb3adf2334b7" opacity="1" fill="#7f7358" d="M895.41,1300.792c21.624,0.091,43.266,0.173,64.908,0.246c7.178,0,14.356,0,21.545,0    c3.415,0,7.821-0.449,10.774,0.254c3.425,0,6.853,0,10.278,0c6.762,0,13.524,0,20.294,0c3.999,0,8.795-0.205,12.025,0.495    c0.244,0.557,0.398,0.719,0.505,1.519c-0.441,0.424-0.35,0.709-1.003,0.995c-0.611,0.447-2.227,0.244-3.255,0.244    c-2.839,0-5.693,0-8.517,0c-10.873,0-21.73,0-32.581,0c-10.294-0.294-21.632-0.244-32.326-0.244c-4.846,0-9.69,0-14.535,0    c-2.277-0.563-5.8-0.244-8.526-0.244c-5.424,0-10.865,0-16.282,0c-17.04,0.08-34.089,0.163-51.122,0.244    c-79.442,0.415-158.88,0.841-238.314,1.247c-38.243,0.091-76.509,0.173-114.767,0.254c-2.431,0.603-6.167,0.244-9.022,0.244    c-5.767,0-11.535,0-17.293,0c-2.513,0-5.009,0-7.521,0c-2.349,0.589-5.979,0.246-8.77,0.246c-5.596,0-11.191,0-16.788,0    c-16.127,0.178-32.246,0.333-48.365,0.505c-44.776,0.425-89.555,0.841-134.319,1.257c-11.693,0.08-23.391,0.171-35.084,0.244    c-2.68,0-11.51,0.579-12.53-0.244c-0.485-0.489-0.51-0.979-0.501-2.008c0.437-0.252,0.93-0.628,1.256-0.995    c30.561-0.252,61.144-0.514,91.717-0.768c10.356-0.081,20.716-0.162,31.071-0.235c4.561,0,12.44,0.741,16.291-0.252    c4.344,0,8.688,0,13.032,0c9.605-0.083,19.21-0.181,28.816-0.244c4.511,0,11.379,0.749,15.286-0.246c6.934,0,13.868,0,20.801,0    c14.7-0.18,29.408-0.335,44.107-0.515c5.253,0,10.523,0,15.785,0c2.618,0,6.272,0.106,7.765-0.236c21.642,0,43.276,0,64.907,0    c3.893-0.979,10.573-0.252,15.043-0.252c10.352,0,20.712,0,31.072,0c30.907-0.172,61.814-0.335,92.715-0.516    c20.974-0.081,41.945-0.162,62.911-0.243c6.842,0,13.702,0,20.556,0c3.215,0,7.488,0.465,10.261-0.244c3.256,0,6.511,0,9.773,0    c7.595,0,15.188,0,22.808,0c3.524,0,8.199,0.538,11.274-0.254c10.855,0,21.73,0,32.58,0c2.659,0,5.343,0,8.01,0    C893.184,1301.046,894.783,1301.233,895.41,1300.792z"/>
    <path id="shape_b6458d67-2f9d-400f-8596-0ba1e2d2285a" opacity="1" fill="#7f7358" d="M932.998,1312.074c25.778,0.254,52.723,0.513,77.937,0.497c6.085,0,12.196,0,18.298,0    c2.992,0,6.1-0.774,6.265,2.268c-2.88,1.714-9.332,1.006-13.786,1.006c-10.931,0-22.573,0.333-33.088-0.254    c-3.931-0.211-11.518,0-17.031,0c-12.358,0-24.734,0-37.093,0c-37.913,0.162-75.845,0.335-113.769,0.505    c-130.795,0.67-261.631,1.338-392.417,1.999c-1.77,0.432-4.592,0.253-6.762,0.253c-4.266,0-8.533,0-12.786,0    c-19.631,0.082-39.258,0.163-58.889,0.252c-1.879,0.303-6.448,0.236-9.523,0.236c-5.677,0-11.359,0-17.041,0    c-15.956,0.084-31.907,0.181-47.863,0.254c-10.731,0-21.992,0.244-33.078,0.244c-4.287,0-10.951,0.629-14.283,0    c-0.241-0.447-0.327-0.399-0.502-0.994c-0.334-0.481-0.151-1.068,0.253-1.51c1.603-1.557,7.574-0.75,10.522-0.75    c9.606,0,19.211,0,28.82,0c2.879-0.686,7.19-0.245,10.522-0.245c6.934,0,13.868,0,20.802,0    c20.296-0.179,40.595-0.335,60.895-0.514c8.769,0,17.538,0,26.312,0c3.324-0.792,8.234-0.236,12.027-0.236    c8.101,0,16.205,0,24.31,0c23.427-0.018,47.189-0.515,70.912-0.515c70.414-0.414,140.845-0.833,211.25-1.247    c20.213-0.091,40.442-0.173,60.657-0.254c6.681,0,13.361,0,20.05,0c3.248,0,7.458,0.424,10.264-0.244c7.847,0,15.702,0,23.559,0    c18.45-0.081,36.918-0.172,55.371-0.254c6.094,0,12.203,0,18.289,0c3.027,0,6.933,0.376,9.527-0.243c7.603,0,15.205,0,22.8,0    C926.457,1312.328,932.021,1312.76,932.998,1312.074z"/>
    <path id="shape_170f4a01-e100-46e2-8d08-2475ec534975" opacity="1" fill="#7f7358" d="M1020.942,1322.36c4.813-0.031,10.695-0.587,15.052,0.238c0.082,0.252,0.163,0.496,0.236,0.757    c0.587,0.752,0.033,1.511-0.733,1.747c-2.155,1.777-10.427-0.343-13.786,0.505c-3.231,0.808-8.092,0.262-11.779,0.262    c-1.176,0-2.341,0-3.509,0c-2.715,0.668-6.859,0.236-10.025,0.236c-5.343,0.089-10.692,0.18-16.037,0.252    c-7.187,0.18-14.364,0.335-21.551,0.507c-4.218,0.016-9.807-0.702-13.534,0.244c-38.159-0.081-76.352-0.162-114.52-0.244    c-100.36,0.016-206.978,1.501-309.979,1.509c-27.735,0.081-55.47,0.163-83.205,0.252c-7.432,0-14.863,0-22.299,0    c-1.664,0-7.777,0.294-8.271,0c-3.259,0.475-7.603,0.238-11.278,0.238c-6.681,0-13.361,0-20.047,0    c-18.374,0.089-36.752,0.178-55.131,0.252c-7.599,0-15.201,0-22.804,0c-1.701,0-8.002,0.319-8.52,0    c-3.973,0.588-9.128,0.245-13.529,0.245c-8.104,0-16.208,0-24.309,0c-5.429,0-10.861,0-16.29,0c-2.496,0-4.743,0.384-6.767,0    c-0.082-0.245-0.167-0.505-0.249-0.751c-2.24-3.255,6.615-2.514,9.022-2.514c10.776,0,21.552,0,32.327,0    c30.235-0.162,60.475-0.325,90.714-0.505c14.443,0,28.901,0,43.352,0c3.859-0.961,11.494-0.244,16.033-0.244    c11.029,0,22.058,0,33.086,0c33.657-0.179,67.331-0.335,100.988-0.506c24.625-0.172,49.279-0.335,73.921-0.505    c8.941,0,17.89,0,26.814,0c4.713,0,10.261,0.406,14.535-0.244c2.023-0.31,7.881,0,11.525,0c7.938,0,15.867,0,23.812,0    c3.753,0,7.512,0,11.282,0c2.633-0.54,8.393-0.246,12.274-0.246c7.856,0,15.713,0,23.56,0c3.752,0,7.521,0,11.273,0    c2.872-0.719,7.212-0.254,10.522-0.254c7.115,0,14.212,0,21.307,0c20.786,0,41.309,0,62.895,0    c19.636,0.084,39.27,0.173,58.895,0.254c6.267,0,12.529,0,18.796,0c3.001,0,6.965,0.408,9.527-0.254c3.328,0,6.681,0,10.026,0    c6.745,0,14.446,0.092,21.054-0.513c4.926,0,9.854,0,14.788,0c2.13-0.521,5.457-0.236,8.02-0.236    c3.174-0.091,6.346-0.171,9.52-0.254c3.092,0,6.183,0,9.275,0C1018.334,1322.599,1020.259,1322.843,1020.942,1322.36z"/>
    <path id="shape_724552d3-1f25-4ae3-9e84-c9f962fa14ac" opacity="1" fill="#7f7358" d="M836.018,1334.124c16.226-0.008,32.946,0.252,48.128,0.252c5.668,0,11.346,0,17.033,0    c2.691,0,6.247-0.333,8.522,0.254c41.758-0.179,83.532-0.335,125.296-0.514c0.597,0.872,1.747,2.177,0,2.756    c-0.823,0.678-2.52,0.516-4.003,0.516c-3.265,0-6.51,0-9.773,0c-12.447,0.081-24.896,0.162-37.344,0.243    c-33.054,0-65.838,0-98.23,0c-15.288-0.089-30.574-0.17-45.861-0.243c-3.826,0.946-10.385,0.243-14.78,0.243    c-10.025,0-20.05,0-30.085,0c-4.177,0-8.354,0-12.528,0c-3.591,0.896-8.958,0.244-13.036,0.244c-8.852,0-17.711,0-26.561,0    c-26.977,0.181-53.969,0.335-80.938,0.508c-16.787,0-33.592,0-50.371,0c-3.075,0.774-7.732,0.244-11.282,0.244    c-7.422,0-14.862,0-22.302,0c-22.465,0.18-44.939,0.335-67.404,0.505c-9.691,0-19.381,0-29.073,0    c-1.835,0.465-4.756,0.246-7.016,0.246c-4.592,0-9.185,0-13.786,0c-13.443,0.097-26.886,0.179-40.337,0.252    c-5.85,0-11.698,0-17.543,0c-2.206,0.546-5.64,0.254-8.271,0.254c-5.348,0-10.69,0-16.038,0    c-15.201,0.081-30.406,0.162-45.607,0.243c-24.811,0.173-49.617,0.343-74.428,0.508c-7.349,0.079-14.699,0.162-22.053,0.252    c-3.304,0-7.464,0.465-10.021,0c-0.2-0.563-0.261-1.371-0.249-2.268c0.233-0.27,0.09-0.033,0.249-0.506    c0.44-0.238,0.408-0.317,1.003-0.497c0.665-0.465,8.537,0,10.523,0c7.395,0,16.355-0.246,24.811-0.246    c31.324-0.179,62.648-0.343,93.972-0.514c18.118-0.17,36.251-0.335,54.377-0.497c6.432,0,12.864,0,19.3,0    c2.994,0,6.966,0.406,9.519-0.252c87.945-0.418,175.938-0.841,263.874-1.249c32.074-0.173,64.165-0.343,96.24-0.506    c8.768,0,17.538,0,26.299,0C828.187,1334.376,834.931,1334.892,836.018,1334.124z"/>
    <path id="shape_8f4b4d8d-3da6-4150-8421-6496df898c6d" opacity="1" fill="#7f7358" d="M950.537,207.96c2.864,0.294,6.525,0.253,9.781,0.253c1.419,0,2.838,0,4.258,0    c4.144,0.982,11.975,0.249,16.797,0.249c10.269,0.085,20.548,0.167,30.809,0.253c4.944,0.081,9.872,0.163,14.799,0.248    c2.023,0,4.593-0.416,5.261,1.004c0.236,0.326,0.236,0.616,0.236,1.252c-0.424,0.261-0.904,0.635-1.239,1.003    c-25.646-0.253-51.287-0.501-76.931-0.75c-4.218,1.334-11.348,0.75-16.789,0.75c-10.874,0-21.724,0-32.581,0    c-6.681,0-13.369,0-20.042,0c-2.585,0-7.08-0.453-8.776,0c-1.34,0.359-3.542-0.102-4.504-0.253c-0.652,0.318-1.369,0.094-2.006,0    c-1.682,0.754-5.181-0.155-7.017,0.253c-0.505,0.106-0.881-0.22-0.995-0.253c-1.435-0.334-3.964-0.167-5.269,0    c-2.977,0.375-7.204,0.277-10.523,0.253c-1.508-0.008-2.863-0.318-4.266,0c-139.482,0-279.015,0-418.488,0    c-50.616,0-101.249,0-151.861,0c-12.28,0-24.558,0-36.838,0c-3.283,0-11.436,0.677-12.529-0.75    c-0.542-0.669-0.334-0.82-0.249-1.758c0.433-0.257,0.918-0.632,1.252-0.999c2.671-0.135,6.607,0.248,10.274,0.248    c10.523,0,21.05,0,31.573,0c30.981,0,61.979,0,92.973,0c93.629,0,187.284,0,280.915,0c23.133,0,46.275,0,69.418,0    c7.097,0,14.194,0,21.291,0c3.385,0,7.854,0.502,10.784-0.248c1.663,0,3.337,0,5.016,0c3.605,0,8.395-0.555,11.527,0.248    c1.615,0.42,4.045-0.375,5.262-0.248c3.082,0.326,6.884,0.408,10.53,0c0.203-0.017,0.733,0.24,1.247,0.248c2.26,0,4.512,0,6.764,0    c6.869,0,14.52,0.078,17.554-0.248c0.686-0.078,1.682,0.183,2.253,0.248c0.832,0.094,1.435-0.224,2.006-0.248    c2.047-0.078,3.639,0.391,5.515,0c35.321,0,70.667,0,105.995,0c10.973,0,26.357,0.583,31.832,0    C946.891,208.563,948.947,209.347,950.537,207.96z"/>
    <path id="shape_e6a007c0-b767-40a9-91fd-e37183400454" opacity="1" fill="#7f7358" d="M927.737,218.735c0.784,0.159,3.199,0,4.748,0c4.273,0,8.532,0,12.782,0c1.574,0,3.172,0,4.764,0    c1.656,0.359,5.132-0.567,7.514,0c3.621,0.869,8.931,0.254,13.036,0.254c12.023,0.167,24.055,0.33,36.088,0.501    c7.887,0,16.909-0.856,24.047,0.498c0.31,0.668,0.473,0.946,0.505,2.006c-0.473,0.286-0.93,0.828-1.5,1.003    c-5.27-0.086-10.523-0.167-15.792-0.253c-14.365-0.167-28.731-0.334-43.104-0.501c-47.412,0-100.482,0.253-150.355,0.253    c-97.923,0-193.167,0.51-291.943,0.501c-31.406,0.082-62.82,0.167-94.218,0.249c-9.935,0-19.879,0-29.819,0    c-5.062,0-12.432,0.257-15.54-0.249c-42.259,0-84.53,0-126.797,0c-8.774,0-17.543,0-26.312,0c-4.246,0-9.977,0.449-13.031-0.253    c-0.175-0.759-0.38-0.877-0.502-1.754c0.441-0.424,0.351-0.717,1.004-1.003c1.729-1.354,5.836,0.061,7.517-0.25    c2.362-0.436,7.293,0,10.523,0c7.517,0,15.038,0,22.555,0c38.593,0,77.181,0,115.773,0c34.498,0.086,69.003,0.167,103.492,0.25    c5.188-1.028,18.191-0.25,26.316-0.25c17.962,0,35.916,0,53.878,0c29.98,0,59.973,0,89.975,0    c2.806-0.534,9.323-0.249,14.521-0.249c9.103,0,18.206,0,27.31,0c28.159-0.085,56.319-0.171,84.454-0.253    c35.915-0.082,71.841-0.167,107.758-0.248c9.854,0,19.715,0,29.569,0C919.043,218.989,926.579,219.548,927.737,218.735z"/>
    <path id="shape_52e00363-58cc-4596-8641-d85c5425cdeb" opacity="1" fill="#7f7358" d="M950.285,230.515c16.952,0.082,33.917,0.167,50.868,0.249c5.663,0,11.485,0.252,16.797,0.252    c3.802,0,8.41-0.383,11.778,0.249c0.367,0.645,0.611,0.788,0.751,1.754c-0.31,0.269-0.399,0.509-0.751,0.754    c-1.321,1.101-9.437,0.498-12.031,0.498c-9.316,0-20.197-0.249-30.573-0.249c-38.847,0-78.475,0-118.521,0    c-61.229,0-122.465,0-183.686,0c-19.372,0-38.771,0-58.136,0c-6.168,0-12.366,0-18.542,0c-3.476,0-7.922,0.008-9.021,0.249    c-20.802,0-41.603,0-62.404,0c-44.017,0.086-88.051,0.171-132.06,0.253c-46.109,0.082-92.227,0.167-138.328,0.249    c-11.024,0-22.049,0-33.078,0c-3.039,0-9.813,0.91-10.776-1.252c-0.266-0.351-0.249-0.823-0.249-1.5    c0.359-0.204,0.726-0.453,1.004-0.755c46.047,0.828,91.312,0,137.324,0c15.369,0,30.736,0,46.109,0    c6.513,0,17.767,0.709,22.049-0.249c109.838-0.085,219.702-0.167,329.532-0.252c47.117,0,94.233,0,141.333,0    c12.351,0,24.725,0,37.083,0c3.264,0,6.511,0,9.781,0C947.657,230.764,949.582,231.009,950.285,230.515z"/>
    <path id="shape_0b1ea240-1caf-4718-ac37-1209f7ae96b6" opacity="1" fill="#7f7358" d="M938.262,241.54c1.631,0.51,6.615,0,9.771,0c1.003,0,2.008,0,3.001,0    c5.353,1.411,13.737,0.751,20.304,0.751c12.701,0,25.395,0,38.104,0c5.173,0,10.353,0,15.523,0c1.543,0,4.74-0.465,5.769,0.252    c0.571,0.399,0.487,1.252,0.497,2.255c-0.254,0.086-0.497,0.167-0.751,0.249c-0.734,0.685-2.334,0.502-3.761,0.502    c-3.002,0-6.013,0-9.021,0c-12.277,0-24.555,0-36.84,0c-10.629,0-23.46,0.746-32.824-0.751c-0.18-0.033-1.208,0.241-1.755,0.249    c-2.839,0-5.685,0-8.523,0c-8.101,0-16.201,0-24.309,0c-25.223,0-50.444,0-75.685,0c-31.74,0.085-63.48,0.167-95.211,0.252    c-2.89-0.367-4.977-0.143-8.028,0c-1.696,0.074-4.64-0.252-6.771-0.252c-7.587,0-15.204,0-22.79,0c-24.155,0-48.285,0-72.438,0    c-76.001,0.085-152.02,0.167-228.025,0.252c-42.019,0.167-84.041,0.335-126.051,0.502c-12.354,0-24.725,0-37.087,0    c-4.335,0-13.398,0.75-16.539-0.502c-0.273-0.62-0.432-0.812-0.501-1.754c0.461-0.383,0.311-0.509,1.003-0.75    c1.101-0.771,8.042-0.253,10.025-0.253c9.021,0,18.04,0,27.062,0c23.473-0.081,46.954-0.167,70.418-0.252    c11.192,0,22.387,0,33.58,0c1.261-0.274,5.07-0.249,7.517-0.249c4.761,0,9.524,0,14.284,0c14.952,0,29.9,0,44.861,0    c6.509,0,13.028,0,19.545,0c2.366-0.559,5.971-0.25,8.769-0.25c5.678,0,11.363,0,17.041,0c18.044,0,36.088,0,54.132,0    c60.632,0,121.282,0,181.926,0c8.864,0,17.708,0,26.565,0c4.634,0,10.083-0.383,14.275,0.25c0.188,0.024,1.201-0.25,1.763-0.25    c2.277-0.008,3.182,0.147,4.504,0.25c0.798,0.061,0.904-0.351,1.762-0.25c7.146,0.869,15.711,0.25,23.298,0.25    c4.502,0,10.954,0.277,13.532-0.25c34,0,68.008,0,101.99,0c8.778,0,17.557,0,26.316,0    C930.429,241.792,937.184,242.291,938.262,241.54z"/>
    <path id="shape_36de6af4-d694-4b60-8540-17f0c7dc0bd5" opacity="1" fill="#7f7358" d="M477.673,253.318c1.713,0.551,7.88,0,11.779,0c8.932,0,17.873,0,26.805,0c29.986,0,59.981,0,89.967,0    c98.981,0.083,197.979,0.167,296.951,0.25c16.209,0.085,32.41,0.167,48.618,0.252c2.014,0.641,5.489,0.501,8.263,0.501    c5.286,0,13.054,0.662,17.033-0.252c2.087,0,4.177,0,6.264,0c4.944,0,9.87,0,14.799,0c2.407,0,5.538,0.261,7.521-0.249    c6.917,0,13.851,0,20.783,0c2.961,0,5.973-0.876,6.021,2.255c-3.034,1.819-10.116,1.004-14.788,1.004    c-11.111,0.081-22.213,0.163-33.322,0.249c-8.182,0.085-16.381,0.167-24.555,0.249c-3.426,0-6.854,0-10.278,0    c-2.397-0.766-6.56-0.497-9.773-0.497c-6.085,0-12.194,0-18.28,0c-19.021,0-38.975-0.253-58.39-0.253    c-83.508,0-168.539-0.249-253.098-0.249c-26.642,0-53.292,0-79.941,0c-7.35,0-14.7,0-22.05,0c-4.176,0-9.03-0.228-12.782,0.249    c-0.253-0.081-0.498-0.167-0.75-0.249c-0.946,0.134-2.569,0.082-3.507,0.249c-26.226,0-52.468,0-78.69,0    c-47.688,0.082-95.392,0.167-143.087,0.253c-11.36,0-22.719,0-34.082,0c-3.606,0-10.221,1.191-10.523-2.259    c1.787-1.559,4.584-1,7.77-1c6.265,0,12.53,0,18.795,0c0.256-0.126,2.68,0,3.006,0c3.267-0.008,7.59-0.252,11.277-0.252    c11.608,0,23.22,0,34.832,0c41.255,0,82.527,0,123.787,0c13.117,0,26.234,0,39.351,0c3.426,0,6.844,0,10.27,0    C474.834,253.568,476.939,253.845,477.673,253.318z"/>
</svg>