<?xml version="1.0" encoding="UTF-8"?>
<svg xmlns="http://www.w3.org/2000/svg">
    <metadata/>
    <defs>
        <font id="colaborate-regularregular" horiz-adv-x="514">
            <font-face units-per-em="1000" ascent="800" descent="-200"/>
            <missing-glyph horiz-adv-x="257"/>
            <glyph unicode=" " horiz-adv-x="257"/>
            <glyph unicode="&#x9;" horiz-adv-x="257"/>
            <glyph unicode="&#160;" horiz-adv-x="257"/>
            <glyph unicode="!" horiz-adv-x="257" d="M79 0v97h100v-97h-100zM84 176v471h89v-471h-89z"/>
            <glyph unicode="&#34;" horiz-adv-x="380" d="M77 647h83l-8 -217h-67zM221 647h83l-8 -217h-67z"/>
            <glyph unicode="#" d="M14 181v66h101l26 145h-88v66h100l33 189h78l-33 -189h95l33 189h78l-33 -189h95v-66h-107l-26 -145h94v-66h-105l-32 -181h-78l32 181h-96l-31 -181h-78l32 181h-90zM193 247h96l25 145h-96z"/>
            <glyph unicode="$" d="M41 485q0 76 48.5 118.5t126.5 52.5v90h73v-88q85 -6 144 -26l-32 -85q-64 29 -112 33v-211q38 -15 63.5 -28t53 -36t41.5 -57.5t14 -79.5q0 -159 -172 -182v-84h-73v80q-62 1 -172 30l32 85l22.5 -9t24 -9t21 -7t24 -7t22.5 -4t26 -2v237q-32 12 -51 20.5t-46 25 t-41.5 34.5t-25.5 46t-11 63zM140 485q0 -31 20 -51t57 -36v179q-77 -17 -77 -92zM288 69q74 22 74 97q0 60 -74 98v-195z"/>
            <glyph unicode="%" horiz-adv-x="784" d="M49 487q0 171 135 171q77 0 106 -44.5t29 -126.5q0 -84 -29.5 -131.5t-106.5 -47.5q-76 0 -105 47.5t-29 131.5zM114 487q0 -66 13 -98.5t56 -32.5t57.5 33t14.5 98q0 64 -13.5 94t-57.5 30q-41 0 -55.5 -33.5t-14.5 -90.5zM169 0l362 629h81l-363 -629h-80zM465 166 q0 172 135 172q77 0 106.5 -45t29.5 -127q0 -83 -30 -130.5t-107 -47.5q-76 0 -105 47t-29 131zM531 166q0 -33 2 -53.5t8.5 -40t21 -28.5t36.5 -9q43 0 57.5 33t14.5 98q0 64 -13.5 94.5t-57.5 30.5q-41 0 -55 -33.5t-14 -91.5z"/>
            <glyph unicode="&amp;" d="M46 177q0 129 113 186q-2 2 -17 13t-21.5 16t-19 18t-18.5 24t-11.5 27.5t-5.5 33.5q0 74 41.5 120.5t129.5 46.5q82 0 126.5 -40t44.5 -120q0 -96 -162 -164q-55 -23 -81.5 -60t-26.5 -99q0 -50 28.5 -87.5t90.5 -37.5q61 0 109 72v101h-96v64h184v-151q0 -30 7 -84 t7 -56h-82l-14 49q-18 -27 -53 -45.5t-70 -18.5q-87 0 -145 47t-58 145zM157 496q0 -14 4.5 -26.5t13.5 -23.5t15.5 -18t18.5 -16.5t15 -12.5q42 18 68 42t26 62q0 90 -83 90q-78 0 -78 -97z"/>
            <glyph unicode="'" horiz-adv-x="257" d="M87 647h83l-8 -217h-67z"/>
            <glyph unicode="(" horiz-adv-x="295" d="M56 254q0 130 22.5 211t78.5 182h81q-53 -97 -72 -181t-19 -212q0 -112 19 -194.5t77 -187.5h-81q-63 109 -84.5 188.5t-21.5 193.5z"/>
            <glyph unicode=")" horiz-adv-x="295" d="M53 -128q58 105 77 187.5t19 194.5q0 128 -19 212t-72 181h82q56 -101 78.5 -182t22.5 -211q0 -114 -21.5 -193.5t-84.5 -188.5h-82z"/>
            <glyph unicode="*" horiz-adv-x="410" d="M12 485l20 63l143 -54l8 6l-7 149h63l-8 -152l7 -4l143 53l18 -62l-147 -36l-1 -7l96 -124l-52 -37l-83 128h-8l-85 -128l-52 38l96 123l-2 7z"/>
            <glyph unicode="+" d="M44 182v71h173v175h80v-175h173v-71h-173v-182h-80v182h-173z"/>
            <glyph unicode="," horiz-adv-x="257" d="M28 -103l51 178h99l-81 -178h-69z"/>
            <glyph unicode="-" horiz-adv-x="338" d="M28 196v76h282v-76h-282z"/>
            <glyph unicode="." horiz-adv-x="257" d="M79 0v96h99v-96h-99z"/>
            <glyph unicode="/" horiz-adv-x="277" d="M-7 -11l213 668h78l-212 -668h-79z"/>
            <glyph unicode="0" d="M38 308q0 312 218 312q66 0 111 -23t68 -67.5t32 -96.5t9 -125t-9 -127t-32 -101t-68 -71.5t-112 -24.5q-66 0 -110.5 24.5t-67 71.5t-31 100.5t-8.5 127.5zM138 308q0 -49 1.5 -80.5t8 -67t19 -55.5t34.5 -33t54 -13q40 0 65.5 18.5t37 57t15 76.5t3.5 97q0 48 -2 79 t-8.5 64t-19 51.5t-35.5 30.5t-55 12q-38 0 -63 -19t-36.5 -56.5t-15 -73.5t-3.5 -88z"/>
            <glyph unicode="1" d="M113 487l150 120h96v-608h-100v508l-115 -95z"/>
            <glyph unicode="2" d="M43 82q11 9 54.5 44t69 56.5t65.5 58.5t63 65t40.5 61.5t17.5 60.5q0 64 -28.5 91t-82.5 27q-58 0 -151 -48l-31 83q64 24 101 32t83 8q92 0 151 -44.5t59 -144.5q0 -38 -21.5 -82.5t-48 -78.5t-72 -77t-70.5 -63.5t-68 -54.5h292v-76h-394z"/>
            <glyph unicode="3" d="M38 9l30 83q80 -33 149 -33q55 0 89.5 28t34.5 78q0 49 -26 76t-64 34.5t-101 7.5v72q92 0 134 19.5t42 81.5q0 90 -101 90q-54 0 -146 -45l-30 83q32 16 85 26.5t93 10.5q199 0 199 -163q0 -62 -38 -96.5t-97 -41.5q63 -10 106.5 -47t43.5 -109q0 -50 -19.5 -86.5 t-53.5 -56t-72 -28.5t-82 -9q-104 0 -176 25z"/>
            <glyph unicode="4" d="M23 242l270 365h103v-367h96v-76h-96v-164h-98v164h-242zM103 240h195v265z"/>
            <glyph unicode="5" d="M50 7l31 83q77 -31 152 -31q132 0 132 136q0 61 -28 90.5t-76 29.5q-26 0 -52 -7.5t-36.5 -13t-35.5 -19.5l-68 27v305h369v-75h-271v-159q59 19 100 19q92 0 144 -51.5t52 -147.5q0 -99 -64.5 -154t-166.5 -55q-112 0 -182 23z"/>
            <glyph unicode="6" d="M45 283q0 85 24.5 159t84 126.5t145.5 52.5q69 0 136 -18l-31 -83q-55 26 -100 26q-82 0 -124 -65.5t-42 -165.5q20 40 59 63.5t75 23.5q97 0 146.5 -56t49.5 -158q0 -87 -58.5 -145.5t-145.5 -58.5q-219 0 -219 299zM147 239q0 -102 29.5 -141t88.5 -39q45 0 74 33.5 t29 95.5q0 28 -3.5 49t-13 43.5t-31.5 34.5t-54 12q-85 0 -119 -88z"/>
            <glyph unicode="7" d="M48 531v75h369l32 -67l-221 -539h-108l241 531h-313z"/>
            <glyph unicode="8" d="M37 152q0 129 147 168l-10 4q-11 4 -14.5 6t-15 7.5t-17.5 9.5t-16.5 11.5t-16.5 14t-14 16.5t-12 20t-7 23t-3 27q0 78 52 120t149 42q103 0 152.5 -38.5t49.5 -122.5q0 -42 -26.5 -75.5t-54 -47t-51.5 -18.5q73 -21 110 -61t37 -106q0 -168 -222 -168q-217 0 -217 168z M135 154q0 -45 30.5 -70.5t88.5 -25.5q60 0 92.5 25t32.5 71q0 91 -122 130q-56 -18 -89 -46.5t-33 -83.5zM155 457q0 -40 30.5 -66t69.5 -38q43 12 76.5 38.5t33.5 65.5q0 46 -25 68t-81 22q-55 0 -79.5 -22t-24.5 -68z"/>
            <glyph unicode="9" d="M45 416q0 87 59.5 146t144.5 59q66 0 111.5 -25t68 -70t31.5 -93.5t9 -110.5q0 -63 -15 -121t-44.5 -107.5t-80 -79.5t-115.5 -30q-68 0 -135 18l31 83q55 -26 99 -26q82 0 124.5 65.5t42.5 165.5q-20 -40 -59 -63.5t-75 -23.5q-97 0 -147 55.5t-50 157.5zM146 416 q0 -28 3.5 -49t13 -43t31 -34t53.5 -12q86 0 120 88q0 102 -30 141t-89 39q-45 0 -73.5 -34t-28.5 -96z"/>
            <glyph unicode=":" horiz-adv-x="257" d="M79 0v96h99v-96h-99zM79 356v96h99v-96h-99z"/>
            <glyph unicode=";" horiz-adv-x="257" d="M28 -103l50 178h100l-81 -178h-69zM78 356v96h99v-96h-99z"/>
            <glyph unicode="&lt;" d="M40 186v100l434 159v-89l-344 -120l344 -118v-89z"/>
            <glyph unicode="=" d="M40 83v72h434v-72h-434zM40 256v72h434v-72h-434z"/>
            <glyph unicode="&gt;" d="M40 29v89l344 120l-344 118v89l434 -158v-99z"/>
            <glyph unicode="?" horiz-adv-x="435" d="M51 627q86 30 163 30q38 0 67.5 -6t59.5 -21.5t46.5 -49t16.5 -83.5q0 -33 -17 -60.5t-41 -47.5t-47.5 -39t-40.5 -43t-17 -51v-86h-90v91q0 32 11.5 58.5t29 43.5t38 33.5t38 30t29 31.5t11.5 39q0 45 -21.5 64t-72.5 19q-28 0 -73 -11t-72 -24zM146 0v97h100v-97h-100z "/>
            <glyph unicode="@" horiz-adv-x="870" d="M81 320q0 165 108 252t277 87q56 0 110.5 -15.5t103.5 -47t79 -87.5t30 -128q0 -69 -25 -120t-69.5 -79.5t-98 -42t-117.5 -13.5q-105 0 -164 50.5t-59 144.5q0 83 52 137t150 54q53 0 98 -14v-173l27 2l26 -67l-134 -14v192q-8 5 -23 5q-46 0 -76.5 -28t-30.5 -93 q0 -39 13 -66t35 -40t43 -18.5t45 -5.5q105 0 161.5 40.5t56.5 147.5q0 58 -20 100.5t-54.5 65.5t-74 33.5t-84.5 10.5q-39 0 -77 -7t-78.5 -26t-70.5 -48.5t-49.5 -78t-19.5 -110.5q0 -63 19.5 -112t50 -78t71.5 -47.5t78.5 -25t77.5 -6.5q96 0 212 34l31 -74 q-108 -29 -246 -29q-175 0 -279.5 87t-104.5 251z"/>
            <glyph unicode="A" horiz-adv-x="657" d="M31 0l263 647h88l244 -647h-110l-64 183h-248l-68 -183h-105zM232 258h195l-94 273z"/>
            <glyph unicode="B" horiz-adv-x="603" d="M96 0v647h203q103 0 160.5 -38.5t57.5 -135.5q0 -49 -28.5 -84t-74.5 -50q62 -11 97.5 -49.5t35.5 -103.5q0 -186 -215 -186h-236zM196 77h130q56 0 87 23.5t31 85.5q0 109 -129 109h-119v-218zM196 371h117q45 0 73.5 25.5t28.5 75.5t-27 74t-89 24h-103v-199z"/>
            <glyph unicode="C" horiz-adv-x="559" d="M61 323q0 71 14.5 129t47 106t90 74.5t137.5 26.5q87 0 164 -25l-32 -85q-77 33 -132 33q-186 0 -186 -258q0 -128 41.5 -196.5t138.5 -68.5q51 0 145 38l32 -85q-85 -30 -176 -30q-284 0 -284 341z"/>
            <glyph unicode="D" horiz-adv-x="651" d="M96 0v647h185q164 0 236.5 -73.5t72.5 -247.5q0 -175 -72.5 -250.5t-236.5 -75.5h-185zM196 77h94q99 0 148 56t49 192q0 75 -13 124t-41 75t-63.5 36t-88.5 10h-85v-493z"/>
            <glyph unicode="E" horiz-adv-x="559" d="M96 0v647h371v-77h-271v-197h250v-77h-250v-219h280v-77h-380z"/>
            <glyph unicode="F" horiz-adv-x="521" d="M96 0v647h371v-78h-271v-200h259v-76h-259v-293h-100z"/>
            <glyph unicode="G" horiz-adv-x="615" d="M61 324q0 157 71.5 246t222.5 89q60 0 156 -25l-32 -85q-76 33 -123 33q-95 0 -143.5 -60.5t-48.5 -197.5q0 -128 40.5 -196.5t144.5 -68.5q59 0 116 32v165h-143v77h232v-294q-55 -30 -100 -43.5t-108 -13.5q-285 0 -285 342z"/>
            <glyph unicode="H" horiz-adv-x="670" d="M96 0v647h100v-274h278v274h100v-647h-100v295h-278v-295h-100z"/>
            <glyph unicode="I" horiz-adv-x="268" d="M84 0v647h100v-647h-100z"/>
            <glyph unicode="J" horiz-adv-x="421" d="M16 0q7 1 27.5 5t29.5 6t27.5 7t28 9.5t25 12.5t24 17.5t19 23t15.5 29.5t9 37.5t4 46.5v453h100v-443q0 -44 -10 -81.5t-23.5 -63t-39 -48t-45 -35.5t-54 -26t-53 -18t-54.5 -15q-3 -1 -4 -1z"/>
            <glyph unicode="K" horiz-adv-x="624" d="M96 0v647h100v-284l262 284h112l-282 -305l321 -342h-130l-283 304v-304h-100z"/>
            <glyph unicode="L" horiz-adv-x="485" d="M96 0v647h100v-567h282v-80h-382z"/>
            <glyph unicode="M" horiz-adv-x="881" d="M96 0v647h159l188 -511l191 511h151v-647h-97v541l-201 -541h-95l-202 541v-541h-94z"/>
            <glyph unicode="N" horiz-adv-x="701" d="M96 0v647h146l265 -529v529h98v-647h-148l-267 529v-529h-94z"/>
            <glyph unicode="O" horiz-adv-x="703" d="M61 321q0 155 70 246.5t223 91.5q288 0 288 -338q0 -156 -68.5 -247.5t-220.5 -91.5q-292 0 -292 339zM164 321q0 -134 44 -198t145 -64t143.5 66.5t42.5 195.5q0 132 -43.5 196.5t-142.5 64.5q-100 0 -144.5 -64.5t-44.5 -196.5z"/>
            <glyph unicode="P" horiz-adv-x="578" d="M96 0v647h207q223 0 223 -189q0 -195 -212 -195h-118v-263h-100zM196 340h110q58 0 88 26.5t30 91.5q0 66 -31.5 89t-91.5 23h-105v-230z"/>
            <glyph unicode="Q" horiz-adv-x="703" d="M61 321q0 155 69.5 246.5t223.5 91.5q288 0 288 -338q0 -156 -68.5 -247.5t-220.5 -91.5q-292 0 -292 339zM164 321q0 -134 44 -198t145 -64t143.5 66.5t42.5 195.5q0 132 -43.5 196.5t-142.5 64.5q-100 0 -144.5 -64.5t-44.5 -196.5zM320 -98l35 57l219 -20l-35 -70z "/>
            <glyph unicode="R" horiz-adv-x="614" d="M96 0v647h222q42 0 77.5 -8.5t67.5 -27.5t50 -55.5t18 -88.5q0 -75 -40.5 -125.5t-131.5 -59.5l211 -282h-121l-206 279h-47v-279h-100zM196 356h128q54 0 79.5 30t25.5 81q0 49 -27 76t-79 27h-127v-214z"/>
            <glyph unicode="S" horiz-adv-x="572" d="M66 12l32 85q101 -38 153 -38q153 0 153 107q0 21 -9.5 39t-20 28.5t-35.5 23.5t-38.5 18.5t-46.5 17.5q-35 13 -55 21.5t-49 25.5t-44.5 35t-27.5 46.5t-12 63.5q0 60 34.5 100.5t85 57t113.5 16.5q88 0 167 -27l-32 -85q-2 1 -13.5 6t-15 6.5t-14.5 5.5t-16 5.5 t-16 4.5t-19 4t-19.5 2t-22.5 1q-130 0 -130 -97q0 -27 19.5 -47.5t41 -30.5t64.5 -25q100 -35 138 -63q75 -54 75 -151q0 -186 -256 -186q-74 0 -184 30z"/>
            <glyph unicode="T" horiz-adv-x="517" d="M24 569v78h469v-78h-185v-569h-99v569h-185z"/>
            <glyph unicode="U" horiz-adv-x="701" d="M96 239v408h100v-398q0 -110 39.5 -150t121.5 -40q74 0 111 44t37 146v398h100v-410q0 -255 -248 -255q-135 0 -198 63t-63 194z"/>
            <glyph unicode="V" horiz-adv-x="628" d="M29 647h110l182 -520l173 520h105l-235 -647h-91z"/>
            <glyph unicode="W" horiz-adv-x="923" d="M35 647h105l123 -522l147 495h120l131 -496l131 523h96l-169 -647h-121l-135 483l-152 -483h-121z"/>
            <glyph unicode="X" horiz-adv-x="605" d="M31 0l216 334l-190 313h115l134 -226l142 226h107l-199 -307l212 -340h-119l-149 256l-162 -256h-107z"/>
            <glyph unicode="Y" horiz-adv-x="590" d="M15 647h113l173 -270l168 270h106l-228 -356v-291h-100v287z"/>
            <glyph unicode="Z" horiz-adv-x="550" d="M44 82l354 487h-317v78h397l28 -82l-354 -487h346v-78h-426z"/>
            <glyph unicode="[" horiz-adv-x="289" d="M83 -127v803h159v-65h-79v-670h79v-68h-159z"/>
            <glyph unicode="\" horiz-adv-x="277" d="M-7 657h78l213 -668h-79z"/>
            <glyph unicode="]" horiz-adv-x="289" d="M53 -59h79v671h-79v65h159v-803h-159v67z"/>
            <glyph unicode="^" d="M34 269l181 378h81l185 -378h-87l-138 295l-138 -295h-84z"/>
            <glyph unicode="_" horiz-adv-x="500" d="M-1 -41h502v-68h-502v68z"/>
            <glyph unicode="`" horiz-adv-x="228" d="M19 647h94l96 -117h-66z"/>
            <glyph unicode="a" horiz-adv-x="501" d="M45 120q0 77 55.5 119.5t192.5 42.5h41v29q0 89 -78 89q-77 0 -161 -40l-31 74q95 35 195 35q76 0 120.5 -37t44.5 -109v-183q0 -16 2.5 -38t7 -52.5t6.5 -49.5h-83q0 2 -8 25t-8 25q-53 -62 -124 -62q-80 0 -126 33.5t-46 98.5zM139 124q0 -33 25 -50t67 -17 q71 0 104 54v109h-28q-92 0 -130 -23t-38 -73z"/>
            <glyph unicode="b" horiz-adv-x="511" d="M57 0q11 86 11 140v517h89v-264q52 76 123 76q96 0 141 -66.5t45 -171.5t-51 -174t-148 -69q-38 0 -67.5 18.5t-45.5 43.5l-16 -50h-81zM155 124q14 -31 41 -49t59 -18q119 0 119 172q0 171 -106 171q-29 0 -53.5 -17.5t-35.5 -34t-24 -41.5v-183z"/>
            <glyph unicode="c" horiz-adv-x="451" d="M45 225q0 115 54 179.5t163 64.5q29 0 76 -10t74 -21l-31 -74q-72 36 -120 36q-66 0 -95 -43t-29 -132q0 -168 123 -168q54 0 124 36l31 -74q-25 -12 -76 -21.5t-80 -9.5q-105 0 -159.5 64t-54.5 173z"/>
            <glyph unicode="d" horiz-adv-x="511" d="M45 231q0 102 48.5 170t139.5 68q69 0 121 -76v264h89v-517q0 -54 11 -140h-81l-16 50q-17 -26 -47 -44t-66 -18q-102 0 -150.5 68t-48.5 175zM137 229q0 -90 29 -131t90 -41q58 0 100 67v183q-46 93 -112 93q-107 0 -107 -171z"/>
            <glyph unicode="e" horiz-adv-x="501" d="M45 224q0 44 9.5 84t31.5 78t63.5 60.5t98.5 22.5q116 0 161 -68t45 -207h-314q10 -139 121 -139q61 0 139 39l29 -70q-78 -36 -176 -36q-102 0 -155 67t-53 169zM139 261h228q-4 139 -118 139q-44 0 -75 -34.5t-35 -104.5z"/>
            <glyph unicode="f" horiz-adv-x="309" d="M13 388v69h69v31q0 46 20 82.5t52 57.5t65.5 33t66.5 14l23 -75q-138 -15 -138 -105v-38h104v-69h-104v-388h-89v388h-69z"/>
            <glyph unicode="g" horiz-adv-x="521" d="M38 -72q0 61 85 90q-62 27 -62 82q0 36 49 77q-49 60 -49 121q0 19 4 38.5t17 44.5t33 43.5t56.5 31.5t84.5 13q40 0 77 -10q113 9 157 11l-25 -63h-60q19 -16 34.5 -46t15.5 -63q0 -72 -46.5 -123t-150.5 -51q-18 0 -51 5.5t-47 13.5q-23 -21 -23 -39q0 -19 27 -29 t110 -16q124 -10 168.5 -40.5t44.5 -87.5q0 -67 -64 -99t-159 -32q-122 0 -174 33t-52 95zM131 -69q0 -30 36.5 -48t96.5 -18q70 0 100 16.5t30 49.5q0 52 -210 61q-24 -8 -38.5 -25.5t-14.5 -35.5zM154 296q0 -51 27.5 -78t77.5 -27q54 0 78.5 31.5t24.5 77.5 q0 101 -104 101q-48 0 -76 -27t-28 -78z"/>
            <glyph unicode="h" horiz-adv-x="509" d="M68 0v657h89v-264q18 29 49.5 53t73.5 24q89 0 125 -48t36 -131v-291h-89v287q0 55 -17 84t-69 29q-68 0 -109 -91v-309h-89z"/>
            <glyph unicode="i" horiz-adv-x="228" d="M66 559v88h96v-88h-96zM69 0v457h90v-457h-90z"/>
            <glyph unicode="j" horiz-adv-x="224" d="M-28 -103q52 11 72.5 33t20.5 67v460h89v-451q0 -136 -152 -184zM61 559v88h97v-88h-97z"/>
            <glyph unicode="k" horiz-adv-x="464" d="M68 0v657h89v-384l172 184h97l-186 -198l210 -259h-104l-189 234v-234h-89z"/>
            <glyph unicode="l" horiz-adv-x="225" d="M68 0v657h89v-657h-89z"/>
            <glyph unicode="m" horiz-adv-x="790" d="M57 457h81l17 -65q19 28 52 53t71 25q57 0 88 -20t56 -63q22 35 58 59t82 24q160 0 160 -178v-292h-89v290q0 55 -18.5 82.5t-64.5 27.5q-39 0 -69 -28.5t-44 -67.5v-304h-89v290q0 59 -20.5 84.5t-64.5 25.5q-34 0 -63.5 -29t-42.5 -61v-310h-89v352q0 22 -5 59.5 t-6 45.5z"/>
            <glyph unicode="n" horiz-adv-x="509" d="M57 457h81l16 -64l8 11q9 10 13 14l14 14t18.5 15t20 11t24.5 9t27 3q90 0 126 -47.5t36 -134.5v-288h-89v289q0 53 -16.5 82t-69.5 29q-36 0 -64 -27t-45 -64v-309h-89v360q0 22 -5 54.5t-6 42.5z"/>
            <glyph unicode="o" horiz-adv-x="517" d="M45 231q0 104 51.5 171.5t162.5 67.5q112 0 162.5 -65.5t50.5 -173.5q0 -109 -51 -176.5t-162 -67.5q-112 0 -163 67.5t-51 176.5zM137 231q0 -174 122 -174q121 0 121 174q0 86 -28 127.5t-93 41.5q-122 0 -122 -169z"/>
            <glyph unicode="p" horiz-adv-x="511" d="M57 457h81l18 -64q52 77 118 77q68 0 112.5 -35t62 -87.5t17.5 -121.5q0 -103 -47 -171t-139 -68q-37 0 -70.5 17.5t-52.5 44.5v-229h-89v499q0 56 -11 138zM156 124q42 -67 111 -67q107 0 107 171q0 89 -28.5 130.5t-89.5 41.5q-33 0 -59 -26t-41 -64v-186z"/>
            <glyph unicode="q" horiz-adv-x="511" d="M45 226q0 106 48 175t144 69q66 0 118 -77l18 64h81q-11 -82 -11 -138v-499h-89v229q-20 -27 -52.5 -44.5t-69.5 -17.5q-96 0 -141.5 67.5t-45.5 171.5zM137 228q0 -171 107 -171q70 0 112 67v186q-15 37 -42 63.5t-60 26.5q-117 0 -117 -172z"/>
            <glyph unicode="r" horiz-adv-x="360" d="M57 457h81l16 -80q18 34 46 63.5t62 29.5q47 0 85 -23l-32 -75q-43 28 -69 28q-16 0 -29.5 -8t-23 -23.5t-15.5 -27t-13 -30.5t-8 -21v-290h-89v355q0 18 -11 102z"/>
            <glyph unicode="s" horiz-adv-x="433" d="M40 18l31 74q4 -1 11 -4q71 -29 113 -31h14q48 0 67.5 17t19.5 49q0 15 -7 25.5t-25.5 20t-29.5 13.5t-41 14q-34 11 -53.5 19t-44.5 24.5t-37 40.5t-12 57q0 49 28.5 80t67 42t87.5 11q62 0 152 -30l-32 -75q-31 14 -43 19t-34 10.5t-45 5.5q-89 0 -89 -60 q0 -16 13.5 -28t28 -18t44.5 -16q83 -26 113 -48q51 -38 51 -106q0 -70 -52 -103.5t-129 -33.5q-90 0 -167 31z"/>
            <glyph unicode="t" horiz-adv-x="312" d="M13 388v70h74v119h90v-119h106v-70h-106v-277q0 -86 123 -111l-31 -81q-82 20 -132 70t-50 124v275h-74z"/>
            <glyph unicode="u" horiz-adv-x="502" d="M68 169v288h89v-289q0 -34 4.5 -55.5t24 -38.5t54.5 -17q64 0 105 91v309h89v-360q0 -22 5 -54.5t6 -42.5h-81l-16 64q-1 -2 -10 -13t-14.5 -17t-17 -16t-22 -16t-26 -10.5t-31.5 -4.5q-159 0 -159 182z"/>
            <glyph unicode="v" horiz-adv-x="513" d="M38 457h96l126 -348l123 348h92l-176 -457h-84z"/>
            <glyph unicode="w" horiz-adv-x="754" d="M34 457h95l107 -347l104 305h86l98 -304l106 346h90l-153 -457h-91l-97 301l-105 -301h-93z"/>
            <glyph unicode="x" horiz-adv-x="472" d="M24 0l165 231l-154 226h103l102 -159l106 159h94l-155 -219l163 -238h-103l-110 169l-116 -169h-95z"/>
            <glyph unicode="y" horiz-adv-x="508" d="M38 457h96l131 -335l113 335h92l-191 -530q-21 -59 -56.5 -95t-100.5 -59l-29 75q71 19 88 65l40 106z"/>
            <glyph unicode="z" horiz-adv-x="427" d="M31 74l264 314h-236v69h305l32 -74l-263 -314h249v-69h-320z"/>
            <glyph unicode="{" horiz-adv-x="374" d="M48 230v71q35 1 52.5 26.5t19.5 63.5t9 82t19.5 81.5t53 64t107.5 28.5v-71q-49 0 -72.5 -26t-28 -66.5t-7 -82.5t-19.5 -81t-54 -56q32 -12 50 -40.5t21 -62.5t7 -71.5t10 -67.5t29 -49.5t64 -19.5v-71q-50 1 -85.5 16.5t-52 39.5t-27 54.5t-12.5 62t-6.5 62.5t-10.5 55 t-22.5 40t-44.5 18z"/>
            <glyph unicode="|" horiz-adv-x="257" d="M90 -166v868h77v-868h-77z"/>
            <glyph unicode="}" horiz-adv-x="374" d="M64 -47q48 0 71.5 27t28 68t7 84t20 80.5t55.5 51.5q-37 17 -54 56t-19.5 81t-7.5 82.5t-28.5 66.5t-72.5 26v71q51 -2 87 -17.5t53 -39.5t28 -55t13 -62.5t6.5 -62t9.5 -54.5t21.5 -39t43.5 -16v-71q-28 -2 -44.5 -18t-22.5 -40t-10.5 -55t-6.5 -62.5t-12.5 -62 t-27.5 -54.5t-52.5 -39.5t-85.5 -16.5v71z"/>
            <glyph unicode="~" d="M27 195q0 51 34 83t92 32q38 0 78 -21t70 -41.5t44 -20.5q34 0 51.5 17t17.5 57l72 -39q0 -50 -35 -82.5t-93 -32.5q-37 0 -75.5 21.5t-69 42.5t-46.5 21q-34 0 -50.5 -17t-16.5 -58z"/>
            <glyph unicode="¡" horiz-adv-x="257" d="M79 550v97h100v-97h-100zM84 0v471h89v-471h-89z"/>
            <glyph unicode="¢" horiz-adv-x="441" d="M45 225q0 103 43 166t131 75v93h74v-93q54 -7 109 -28l-31 -74q-45 22 -78 30v-332q38 9 81 31l31 -74q-36 -18 -112 -28v-91h-74v91q-86 12 -130 74t-44 160zM137 225q0 -136 82 -160v329q-82 -22 -82 -169z"/>
            <glyph unicode="£" d="M46 315v71h73v16q0 62 17.5 109t42.5 74t66 46t74.5 26.5t81.5 14.5l27 -84q-94 -9 -126 -23q-83 -35 -83 -160v-19h162v-71h-162v-235h272v-80h-438v80h66v235h-73z"/>
            <glyph unicode="¤" d="M-1 222l24 77h73v24q0 3 -0.5 11t-0.5 11q0 2 0.5 5.5t0.5 5.5h-97l24 77h83q42 226 266 226q85 0 165 -26l-26 -84q-73 33 -139 33q-72 0 -110 -38.5t-53 -110.5h268l-24 -77h-254v-57h238l-24 -77h-207q12 -79 49.5 -121t110.5 -42q11 0 21.5 1t22.5 4t19.5 4.5t22 7 t19.5 7.5l22.5 9t21.5 9v-95q-72 -24 -148 -24q-228 0 -264 240h-104z"/>
            <glyph unicode="¥" d="M3 647h111l148 -270l145 270h104l-187 -328h120v-70h-136v-61h136v-71h-136v-117h-100v117h-135v71h135v61h-135v70h118z"/>
            <glyph unicode="¦" horiz-adv-x="257" d="M89 -78v234h79v-234h-79zM89 359v234h79v-234h-79z"/>
            <glyph unicode="§" horiz-adv-x="454" d="M47 332q0 76 62 106q-46 34 -46 88q0 71 52.5 102t129.5 31q56 0 139 -30l-31 -74q-2 1 -16.5 8.5t-17.5 8.5t-15 6t-18.5 6.5t-17.5 3t-22 1.5q-90 0 -90 -60q0 -23 26 -38t63 -25t73.5 -24.5t62.5 -46.5t26 -80q0 -69 -58 -101q39 -32 39 -93q0 -70 -52.5 -103.5 t-129.5 -33.5q-73 0 -153 31l31 75q8 -3 23.5 -10t24 -10.5t21.5 -8t26.5 -6t28.5 -1.5q48 0 67.5 17t19.5 49q0 26 -25.5 42.5t-62 26.5t-73 23.5t-62 43.5t-25.5 76zM139 334q0 -13 7 -23t23 -18t29.5 -13t38.5 -12.5t37 -11.5q41 17 41 58q0 9 -2 16t-6.5 13.5t-9 11 t-13 9.5t-14.5 8t-18 7t-19 6.5t-21 7t-21 6.5q-52 -12 -52 -65z"/>
            <glyph unicode="¨" horiz-adv-x="228" d="M-6 564v83h84v-83h-84zM149 564v83h84v-83h-84z"/>
            <glyph unicode="©" horiz-adv-x="720" d="M25 324q0 141 97 237.5t238 96.5q143 0 239 -96t96 -238q0 -141 -97 -237.5t-238 -96.5t-238 96.5t-97 237.5zM84 324q0 -115 81 -198t195 -83t195 83t81 198q0 116 -80 198.5t-196 82.5q-117 0 -196.5 -82t-79.5 -199zM184 322q0 90 42 145.5t136 55.5q56 0 101 -15 l-20 -53q-47 20 -81 20q-114 0 -114 -152q0 -157 110 -157q33 0 90 23l19 -53q-52 -18 -108 -18q-175 0 -175 204z"/>
            <glyph unicode="ª" d="M136 457q0 92 150 92h24v13q0 22 -10 33t-37 11q-52 0 -97 -21l-18 45q54 19 117 19q46 0 75 -20.5t29 -59.5v-101q0 -4 10 -77h-55q0 1 -5 13.5t-5 14.5q-33 -35 -74 -35q-48 0 -76 18.5t-28 54.5zM196 459q0 -32 52 -32q39 0 62 33v48h-16q-55 0 -76.5 -11t-21.5 -38z "/>
            <glyph unicode="«" horiz-adv-x="387" d="M28 270l93 182h84l-97 -180l96 -180h-83zM183 270l93 182h85l-97 -180l96 -180h-84z"/>
            <glyph unicode="¬" d="M25 274v71h459v-247h-80v176h-379z"/>
            <glyph unicode="­" horiz-adv-x="338" d="M28 196v76h282v-76h-282z"/>
            <glyph unicode="®" horiz-adv-x="720" d="M25 324q0 141 97 237.5t238 96.5q143 0 239 -96t96 -238q0 -141 -97 -237.5t-238 -96.5t-238 96.5t-97 237.5zM84 324q0 -115 81 -198t195 -83t195 83t81 198q0 116 -80 198.5t-196 82.5q-117 0 -196.5 -82t-79.5 -199zM228 129v390h136q55 0 93 -25.5t38 -84.5 q0 -100 -106 -111l130 -169h-75l-128 167h-26v-167h-62zM290 344h78q64 0 64 65q0 60 -65 60h-77v-125z"/>
            <glyph unicode="¯" horiz-adv-x="228" d="M-9 555v71h246v-71h-246z"/>
            <glyph unicode="°" horiz-adv-x="410" d="M47 458q0 67 46.5 112t111.5 45t112 -45t47 -112q0 -66 -47 -110t-113 -44t-111.5 43.5t-45.5 110.5zM110 458q0 -39 28 -66t66 -27t66.5 27.5t28.5 65.5q0 42 -26.5 69.5t-67.5 27.5t-68 -27.5t-27 -69.5z"/>
            <glyph unicode="±" d="M40 1v71h434v-71h-434zM44 242v71h173v115h80v-115h173v-71h-173v-122h-80v122h-173z"/>
            <glyph unicode="²" horiz-adv-x="349" d="M45 366q10 8 40.5 29.5t51.5 38t46 38.5t38.5 42.5t13.5 38.5q0 34 -17.5 46.5t-51.5 12.5q-37 0 -92 -26l-18 51q64 22 111 22q56 0 95 -25t39 -80q0 -15 -6 -31t-19 -32t-24.5 -28.5t-32.5 -29.5t-31.5 -25t-33.5 -24t-27 -19h176v-47h-240z"/>
            <glyph unicode="³" horiz-adv-x="349" d="M49 322l19 51q44 -18 89 -18q33 0 54.5 13.5t21.5 39.5q0 37 -29 49.5t-87 12.5v45q55 0 81 10.5t26 42.5q0 26 -16 35t-46 9q-31 0 -87 -25l-19 52q43 20 107 20q59 0 93 -23t34 -67q0 -34 -23.5 -53t-58.5 -23q38 -5 64.5 -25.5t26.5 -60.5q0 -52 -42.5 -75t-101.5 -23 q-65 0 -106 13z"/>
            <glyph unicode="´" horiz-adv-x="228" d="M19 530l96 117h94l-125 -117h-65z"/>
            <glyph unicode="¶" horiz-adv-x="540" d="M60 465q0 31 7 58.5t25.5 57.5t58.5 48t97 18h252v-835h-80v764h-100q-48 0 -78.5 -30.5t-30.5 -87.5q0 -43 30 -75t68 -42v-529h-79v472q-46 5 -80.5 23.5t-53 45t-27.5 54.5t-9 58z"/>
            <glyph unicode="·" horiz-adv-x="257" d="M80 228v99h97v-99h-97z"/>
            <glyph unicode="¸" horiz-adv-x="228" d="M2 -191l20 65q64 -8 72 -8q48 0 48 35q0 19 -15 27t-65 8l21 79h73l-10 -42q34 0 52.5 -22t18.5 -48q0 -48 -34 -75t-84 -27q-39 0 -97 8z"/>
            <glyph unicode="¹" horiz-adv-x="349" d="M79 581l89 66h60v-334h-65v274l-66 -52z"/>
            <glyph unicode="º" d="M127 528q0 57 32 94t99 37q68 0 99 -36t31 -95t-31.5 -96.5t-98.5 -37.5t-99 37.5t-32 96.5zM186 528q0 -92 72 -92q70 0 70 92q0 46 -16.5 67t-53.5 21q-72 0 -72 -88z"/>
            <glyph unicode="»" horiz-adv-x="387" d="M27 452h84l93 -182l-93 -178h-83l96 180zM182 452h85l93 -182l-93 -178h-84l96 180z"/>
            <glyph unicode="¼" horiz-adv-x="784" d="M64 581l90 66h53l7 -334h-66v274l-65 -52zM128 0l363 629h80l-364 -629h-79zM397 135l162 199h68v-199h53v-47h-53v-88h-65v88h-144zM451 135h111v137z"/>
            <glyph unicode="½" horiz-adv-x="784" d="M62 581l89 66h60v-334h-65v274l-66 -52zM125 0l362 629h81l-363 -629h-80zM455 50q10 8 40 29t52 38t46.5 38.5t38 42t13.5 38.5q0 34 -17.5 46t-51.5 12q-36 0 -91 -26l-18 51q64 22 110 22q57 0 95.5 -24.5t38.5 -79.5q0 -15 -5.5 -31t-19 -32.5t-24.5 -28.5t-32.5 -29 t-31 -24.5t-33.5 -24.5t-27 -19h175v-48h-240z"/>
            <glyph unicode="¾" horiz-adv-x="784" d="M48 322l18 51q44 -18 90 -18q33 0 54.5 13.5t21.5 39.5q0 37 -29.5 49.5t-87.5 12.5v45q55 0 81.5 10.5t26.5 42.5q0 26 -16 35t-47 9t-87 -25l-18 52q43 20 107 20q59 0 92.5 -22.5t33.5 -67.5q0 -34 -23 -53t-58 -23q38 -5 64 -25.5t26 -60.5q0 -53 -42.5 -75.5 t-100.5 -22.5q-65 0 -106 13zM159 0l362 629h81l-363 -629h-80zM418 135l162 199h68v-199h53v-47h-53v-88h-65v88h-144zM472 135h111v137z"/>
            <glyph unicode="¿" horiz-adv-x="435" d="M51 150q0 33 17 60.5t40.5 47.5t47.5 39t41 43t17 51v86h91v-91q0 -38 -16.5 -68t-39.5 -49t-46 -36t-39.5 -38t-16.5 -45q0 -45 21.5 -64t72.5 -19q28 0 73 11t72 24l18 -82q-86 -30 -163 -30q-38 0 -67.5 6t-59.5 21.5t-46.5 49t-16.5 83.5zM209 550v97h100v-97h-100z "/>
            <glyph unicode="À" horiz-adv-x="657" d="M31 0l263 647h88l244 -647h-110l-64 183h-248l-68 -183h-105zM232 258h195l-94 273zM243 805h90l100 -117h-66z"/>
            <glyph unicode="Á" horiz-adv-x="657" d="M31 0l263 647h88l244 -647h-110l-64 183h-248l-68 -183h-105zM232 258h195l-94 273zM243 687l96 117h94l-125 -117h-65z"/>
            <glyph unicode="Â" horiz-adv-x="657" d="M31 0l263 647h88l244 -647h-110l-64 183h-248l-68 -183h-105zM208 696l94 114h68l92 -114h-69l-57 68l-60 -68h-68zM232 258h195l-94 273z"/>
            <glyph unicode="Ã" horiz-adv-x="657" d="M31 0l263 647h88l244 -647h-110l-64 183h-248l-68 -183h-105zM191 707q18 40 40 55t61 15q21 0 51 -20.5t44 -20.5q18 0 30.5 13.5t17.5 29.5l52 -23q-11 -33 -37.5 -53.5t-60.5 -20.5q-24 0 -54 21t-44 21q-37 0 -49 -41zM232 258h195l-94 273z"/>
            <glyph unicode="Ä" horiz-adv-x="657" d="M31 0l263 647h88l244 -647h-110l-64 183h-248l-68 -183h-105zM216 683v83h84v-83h-84zM232 258h195l-94 273zM371 683v83h84v-83h-84z"/>
            <glyph unicode="Å" horiz-adv-x="657" d="M31 0l263 647h88l244 -647h-110l-64 183h-248l-68 -183h-105zM232 258h195l-94 273zM258 753q0 34 24 58t59 24t59 -23.5t24 -58.5q0 -34 -24 -58t-59 -24q-34 0 -58.5 24t-24.5 58zM296 754q0 -17 13 -31t32 -14q21 0 32.5 13t11.5 32t-12 32t-32 13t-32.5 -13.5 t-12.5 -31.5z"/>
            <glyph unicode="Æ" horiz-adv-x="944" d="M31 0l367 647h454v-77h-337l35 -197h281v-77h-267l39 -219h258v-77h-345l-30 183h-242l-100 -183h-113zM284 258h191l-44 272z"/>
            <glyph unicode="Ç" horiz-adv-x="559" d="M61 323q0 71 14.5 129t47 106.5t90 75t137.5 26.5q84 0 164 -26l-32 -85q-77 33 -132 33q-186 0 -186 -258q0 -128 41.5 -196.5t138.5 -68.5q51 0 145 38l32 -85q-84 -30 -166 -31l-2 -8q34 0 53.5 -22t19.5 -48q0 -48 -34.5 -75t-84.5 -27q-39 0 -97 8l20 65 q56 -7 72 -7q48 0 48 34q0 19 -15 27t-65 8l14 51q-223 34 -223 336z"/>
            <glyph unicode="È" horiz-adv-x="559" d="M96 0v647h371v-77h-271v-197h250v-77h-250v-219h280v-77h-380zM174 805h94l96 -117h-66z"/>
            <glyph unicode="É" horiz-adv-x="559" d="M96 0v647h371v-77h-271v-197h250v-77h-250v-219h280v-77h-380zM184 677l96 117h94l-125 -117h-65z"/>
            <glyph unicode="Ê" horiz-adv-x="559" d="M96 0v647h371v-77h-271v-197h250v-77h-250v-219h280v-77h-380zM155 690l94 114h68l92 -114h-69l-57 68l-60 -68h-68z"/>
            <glyph unicode="Ë" horiz-adv-x="559" d="M96 0v647h371v-77h-271v-197h250v-77h-250v-219h280v-77h-380zM169 683v83h84v-83h-84zM324 683v83h84v-83h-84z"/>
            <glyph unicode="Ì" horiz-adv-x="268" d="M22 809h94l96 -117h-66zM84 0v647h100v-647h-100z"/>
            <glyph unicode="Í" horiz-adv-x="269" d="M44 692l96 117h94l-125 -117h-65zM85 0v647h100v-647h-100z"/>
            <glyph unicode="Î" horiz-adv-x="269" d="M7 692l94 114h68l92 -114h-69l-57 68l-60 -68h-68zM84 0v647h100v-647h-100z"/>
            <glyph unicode="Ï" horiz-adv-x="268" d="M15 709v83h84v-83h-84zM84 0v647h100v-647h-100zM170 709v83h84v-83h-84z"/>
            <glyph unicode="Ð" horiz-adv-x="651" d="M29 329v70h67v248h185q164 0 236.5 -73.5t72.5 -247.5q0 -175 -72.5 -250.5t-236.5 -75.5h-185v329h-67zM196 77h94q99 0 148 56t49 192q0 75 -13 124t-41 75t-63.5 36t-88.5 10h-85v-171h125v-70h-125v-252z"/>
            <glyph unicode="Ñ" horiz-adv-x="701" d="M96 0v647h146l265 -529v529h98v-647h-148l-267 529v-529h-94zM197 706q18 40 40 55t61 15q21 0 51 -20.5t44 -20.5q18 0 30.5 13.5t17.5 29.5l52 -23q-11 -33 -37.5 -53.5t-60.5 -20.5q-24 0 -54 21t-44 21q-37 0 -49 -41z"/>
            <glyph unicode="Ò" horiz-adv-x="703" d="M61 321q0 155 70 246.5t223 91.5q288 0 288 -338q0 -156 -68.5 -247.5t-220.5 -91.5q-292 0 -292 339zM164 321q0 -134 44 -198t145 -64t143.5 66.5t42.5 195.5q0 132 -43.5 196.5t-142.5 64.5q-100 0 -144.5 -64.5t-44.5 -196.5zM223 805h94l96 -117h-66z"/>
            <glyph unicode="Ó" horiz-adv-x="703" d="M61 321q0 155 70 246.5t223 91.5q288 0 288 -338q0 -156 -68.5 -247.5t-220.5 -91.5q-292 0 -292 339zM164 321q0 -134 44 -198t145 -64t143.5 66.5t42.5 195.5q0 132 -43.5 196.5t-142.5 64.5q-100 0 -144.5 -64.5t-44.5 -196.5zM273 687l96 117h94l-125 -117h-65z"/>
            <glyph unicode="Ô" horiz-adv-x="703" d="M61 321q0 155 70 246.5t223 91.5q288 0 288 -338q0 -156 -68.5 -247.5t-220.5 -91.5q-292 0 -292 339zM164 321q0 -134 44 -198t145 -64t143.5 66.5t42.5 195.5q0 132 -43.5 196.5t-142.5 64.5q-100 0 -144.5 -64.5t-44.5 -196.5zM224 690l94 114h68l92 -114h-69l-57 68 l-60 -68h-68z"/>
            <glyph unicode="Õ" horiz-adv-x="703" d="M61 321q0 155 70 246.5t223 91.5q288 0 288 -338q0 -156 -68.5 -247.5t-220.5 -91.5q-292 0 -292 339zM164 321q0 -134 44 -198t145 -64t143.5 66.5t42.5 195.5q0 132 -43.5 196.5t-142.5 64.5q-100 0 -144.5 -64.5t-44.5 -196.5zM207 706q18 40 40 55t61 15 q21 0 51 -20.5t44 -20.5q18 0 30.5 13.5t17.5 29.5l52 -23q-11 -33 -37.5 -53.5t-60.5 -20.5q-24 0 -54 21t-44 21q-37 0 -49 -41z"/>
            <glyph unicode="Ö" horiz-adv-x="703" d="M61 321q0 155 70 246.5t223 91.5q288 0 288 -338q0 -156 -68.5 -247.5t-220.5 -91.5q-292 0 -292 339zM164 321q0 -134 44 -198t145 -64t143.5 66.5t42.5 195.5q0 132 -43.5 196.5t-142.5 64.5q-100 0 -144.5 -64.5t-44.5 -196.5zM233 682v83h84v-83h-84zM388 682v83h84 v-83h-84z"/>
            <glyph unicode="×" d="M47 84l155 155l-155 155l56 56l155 -155l155 155l56 -56l-155 -155l155 -155l-56 -56l-155 155l-155 -155z"/>
            <glyph unicode="Ø" horiz-adv-x="703" d="M16 -1l90 106q-45 79 -45 216q0 155 70 246.5t223 91.5q112 0 180 -52l76 90l66 -60l-82 -96q48 -82 48 -220q0 -156 -68.5 -247.5t-220.5 -91.5q-117 0 -187 57l-85 -100zM164 321q0 -82 15 -131l297 349q-45 43 -123 43q-100 0 -144.5 -64.5t-44.5 -196.5zM224 106 q44 -47 129 -47q101 0 143.5 66.5t42.5 195.5q0 83 -17 135z"/>
            <glyph unicode="Ù" horiz-adv-x="701" d="M96 239v408h100v-398q0 -110 39.5 -150t121.5 -40q74 0 111 44t37 146v398h100v-410q0 -255 -248 -255q-135 0 -198 63t-63 194zM227 805h94l96 -117h-66z"/>
            <glyph unicode="Ú" horiz-adv-x="701" d="M96 239v408h100v-398q0 -110 39.5 -150t121.5 -40q74 0 111 44t37 146v398h100v-410q0 -255 -248 -255q-135 0 -198 63t-63 194zM276 678l96 117h94l-125 -117h-65z"/>
            <glyph unicode="Û" horiz-adv-x="701" d="M96 239v408h100v-398q0 -110 39.5 -150t121.5 -40q74 0 111 44t37 146v398h100v-410q0 -255 -248 -255q-135 0 -198 63t-63 194zM223 690l94 114h68l92 -114h-69l-57 68l-60 -68h-68z"/>
            <glyph unicode="Ü" horiz-adv-x="701" d="M96 239v408h100v-398q0 -110 39.5 -150t121.5 -40q74 0 111 44t37 146v398h100v-410q0 -255 -248 -255q-135 0 -198 63t-63 194zM236 683v83h84v-83h-84zM391 683v83h84v-83h-84z"/>
            <glyph unicode="Ý" horiz-adv-x="590" d="M15 647h113l173 -270l168 270h106l-228 -356v-291h-100v287zM189 692l96 117h94l-125 -117h-65z"/>
            <glyph unicode="Þ" horiz-adv-x="578" d="M96 0v647h100v-123h107q223 0 223 -189q0 -195 -212 -195h-118v-140h-100zM196 217h110q58 0 88 26.5t30 91.5q0 66 -31.5 89t-91.5 23h-105v-230z"/>
            <glyph unicode="ß" horiz-adv-x="516" d="M68 0v471q0 186 167 186q73 0 123 -35.5t50 -114.5q0 -24 -8 -46.5t-18 -37.5t-26.5 -30t-27 -22.5t-26 -17t-17.5 -10.5q4 -2 23 -9t28.5 -11.5t29.5 -15t31.5 -20t27 -26t24 -34.5t14.5 -42.5t6 -52.5q0 -47 -16 -84t-41.5 -60t-61 -38t-72 -21t-76.5 -6l30 77 q68 0 107 35t39 99q0 42 -16.5 73t-47.5 50t-51 27t-51 17v71q21 14 31 21t31.5 26.5t32 42t10.5 48.5q0 38 -24.5 58t-57.5 20q-39 0 -58.5 -23t-19.5 -83v-482h-89z"/>
            <glyph unicode="à" horiz-adv-x="501" d="M45 120q0 77 55.5 119.5t192.5 42.5h41v29q0 89 -78 89q-77 0 -161 -40l-31 74q95 35 195 35q76 0 120.5 -37t44.5 -109v-183q0 -16 2.5 -38t7 -52.5t6.5 -49.5h-83q0 2 -8 25t-8 25q-53 -62 -124 -62q-80 0 -126 33.5t-46 98.5zM110 647h94l96 -117h-66zM139 124 q0 -33 25 -50t67 -17q71 0 104 54v109h-28q-92 0 -130 -23t-38 -73z"/>
            <glyph unicode="á" horiz-adv-x="501" d="M45 120q0 77 55.5 119.5t192.5 42.5h41v29q0 89 -78 89q-77 0 -161 -40l-31 74q95 35 195 35q76 0 120.5 -37t44.5 -109v-183q0 -16 2.5 -38t7 -52.5t6.5 -49.5h-83q0 2 -8 25t-8 25q-53 -62 -124 -62q-80 0 -126 33.5t-46 98.5zM139 124q0 -33 25 -50t67 -17 q71 0 104 54v109h-28q-92 0 -130 -23t-38 -73zM162 530l96 117h94l-125 -117h-65z"/>
            <glyph unicode="â" horiz-adv-x="501" d="M45 120q0 77 55.5 119.5t192.5 42.5h41v29q0 89 -78 89q-77 0 -161 -40l-31 74q95 35 195 35q76 0 120.5 -37t44.5 -109v-183q0 -16 2.5 -38t7 -52.5t6.5 -49.5h-83q0 2 -8 25t-8 25q-53 -62 -124 -62q-80 0 -126 33.5t-46 98.5zM107 533l94 114h68l92 -114h-69l-57 68 l-60 -68h-68zM139 124q0 -33 25 -50t67 -17q71 0 104 54v109h-28q-92 0 -130 -23t-38 -73z"/>
            <glyph unicode="ã" horiz-adv-x="501" d="M45 120q0 77 55.5 119.5t192.5 42.5h41v29q0 89 -78 89q-77 0 -161 -40l-31 74q95 35 195 35q76 0 120.5 -37t44.5 -109v-183q0 -16 2.5 -38t7 -52.5t6.5 -49.5h-83q0 2 -8 25t-8 25q-53 -62 -124 -62q-80 0 -126 33.5t-46 98.5zM88 551q18 40 40 55t61 15q21 0 51 -20.5 t44 -20.5q31 0 51 43l49 -23q-11 -33 -37.5 -53.5t-60.5 -20.5q-24 0 -54 21t-44 21q-37 0 -49 -41zM139 124q0 -33 25 -50t67 -17q71 0 104 54v109h-28q-92 0 -130 -23t-38 -73z"/>
            <glyph unicode="ä" horiz-adv-x="501" d="M45 120q0 77 55.5 119.5t192.5 42.5h41v29q0 89 -78 89q-77 0 -161 -40l-31 74q95 35 195 35q76 0 120.5 -37t44.5 -109v-183q0 -16 2.5 -38t7 -52.5t6.5 -49.5h-83q0 2 -8 25t-8 25q-53 -62 -124 -62q-80 0 -126 33.5t-46 98.5zM126 535v89h84v-89h-84zM139 124 q0 -33 25 -50t67 -17q71 0 104 54v109h-28q-92 0 -130 -23t-38 -73zM282 535v89h85v-89h-85z"/>
            <glyph unicode="å" horiz-adv-x="501" d="M45 120q0 77 55.5 119.5t192.5 42.5h41v29q0 89 -78 89q-77 0 -161 -40l-31 74q95 35 195 35q76 0 120.5 -37t44.5 -109v-183q0 -16 2.5 -38t7 -52.5t6.5 -49.5h-83q0 2 -8 25t-8 25q-53 -62 -124 -62q-80 0 -126 33.5t-46 98.5zM139 124q0 -33 25 -50t67 -17 q71 0 104 54v109h-28q-92 0 -130 -23t-38 -73zM157 589q0 34 24 58t59 24t59 -23.5t24 -58.5q0 -34 -24 -58t-59 -24q-34 0 -58.5 24t-24.5 58zM195 590q0 -17 13 -31t32 -14q21 0 32.5 13t11.5 32t-12 32t-32 13t-32.5 -13.5t-12.5 -31.5z"/>
            <glyph unicode="æ" horiz-adv-x="787" d="M45 120q0 77 55.5 119.5t192.5 42.5h42v29q0 89 -79 89q-77 0 -161 -40l-31 74q95 35 195 35q95 0 136 -65q52 65 138 65q116 0 161.5 -68.5t45.5 -206.5h-315q10 -139 121 -139q61 0 139 39l29 -70q-78 -36 -176 -36q-59 0 -101.5 24.5t-59.5 62.5q-67 -87 -160 -87 q-80 0 -126 33.5t-46 98.5zM139 124q0 -33 25 -50t67 -17q33 0 61 19.5t44 45.5v94h-29q-93 0 -130.5 -21t-37.5 -71zM425 261h225q-4 139 -116 139q-44 0 -74.5 -34t-34.5 -105z"/>
            <glyph unicode="ç" horiz-adv-x="441" d="M45 225q0 114 55 178.5t162 64.5q63 0 135 -28l-27 -77q-61 36 -109 36q-65 0 -94.5 -42.5t-29.5 -131.5q0 -81 31.5 -124t91.5 -43q47 0 114 37l26 -78q-45 -20 -120 -28l-4 -18q34 0 52.5 -21.5t18.5 -46.5q0 -46 -34 -74t-83 -28q-39 0 -97 8l16 62q56 -7 76 -7 q21 0 36 9t15 28t-16.5 27t-66.5 8l15 57q-79 15 -121 76.5t-42 155.5z"/>
            <glyph unicode="è" horiz-adv-x="501" d="M45 224q0 44 9.5 84t31.5 78t63.5 60.5t98.5 22.5q116 0 161 -68t45 -207h-314q10 -139 121 -139q61 0 139 39l29 -70q-78 -36 -176 -36q-102 0 -155 67t-53 169zM123 647h94l96 -117h-66zM139 261h228q-4 139 -118 139q-44 0 -75 -34.5t-35 -104.5z"/>
            <glyph unicode="é" horiz-adv-x="501" d="M45 224q0 44 9.5 84t31.5 78t63.5 60.5t98.5 22.5q116 0 161 -68t45 -207h-314q10 -139 121 -139q61 0 139 39l29 -70q-78 -36 -176 -36q-102 0 -155 67t-53 169zM139 261h228q-4 139 -118 139q-44 0 -75 -34.5t-35 -104.5zM176 530l96 117h94l-125 -117h-65z"/>
            <glyph unicode="ê" horiz-adv-x="501" d="M45 224q0 44 9.5 84t31.5 78t63.5 60.5t98.5 22.5q116 0 161 -68t45 -207h-314q10 -139 121 -139q61 0 139 39l29 -70q-78 -36 -176 -36q-102 0 -155 67t-53 169zM127 533l94 114h68l92 -114h-69l-57 68l-60 -68h-68zM139 261h228q-4 139 -118 139q-44 0 -75 -34.5 t-35 -104.5z"/>
            <glyph unicode="ë" horiz-adv-x="501" d="M45 224q0 44 9.5 84t31.5 78t63.5 60.5t98.5 22.5q116 0 161 -68t45 -207h-314q10 -139 121 -139q61 0 139 39l29 -70q-78 -36 -176 -36q-102 0 -155 67t-53 169zM138 544v83h84v-83h-84zM139 261h228q-4 139 -118 139q-44 0 -75 -34.5t-35 -104.5zM293 544v83h84v-83 h-84z"/>
            <glyph unicode="ì" horiz-adv-x="228" d="M9 647h94l96 -117h-66zM69 0v457h90v-457h-90z"/>
            <glyph unicode="í" horiz-adv-x="228" d="M19 530l96 117h94l-125 -117h-65zM69 0v457h90v-457h-90z"/>
            <glyph unicode="î" horiz-adv-x="228" d="M-8 533l94 114h68l92 -114h-69l-57 68l-60 -68h-68zM68 0v457h90v-457h-90z"/>
            <glyph unicode="ï" horiz-adv-x="228" d="M-6 563v83h84v-83h-84zM69 0v457h90v-457h-90zM149 563v83h84v-83h-84z"/>
            <glyph unicode="ð" d="M45 188q0 102 50 158t147 56q36 0 75 -23.5t59 -63.5q0 164 -107 225l-82 -55l-66 38l68 47q-19 5 -84 12l-32 85q117 -8 197 -42l69 48l65 -38l-67 -46q132 -91 132 -306q0 -299 -220 -299q-87 0 -145.5 58.5t-58.5 145.5zM146 188q0 -62 28.5 -95.5t73.5 -33.5 q59 0 89 39t30 141q-34 88 -120 88q-32 0 -53.5 -12t-31 -34.5t-13 -43.5t-3.5 -49z"/>
            <glyph unicode="ñ" horiz-adv-x="509" d="M57 457h81l16 -64l8 11q9 10 13 14l14 14t18.5 15t20 11t24.5 9t27 3q90 0 126 -47.5t36 -134.5v-288h-89v289q0 53 -16.5 82t-69.5 29q-36 0 -64 -27t-45 -64v-309h-89v360q0 22 -5 54.5t-6 42.5zM106 551q18 40 40 55t61 15q21 0 51 -20.5t44 -20.5q32 0 50 43l50 -23 q-11 -33 -37.5 -53.5t-60.5 -20.5q-24 0 -54 21t-44 21q-37 0 -49 -41z"/>
            <glyph unicode="ò" horiz-adv-x="517" d="M45 231q0 104 51.5 171.5t162.5 67.5q112 0 162.5 -65.5t50.5 -173.5q0 -109 -51 -176.5t-162 -67.5q-112 0 -163 67.5t-51 176.5zM137 231q0 -174 122 -174q121 0 121 174q0 86 -28 127.5t-93 41.5q-122 0 -122 -169zM145 647h94l96 -117h-66z"/>
            <glyph unicode="ó" horiz-adv-x="517" d="M45 231q0 104 51.5 171.5t162.5 67.5q112 0 162.5 -65.5t50.5 -173.5q0 -109 -51 -176.5t-162 -67.5q-112 0 -163 67.5t-51 176.5zM137 231q0 -174 122 -174q121 0 121 174q0 86 -28 127.5t-93 41.5q-122 0 -122 -169zM178 530l96 117h94l-125 -117h-65z"/>
            <glyph unicode="ô" horiz-adv-x="517" d="M45 231q0 104 51.5 171.5t162.5 67.5q112 0 162.5 -65.5t50.5 -173.5q0 -109 -51 -176.5t-162 -67.5q-112 0 -163 67.5t-51 176.5zM133 533l94 114h68l92 -114h-69l-57 68l-60 -68h-68zM137 231q0 -174 122 -174q121 0 121 174q0 86 -28 127.5t-93 41.5q-122 0 -122 -169 z"/>
            <glyph unicode="õ" horiz-adv-x="517" d="M45 231q0 104 51.5 171.5t162.5 67.5q112 0 162.5 -65.5t50.5 -173.5q0 -109 -51 -176.5t-162 -67.5q-112 0 -163 67.5t-51 176.5zM102 551q18 40 40 55t61 15q21 0 51 -20.5t44 -20.5q18 0 30.5 13.5t17.5 29.5l52 -23q-11 -33 -37.5 -53.5t-60.5 -20.5q-24 0 -54 21 t-44 21q-37 0 -49 -41zM137 231q0 -174 122 -174q121 0 121 174q0 86 -28 127.5t-93 41.5q-122 0 -122 -169z"/>
            <glyph unicode="ö" horiz-adv-x="517" d="M45 231q0 104 51.5 171.5t162.5 67.5q112 0 162.5 -65.5t50.5 -173.5q0 -109 -51 -176.5t-162 -67.5q-112 0 -163 67.5t-51 176.5zM137 231q0 -174 122 -174q121 0 121 174q0 86 -28 127.5t-93 41.5q-122 0 -122 -169zM139 544v83h84v-83h-84zM294 544v83h84v-83h-84z "/>
            <glyph unicode="÷" d="M40 187v65h434v-65h-434zM208 12v96h99v-96h-99zM208 336v96h99v-96h-99z"/>
            <glyph unicode="ø" horiz-adv-x="517" d="M15 26l59 64q-29 58 -29 141q0 104 51.5 171.5t162.5 67.5q79 0 129 -39l53 58l61 -59l-57 -62q27 -55 27 -137q0 -109 -51 -176.5t-162 -67.5q-79 0 -130 38l-54 -58zM137 231q0 -38 7 -65l191 207q-27 27 -76 27q-122 0 -122 -169zM183 84q29 -27 76 -27q121 0 121 174 q0 39 -5 61z"/>
            <glyph unicode="ù" horiz-adv-x="502" d="M68 169v288h89v-289q0 -34 4.5 -55.5t24 -38.5t54.5 -17q64 0 105 91v309h89v-360q0 -22 5 -54.5t6 -42.5h-81l-16 64q-1 -2 -10 -13t-14.5 -17t-17 -16t-22 -16t-26 -10.5t-31.5 -4.5q-159 0 -159 182zM132 647h94l96 -117h-66z"/>
            <glyph unicode="ú" horiz-adv-x="502" d="M68 169v288h89v-289q0 -34 4.5 -55.5t24 -38.5t54.5 -17q64 0 105 91v309h89v-360q0 -22 5 -54.5t6 -42.5h-81l-16 64q-1 -2 -10 -13t-14.5 -17t-17 -16t-22 -16t-26 -10.5t-31.5 -4.5q-159 0 -159 182zM169 530l96 117h94l-125 -117h-65z"/>
            <glyph unicode="û" horiz-adv-x="502" d="M68 169v288h89v-289q0 -34 4.5 -55.5t24 -38.5t54.5 -17q64 0 105 91v309h89v-360q0 -22 5 -54.5t6 -42.5h-81l-16 64q-1 -2 -10 -13t-14.5 -17t-17 -16t-22 -16t-26 -10.5t-31.5 -4.5q-159 0 -159 182zM123 533l94 114h68l92 -114h-69l-57 68l-60 -68h-68z"/>
            <glyph unicode="ü" horiz-adv-x="502" d="M68 169v288h89v-289q0 -34 4.5 -55.5t24 -38.5t54.5 -17q64 0 105 91v309h89v-360q0 -22 5 -54.5t6 -42.5h-81l-16 64q-1 -2 -10 -13t-14.5 -17t-17 -16t-22 -16t-26 -10.5t-31.5 -4.5q-159 0 -159 182zM131 544v83h84v-83h-84zM286 544v83h78l6 -83h-84z"/>
            <glyph unicode="ý" horiz-adv-x="508" d="M38 457h96l131 -335l113 335h92l-191 -530q-21 -59 -56.5 -95t-100.5 -59l-29 75q71 19 88 65l40 106zM165 530l96 117h94l-125 -117h-65z"/>
            <glyph unicode="þ" horiz-adv-x="511" d="M57 -178q11 86 11 318v517h89v-264q52 76 123 76q96 0 141 -66.5t45 -171.5t-51 -174t-148 -69q-38 0 -67.5 18.5t-45.5 43.5l-16 -228h-81zM155 124q14 -31 41 -49t59 -18q119 0 119 172q0 171 -106 171q-29 0 -53.5 -17.5t-35.5 -34t-24 -41.5v-183z"/>
            <glyph unicode="ÿ" horiz-adv-x="508" d="M38 457h96l131 -335l113 335h92l-191 -530q-21 -59 -56.5 -95t-100.5 -59l-29 75q71 19 88 65l40 106zM144 547v83h84v-83h-84zM299 547v83h84v-83h-84z"/>
            <glyph unicode="ı" horiz-adv-x="228" d="M69 0v457h90v-457h-90z"/>
            <glyph unicode="Ł" horiz-adv-x="485" d="M-14 281l110 73v293h100v-226l78 52l44 -68l-122 -82v-243h282v-80h-382v257l-66 -44z"/>
            <glyph unicode="ł" horiz-adv-x="268" d="M-16 281l100 67v299h100v-232l62 42l44 -69l-106 -70v-318h-100v250l-56 -37z"/>
            <glyph unicode="Œ" horiz-adv-x="976" d="M61 321q0 155 70 246.5t223 91.5q54 0 97 -12h433v-77h-318q55 -62 64 -197h233v-77h-232q-3 -144 -64 -219h326v-77h-426q-49 -18 -114 -18q-292 0 -292 339zM164 321q0 -134 44 -198t145 -64q98 0 137 65.5t39 196.5q0 134 -39.5 197.5t-136.5 63.5 q-100 0 -144.5 -64.5t-44.5 -196.5z"/>
            <glyph unicode="œ" horiz-adv-x="832" d="M45 231q0 104 51.5 171.5t162.5 67.5q117 0 167 -83q49 82 153 82q116 0 161 -68t45 -207h-314q10 -139 121 -139q61 0 139 39l29 -70q-78 -36 -176 -36q-106 0 -158 84q-52 -85 -167 -85q-112 0 -163 67.5t-51 176.5zM137 231q0 -174 122 -174q121 0 121 174 q0 86 -28 127.5t-93 41.5q-122 0 -122 -169zM470 261h226q-4 139 -116 139q-44 0 -75 -34.5t-35 -104.5z"/>
            <glyph unicode="Š" horiz-adv-x="572" d="M66 12l32 85q101 -38 153 -38q153 0 153 107q0 21 -9.5 39t-20 28.5t-35.5 23.5t-38.5 18.5t-46.5 17.5q-35 13 -55 21.5t-49 25.5t-44.5 35t-27.5 46.5t-12 63.5q0 60 34.5 100.5t85 57t113.5 16.5q88 0 167 -27l-32 -85q-2 1 -13.5 6t-15 6.5t-14.5 5.5t-16 5.5 t-16 4.5t-19 4t-19.5 2t-22.5 1q-130 0 -130 -97q0 -27 19.5 -47.5t41 -30.5t64.5 -25q100 -35 138 -63q75 -54 75 -151q0 -186 -256 -186q-74 0 -184 30zM155 809h68l57 -67l60 67h69l-95 -114h-68z"/>
            <glyph unicode="š" horiz-adv-x="433" d="M40 18l31 74q4 -1 11 -4q71 -29 113 -31h14q48 0 67.5 17t19.5 49q0 15 -7 25.5t-25.5 20t-29.5 13.5t-41 14q-34 11 -53.5 19t-44.5 24.5t-37 40.5t-12 57q0 49 28.5 80t67 42t87.5 11q62 0 152 -30l-32 -75q-31 14 -43 19t-34 10.5t-45 5.5q-89 0 -89 -60 q0 -16 13.5 -28t28 -18t44.5 -16q83 -26 113 -48q51 -38 51 -106q0 -70 -52 -103.5t-129 -33.5q-90 0 -167 31zM87 647h68l57 -67l60 67h69l-95 -114h-68z"/>
            <glyph unicode="Ÿ" horiz-adv-x="590" d="M15 647h113l173 -270l168 270h106l-228 -356v-291h-100v287zM186 718v84h83v-84h-83zM339 718v84h82v-84h-82z"/>
            <glyph unicode="Ž" horiz-adv-x="550" d="M44 82l354 487h-317v78h397l28 -82l-354 -487h346v-78h-426zM148 805h68l57 -67l60 67h69l-95 -114h-68z"/>
            <glyph unicode="ž" horiz-adv-x="427" d="M31 74l264 314h-236v69h305l32 -74l-263 -314h249v-69h-320zM82 647h68l57 -67l60 67h69l-95 -114h-68z"/>
            <glyph unicode="ƒ" d="M98 -180l99 575h-69l11 62h69l8 48q7 42 26.5 72t50 47t55.5 25.5t61 15.5l5 -77q-103 -8 -117 -87l-8 -44h84l-10 -62h-84l-100 -575h-81z"/>
            <glyph unicode="ˆ" horiz-adv-x="228" d="M-13 533l94 114h68l92 -114h-69l-57 68l-60 -68h-68z"/>
            <glyph unicode="ˇ" horiz-adv-x="228" d="M-13 647h68l57 -67l60 67h69l-95 -114h-68z"/>
            <glyph unicode="˘" horiz-adv-x="228" d="M-34 598l53 30q7 -25 34 -45.5t64 -20.5q32 0 58 20.5t34 45.5l52 -30q-15 -38 -56 -68t-88 -30q-57 0 -97.5 29.5t-53.5 68.5z"/>
            <glyph unicode="˙" horiz-adv-x="228" d="M66 559v88h96v-88h-96z"/>
            <glyph unicode="˚" horiz-adv-x="228" d="M11 589q0 34 24 58t59 24t59 -23.5t24 -58.5q0 -34 -24 -58t-59 -24q-34 0 -58.5 24t-24.5 58zM49 590q0 -17 13 -31t32 -14q21 0 32.5 13t11.5 32t-12 32t-32 13t-32.5 -13.5t-12.5 -31.5z"/>
            <glyph unicode="˛" horiz-adv-x="228" d="M14 -99q0 30 19 56.5t36.5 38.5t34.5 20h108q-47 -21 -84 -51.5t-37 -57.5q0 -19 13.5 -28.5t33.5 -9.5q10 0 20 2t20 5t15 4l28 -67q-43 -11 -90 -11q-58 0 -87.5 26t-29.5 73z"/>
            <glyph unicode="˜" horiz-adv-x="228" d="M-34 551q18 40 40 55t61 15q21 0 51 -20.5t44 -20.5q18 0 30.5 13.5t17.5 29.5l52 -23q-11 -33 -37.5 -53.5t-60.5 -20.5q-24 0 -54 21t-44 21q-37 0 -49 -41z"/>
            <glyph unicode="˝" horiz-adv-x="228" d="M-26 529l96 117h93l-124 -117h-65zM114 529l96 117h94l-124 -117h-66z"/>
            <glyph unicode="Δ" horiz-adv-x="744" d="M54 0l279 647h78l279 -647h-636zM168 70h410l-205 490z"/>
            <glyph unicode="Ω" horiz-adv-x="707" d="M64 358q0 142 76.5 221.5t212.5 79.5q137 0 213.5 -79.5t76.5 -219.5q0 -60 -15 -111.5t-53 -94.5t-94 -60v-28h140v-66h-224v135q78 13 109.5 70t31.5 156q0 118 -51.5 169.5t-132.5 51.5q-37 0 -67.5 -10.5t-58.5 -34t-44 -69t-16 -108.5q0 -100 32 -157t110 -68v-135 h-225v66h141v28q-82 25 -122 98.5t-40 165.5z"/>
            <glyph unicode="μ" d="M74 -180v637h89v-289q0 -34 4.5 -55.5t24 -38.5t54.5 -17q59 0 105 101v299h89v-360q0 -22 5 -54.5t6 -42.5h-81l-16 64q-1 -2 -10 -13t-14.5 -17t-17 -16t-22 -16t-26 -10.5t-31.5 -4.5q-43 0 -70 22v-189h-89z"/>
            <glyph unicode="π" d="M23 386v71h456v-71h-74v-286q0 -48 19.5 -70t73.5 -30l-18 -65q-153 30 -153 161v290h-145v-386h-78v386h-81z"/>
            <glyph unicode=" " horiz-adv-x="417"/>
            <glyph unicode=" " horiz-adv-x="835"/>
            <glyph unicode=" " horiz-adv-x="417"/>
            <glyph unicode=" " horiz-adv-x="835"/>
            <glyph unicode=" " horiz-adv-x="278"/>
            <glyph unicode=" " horiz-adv-x="208"/>
            <glyph unicode=" " horiz-adv-x="139"/>
            <glyph unicode=" " horiz-adv-x="139"/>
            <glyph unicode=" " horiz-adv-x="104"/>
            <glyph unicode=" " horiz-adv-x="167"/>
            <glyph unicode=" " horiz-adv-x="46"/>
            <glyph unicode="‐" horiz-adv-x="338" d="M28 196v76h282v-76h-282z"/>
            <glyph unicode="‑" horiz-adv-x="338" d="M28 196v76h282v-76h-282z"/>
            <glyph unicode="‒" horiz-adv-x="338" d="M28 196v76h282v-76h-282z"/>
            <glyph unicode="–" horiz-adv-x="500" d="M-1 203v72h502v-72h-502z"/>
            <glyph unicode="—" horiz-adv-x="1000" d="M-1 197v78h1002v-78h-1002z"/>
            <glyph unicode="‘" horiz-adv-x="257" d="M45 460l99 188h63l-85 -188h-77z"/>
            <glyph unicode="’" horiz-adv-x="257" d="M47 460l84 188h77l-97 -188h-64z"/>
            <glyph unicode="‚" horiz-adv-x="257" d="M47 -88l84 188h77l-97 -188h-64z"/>
            <glyph unicode="“" horiz-adv-x="387" d="M40 460l99 188h63l-85 -188h-77zM185 460l98 188h64l-85 -188h-77z"/>
            <glyph unicode="”" horiz-adv-x="387" d="M40 460l85 188h77l-98 -188h-64zM184 460l85 188h78l-99 -188h-64z"/>
            <glyph unicode="„" horiz-adv-x="387" d="M40 -88l85 188h77l-98 -188h-64zM184 -88l85 188h78l-99 -188h-64z"/>
            <glyph unicode="†" d="M37 333v70h180v217h80v-217h180v-70h-180v-513h-80v513h-180z"/>
            <glyph unicode="‡" d="M37 160v71h180v189h-180v70h180v157h80v-157h180v-70h-180v-189h180v-71h-180v-160h-80v160h-180z"/>
            <glyph unicode="•" d="M122 324q0 57 39.5 96t95.5 39q57 0 96 -39t39 -96t-39 -96.5t-96 -39.5q-58 0 -96.5 39t-38.5 97z"/>
            <glyph unicode="…" horiz-adv-x="770" d="M79 0v96h99v-96h-99zM336 0v96h99v-96h-99zM593 0v96h98v-96h-98z"/>
            <glyph unicode=" " horiz-adv-x="167"/>
            <glyph unicode="‰" horiz-adv-x="1104" d="M48 487q0 172 135 172q77 0 106.5 -45t29.5 -127q0 -83 -30 -130.5t-107 -47.5q-76 0 -105 47t-29 131zM114 487q0 -33 2 -53.5t8.5 -40t21 -28.5t36.5 -9q43 0 57.5 33t14.5 98q0 64 -13.5 94.5t-57.5 30.5q-41 0 -55 -33.5t-14 -91.5zM158 0l362 629h81l-363 -629h-80z M452 166q0 172 135 172q77 0 106 -45t29 -127q0 -83 -29.5 -130.5t-106.5 -47.5q-76 0 -105 47t-29 131zM517 166q0 -66 13 -98.5t56 -32.5t57.5 33t14.5 98q0 64 -13.5 94.5t-57.5 30.5q-41 0 -55.5 -34t-14.5 -91zM785 166q0 172 135 172q77 0 106.5 -45t29.5 -127 q0 -83 -30 -130.5t-107 -47.5q-76 0 -105 47t-29 131zM851 166q0 -33 2 -53.5t8.5 -40t21 -28.5t36.5 -9q43 0 57.5 33t14.5 98q0 64 -13.5 94.5t-57.5 30.5q-41 0 -55 -33.5t-14 -91.5z"/>
            <glyph unicode="‹" horiz-adv-x="257" d="M42 270l93 182h84l-97 -180l96 -180h-83z"/>
            <glyph unicode="›" horiz-adv-x="257" d="M45 452h84l93 -182l-93 -178h-83l96 180z"/>
            <glyph unicode="⁄" horiz-adv-x="194" d="M-125 0l362 629h81l-363 -629h-80z"/>
            <glyph unicode=" " horiz-adv-x="208"/>
            <glyph unicode="™" horiz-adv-x="914" d="M75 602v45h281v-45h-110v-311h-61v311h-110zM404 291v356h97l113 -279l114 279h92v-356h-59v296l-121 -296h-57l-121 296v-296h-58z"/>
            <glyph unicode="∂" d="M45 188q0 102 50 158t147 56q36 0 75 -23.5t59 -63.5q0 100 -42.5 165.5t-124.5 65.5q-44 0 -99 -26l-31 83q67 18 135 18q65 0 115.5 -30t80 -79.5t44.5 -107.5t15 -121q0 -299 -220 -299q-87 0 -145.5 58.5t-58.5 145.5zM146 188q0 -62 28.5 -95.5t73.5 -33.5 q59 0 89 39t30 141q-34 88 -120 88q-32 0 -53.5 -12t-31 -34.5t-13 -43.5t-3.5 -49z"/>
            <glyph unicode="∏" d="M20 -180v882h474v-882h-80v815h-314v-815h-80z"/>
            <glyph unicode="∑" d="M30 -121l279 384l-266 380v59h441v-69h-340l259 -370l-274 -374h366v-69h-465v59z"/>
            <glyph unicode="−" d="M40 187v65h434v-65h-434z"/>
            <glyph unicode="√" d="M19 182v70h123l118 -295l169 790h80l-184 -874h-117l-129 309h-60z"/>
            <glyph unicode="∞" horiz-adv-x="744" d="M53 226q0 66 43 112.5t122 46.5q86 0 155 -96q25 31 42.5 48t48 32.5t65.5 15.5q84 0 123 -45t39 -114q0 -66 -41.5 -112.5t-122.5 -46.5q-86 0 -155 100q-77 -100 -156 -100q-80 0 -121.5 46t-41.5 113zM140 226q0 -38 23 -64t53 -26q48 0 112 92q-23 35 -52 61.5 t-58 26.5q-35 0 -56.5 -25.5t-21.5 -64.5zM417 228q19 -27 31.5 -43.5t35 -32.5t43.5 -16q34 0 55 25.5t21 64.5t-20 64.5t-54 25.5q-20 0 -42.5 -15t-36 -31t-33.5 -42z"/>
            <glyph unicode="∫" d="M119 -86q53 11 74 32.5t21 67.5v554q0 139 160 167l20 -71q-55 -10 -75 -31.5t-20 -68.5v-554q0 -135 -157 -167z"/>
            <glyph unicode="≈" d="M27 80q0 51 34 83t92 32q30 0 62 -13t53.5 -28.5t43 -28.5t33.5 -13q35 0 52 16.5t17 56.5l72 -38q0 -50 -35 -82.5t-93 -32.5q-37 0 -75.5 21t-69 42t-46.5 21q-34 0 -50.5 -16.5t-16.5 -57.5zM27 270q0 51 34 83t92 32q30 0 62 -13t53.5 -28.5t43 -28.5t33.5 -13 q35 0 52 16.5t17 56.5l72 -38q0 -50 -35 -82.5t-93 -32.5q-37 0 -75.5 21t-69 42t-46.5 21q-34 0 -50.5 -16.5t-16.5 -57.5z"/>
            <glyph unicode="≠" d="M40 83v72h143l53 101h-196v72h234l79 149l68 -38l-59 -111h112v-72h-150l-54 -101h204v-72h-242l-76 -144l-68 38l56 106h-104z"/>
            <glyph unicode="≤" d="M40 1v71h434v-71h-434zM40 221v97l434 127v-89l-341 -87l341 -84v-90z"/>
            <glyph unicode="≥" d="M40 1v71h434v-71h-434zM40 95v90l340 84l-340 87v89l434 -127v-97z"/>
            <glyph unicode="◊" d="M48 313l166 348h84l168 -348l-169 -350h-83zM125 313l131 -287l132 287l-132 287z"/>
            <glyph unicode="" horiz-adv-x="455" d="M0 0v455h455v-455h-455z"/>
            <glyph unicode="ﬁ" horiz-adv-x="494" d="M13 388v69h69v31q0 44 16 77t43.5 52.5t54.5 30.5t58 17l30 -75q-59 -10 -86 -30.5t-27 -64.5v-38h84v-69h-84v-388h-89v388h-69zM333 559v88h95v-88h-95zM336 0v457h89v-457h-89z"/>
            <glyph unicode="ﬂ" horiz-adv-x="494" d="M13 388v69h69v31q0 44 16 77t43.5 52.5t54.5 30.5t58 17l30 -75q-59 -10 -86 -30.5t-27 -64.5v-38h84v-69h-84v-388h-89v388h-69zM338 0v657h89v-657h-89z"/>
            <glyph horiz-adv-x="257"/>
            <glyph horiz-adv-x="240"/>
            <glyph d="M31 502l57 57l60 -59q50 33 107 33t110 -33l59 59l58 -57l-60 -60q34 -47 34 -108q0 -60 -34 -109l60 -60l-58 -57l-59 60q-49 -34 -108 -34q-61 0 -108 34l-60 -60l-57 57l59 60q-33 47 -33 110q0 61 33 108zM137 334q0 -50 35 -90t85 -40t85 39.5t35 90.5 q0 52 -34.5 90t-85.5 38q-49 0 -84.5 -39t-35.5 -89z"/>
            </font>
</defs>
</svg>
